<svg width="22" height="23" viewBox="0 0 22 23" fill="none" xmlns="http://www.w3.org/2000/svg">
<g id="ant-design:instagram-filled">
<path id="Vector" d="M10.9999 8.63619C9.42291 8.63619 8.13599 9.9231 8.13599 11.5001C8.13599 13.077 9.42291 14.3639 10.9999 14.3639C12.5768 14.3639 13.8637 13.077 13.8637 11.5001C13.8637 9.9231 12.5768 8.63619 10.9999 8.63619ZM19.5893 11.5001C19.5893 10.3141 19.6001 9.13892 19.5335 7.95513C19.4669 6.58013 19.1532 5.35982 18.1477 4.35435C17.1401 3.34673 15.9219 3.03521 14.5469 2.96861C13.361 2.90201 12.1858 2.91275 11.002 2.91275C9.81607 2.91275 8.64088 2.90201 7.45709 2.96861C6.08209 3.03521 4.86177 3.34888 3.8563 4.35435C2.84869 5.36197 2.53716 6.58013 2.47056 7.95513C2.40396 9.14107 2.4147 10.3163 2.4147 11.5001C2.4147 12.6838 2.40396 13.8612 2.47056 15.045C2.53716 16.42 2.85083 17.6403 3.8563 18.6458C4.86392 19.6534 6.08209 19.9649 7.45709 20.0315C8.64302 20.0981 9.81822 20.0874 11.002 20.0874C12.1879 20.0874 13.3631 20.0981 14.5469 20.0315C15.9219 19.9649 17.1422 19.6512 18.1477 18.6458C19.1553 17.6381 19.4669 16.42 19.5335 15.045C19.6022 13.8612 19.5893 12.686 19.5893 11.5001ZM10.9999 15.9065C8.56138 15.9065 6.59341 13.9385 6.59341 11.5001C6.59341 9.06158 8.56138 7.09361 10.9999 7.09361C13.4383 7.09361 15.4063 9.06158 15.4063 11.5001C15.4063 13.9385 13.4383 15.9065 10.9999 15.9065ZM15.5868 7.94224C15.0174 7.94224 14.5577 7.48248 14.5577 6.91314C14.5577 6.3438 15.0174 5.88404 15.5868 5.88404C16.1561 5.88404 16.6159 6.3438 16.6159 6.91314C16.616 7.04833 16.5895 7.18223 16.5379 7.30716C16.4862 7.4321 16.4104 7.54561 16.3148 7.6412C16.2192 7.7368 16.1057 7.8126 15.9808 7.86425C15.8559 7.91591 15.722 7.94241 15.5868 7.94224Z" fill="#2D2D2D"/>
</g>
</svg>
