<svg width="22" height="22" viewBox="0 0 22 22" fill="none" xmlns="http://www.w3.org/2000/svg">
<g id="ant-design:instagram-filled">
<path id="Vector" d="M10.9999 8.13594C9.42291 8.13594 8.13599 9.42286 8.13599 10.9998C8.13599 12.5768 9.42291 13.8637 10.9999 13.8637C12.5768 13.8637 13.8637 12.5768 13.8637 10.9998C13.8637 9.42286 12.5768 8.13594 10.9999 8.13594ZM19.5893 10.9998C19.5893 9.81388 19.6001 8.63868 19.5335 7.45489C19.4669 6.07989 19.1532 4.85958 18.1477 3.85411C17.1401 2.84649 15.9219 2.53497 14.5469 2.46836C13.361 2.40176 12.1858 2.4125 11.002 2.4125C9.81607 2.4125 8.64088 2.40176 7.45709 2.46836C6.08209 2.53497 4.86177 2.84864 3.8563 3.85411C2.84869 4.86172 2.53716 6.07989 2.47056 7.45489C2.40396 8.64083 2.4147 9.81602 2.4147 10.9998C2.4147 12.1836 2.40396 13.3609 2.47056 14.5447C2.53716 15.9197 2.85083 17.14 3.8563 18.1455C4.86392 19.1531 6.08209 19.4647 7.45709 19.5313C8.64302 19.5979 9.81822 19.5871 11.002 19.5871C12.1879 19.5871 13.3631 19.5979 14.5469 19.5313C15.9219 19.4647 17.1422 19.151 18.1477 18.1455C19.1553 17.1379 19.4669 15.9197 19.5335 14.5447C19.6022 13.3609 19.5893 12.1858 19.5893 10.9998ZM10.9999 15.4063C8.56138 15.4063 6.59341 13.4383 6.59341 10.9998C6.59341 8.56134 8.56138 6.59337 10.9999 6.59337C13.4383 6.59337 15.4063 8.56134 15.4063 10.9998C15.4063 13.4383 13.4383 15.4063 10.9999 15.4063ZM15.5868 7.442C15.0174 7.442 14.5577 6.98223 14.5577 6.4129C14.5577 5.84356 15.0174 5.38379 15.5868 5.38379C16.1561 5.38379 16.6159 5.84356 16.6159 6.4129C16.616 6.54809 16.5895 6.68198 16.5379 6.80692C16.4862 6.93185 16.4104 7.04537 16.3148 7.14096C16.2192 7.23656 16.1057 7.31235 15.9808 7.36401C15.8559 7.41567 15.722 7.44217 15.5868 7.442Z" fill="white"/>
</g>
</svg>
