<svg width="20" height="20" viewBox="0 0 20 20" fill="none" xmlns="http://www.w3.org/2000/svg">
<g id="dashicons:whatsapp">
<path id="Vector" d="M16.8003 5.69988C14.4003 1.99988 9.50027 0.899878 5.70027 3.19988C2.00027 5.49988 0.800268 10.4999 3.20027 14.1999L3.40027 14.4999L2.60027 17.4999L5.60027 16.6999L5.90027 16.8999C7.20027 17.5999 8.60027 17.9999 10.0003 17.9999C11.5003 17.9999 13.0003 17.5999 14.3003 16.7999C18.0003 14.3999 19.1003 9.49988 16.8003 5.69988ZM14.7003 13.3999C14.3003 13.9999 13.8003 14.3999 13.1003 14.4999C12.7003 14.4999 12.2003 14.6999 10.2003 13.8999C8.50027 13.0999 7.10027 11.7999 6.10027 10.2999C5.50027 9.59988 5.20027 8.69988 5.10027 7.79988C5.10027 6.99988 5.40027 6.29988 5.90027 5.79988C6.10027 5.59988 6.30027 5.49988 6.50027 5.49988H7.00027C7.20027 5.49988 7.40027 5.49988 7.50027 5.89988C7.70027 6.39988 8.20027 7.59988 8.20027 7.69988C8.30027 7.79988 8.30027 7.99988 8.20027 8.09988C8.30027 8.29988 8.20027 8.49988 8.10027 8.59988C8.00027 8.69988 7.90027 8.89988 7.80027 8.99988C7.60027 9.09988 7.50027 9.29988 7.60027 9.49988C8.00027 10.0999 8.50027 10.6999 9.00027 11.1999C9.60027 11.6999 10.2003 12.0999 10.9003 12.3999C11.1003 12.4999 11.3003 12.4999 11.4003 12.2999C11.5003 12.0999 12.0003 11.5999 12.2003 11.3999C12.4003 11.1999 12.5003 11.1999 12.7003 11.2999L14.3003 12.0999C14.5003 12.1999 14.7003 12.2999 14.8003 12.3999C14.9003 12.6999 14.9003 13.0999 14.7003 13.3999Z" fill="#2D2D2D"/>
</g>
</svg>
