<svg width="20" height="20" viewBox="0 0 20 20" fill="none" xmlns="http://www.w3.org/2000/svg">
<g id="dashicons:whatsapp">
<path id="Vector" d="M16.7993 5.69988C14.3993 1.99988 9.49929 0.899878 5.69929 3.19988C1.99929 5.49988 0.799291 10.4999 3.19929 14.1999L3.39929 14.4999L2.59929 17.4999L5.59929 16.6999L5.89929 16.8999C7.19929 17.5999 8.59929 17.9999 9.99929 17.9999C11.4993 17.9999 12.9993 17.5999 14.2993 16.7999C17.9993 14.3999 19.0993 9.49988 16.7993 5.69988ZM14.6993 13.3999C14.2993 13.9999 13.7993 14.3999 13.0993 14.4999C12.6993 14.4999 12.1993 14.6999 10.1993 13.8999C8.49929 13.0999 7.09929 11.7999 6.09929 10.2999C5.49929 9.59988 5.19929 8.69988 5.09929 7.79988C5.09929 6.99988 5.39929 6.29988 5.89929 5.79988C6.09929 5.59988 6.29929 5.49988 6.49929 5.49988H6.99929C7.19929 5.49988 7.39929 5.49988 7.49929 5.89988C7.69929 6.39988 8.19929 7.59988 8.19929 7.69988C8.29929 7.79988 8.29929 7.99988 8.19929 8.09988C8.29929 8.29988 8.19929 8.49988 8.09929 8.59988C7.99929 8.69988 7.89929 8.89988 7.79929 8.99988C7.59929 9.09988 7.49929 9.29988 7.59929 9.49988C7.99929 10.0999 8.49929 10.6999 8.99929 11.1999C9.59929 11.6999 10.1993 12.0999 10.8993 12.3999C11.0993 12.4999 11.2993 12.4999 11.3993 12.2999C11.4993 12.0999 11.9993 11.5999 12.1993 11.3999C12.3993 11.1999 12.4993 11.1999 12.6993 11.2999L14.2993 12.0999C14.4993 12.1999 14.6993 12.2999 14.7993 12.3999C14.8993 12.6999 14.8993 13.0999 14.6993 13.3999Z" fill="white"/>
</g>
</svg>
