<svg width="46" height="52" viewBox="0 0 46 52" fill="none" xmlns="http://www.w3.org/2000/svg">
<g clip-path="url(#clip0_1353_209)">
<path d="M0.589844 0H34.2722C40.6868 0 45.8868 5.27539 45.8868 11.7829V51.8449H12.2044C5.78987 51.8449 0.589844 46.5695 0.589844 40.062V0Z" fill="#817C67"/>
<path d="M24.5955 30.6096C27.1378 30.6096 29.1988 28.5187 29.1988 25.9396C29.1988 23.3604 27.1378 21.2695 24.5955 21.2695C22.0531 21.2695 19.9922 23.3604 19.9922 25.9396C19.9922 28.5187 22.0531 30.6096 24.5955 30.6096Z" fill="white"/>
<path d="M30.0605 31.7329C28.6761 32.997 26.8417 33.6992 24.8342 33.6992C23.8144 33.7285 22.7994 33.5458 21.8518 33.1622C20.9043 32.7786 20.0441 32.2023 19.3243 31.4688C18.6045 30.7353 18.0403 29.86 17.6665 28.897C17.2926 27.934 17.1171 26.9035 17.1505 25.869C17.1505 21.3394 20.3001 18.1793 24.8342 18.1793C26.8071 18.1793 28.6761 18.8464 30.0952 20.1105L31.0643 20.9532L35.3561 16.5992L34.2831 15.616C31.6841 13.2643 28.3168 11.9754 24.8342 11.9994C16.8736 11.9994 11.0935 17.8282 11.0935 25.8339C11.0512 27.6796 11.3772 29.5148 12.0519 31.2294C12.7265 32.9439 13.736 34.5024 15.0195 35.811C16.303 37.1197 17.8341 38.1516 19.5207 38.8446C21.2074 39.5377 23.0148 39.8776 24.8342 39.844C28.4684 39.844 31.8603 38.5448 34.3523 36.1922L35.3907 35.2091L31.0297 30.8551L30.0605 31.7329Z" fill="white"/>
</g>
<defs>
<clipPath id="clip0_1353_209">
<rect width="46" height="52" fill="white"/>
</clipPath>
</defs>
</svg>
