<svg width="126" height="35" viewBox="0 0 126 35" fill="none" xmlns="http://www.w3.org/2000/svg">
<path fill-rule="evenodd" clip-rule="evenodd" d="M85.4609 35H94.3343L98.1468 23.9905L102.11 20.616L105.233 30.5724C106.198 33.6498 107.192 35 109.36 35H116.153L109.146 15.4627L126 0H115.115L104.884 11.0097C103.692 12.2913 102.487 13.5528 101.278 15.0596H101.175L106.283 0H97.4098L85.4609 35Z" fill="#636878"/>
<path fill-rule="evenodd" clip-rule="evenodd" d="M84.7034 0.398819C87.5116 0.399271 90.235 0.399709 92.5163 0.399907L90.668 6.06363C90.0873 7.84311 88.6127 8.69446 85.3631 8.69446C79.7207 8.69446 71.3718 8.69348 65.7287 8.6925L67.5771 3.02877C68.1577 1.24831 69.6319 0.397461 72.8817 0.397461C76.2432 0.397461 80.5653 0.398154 84.7034 0.398819ZM68.3243 13.4014C73.9665 13.4014 82.3158 13.4024 87.9587 13.4038L86.1104 19.0674C85.5298 20.8473 84.0557 21.6982 80.8055 21.6982C75.163 21.6982 66.8142 21.6972 61.1712 21.6956L63.0194 16.0328C63.6001 14.2525 65.0745 13.4014 68.3243 13.4014ZM83.1781 26.4068C77.5351 26.4058 69.1862 26.4048 63.5437 26.4048C60.2934 26.4048 58.8195 27.2562 58.2389 29.0352L56.3906 34.6996C62.0335 34.7001 70.3825 34.7019 76.0252 34.7019C79.2748 34.7019 80.7491 33.8503 81.3298 32.0703L83.1781 26.4068Z" fill="#636878"/>
<path fill-rule="evenodd" clip-rule="evenodd" d="M44.6827 8.42999L49.509 8.43199C53.6212 8.43299 52.6825 13.4738 50.6014 18.3866C48.7677 22.7166 45.5175 26.5379 41.6403 26.5373L33.5944 26.5363C30.3852 26.5363 28.9056 27.4049 28.2814 29.2199L26.2949 34.999L32.1949 35L37.9621 34.9529C43.0767 34.9114 47.2639 34.5486 52.1604 30.2295C57.335 25.6667 63.3683 13.8136 62.3347 6.95784C61.5249 1.58545 58.5837 0.00249518 51.4617 0.00199615L38.4833 0L30.9265 21.7077L35.7279 21.7137C38.5855 21.7168 40.0196 21.7521 41.5396 17.7373L44.6827 8.42999Z" fill="#636878"/>
<path fill-rule="evenodd" clip-rule="evenodd" d="M22.1388 8.46019L18.5664 8.46118C11.41 8.46467 5.27756 26.5403 13.7392 26.5373L19.1761 26.5363C22.3117 26.5363 24.6394 27.6783 23.6087 30.7577L22.1884 34.999L16.4222 35L11.7319 34.9529C5.73168 34.8929 1.85971 31.9429 0.465537 27.4635C-1.04316 22.6161 1.08685 12.5058 7.26895 6.02937C10.856 2.27212 15.8248 0.00249518 22.1954 0.00199615L33.9651 0L32.1253 5.29728C30.9365 8.71993 28.5079 8.46467 27.1219 8.46418L22.1388 8.46019Z" fill="#636878"/>
</svg>
