<svg width="37" height="37" viewBox="0 0 37 37" fill="none" xmlns="http://www.w3.org/2000/svg">
<path d="M24.6028 4.61328C23.7871 4.61328 23.0049 4.9373 22.4281 5.51406C21.8514 6.09081 21.5273 6.87307 21.5273 7.68872V16.9151C21.5273 17.7307 21.8514 18.513 22.4281 19.0897C23.0049 19.6665 23.7871 19.9905 24.6028 19.9905C25.0106 19.9905 25.4017 20.1525 25.6901 20.4409C25.9785 20.7293 26.1405 21.1204 26.1405 21.5282V23.0659C26.1405 23.8816 25.8165 24.6638 25.2397 25.2406C24.663 25.8174 23.8807 26.1414 23.0651 26.1414C22.6572 26.1414 22.2661 26.3034 21.9777 26.5918C21.6894 26.8801 21.5273 27.2713 21.5273 27.6791V30.7545C21.5273 31.1624 21.6894 31.5535 21.9777 31.8419C22.2661 32.1303 22.6572 32.2923 23.0651 32.2923C25.512 32.2923 27.8588 31.3202 29.5891 29.5899C31.3193 27.8597 32.2914 25.5129 32.2914 23.0659V7.68872C32.2914 6.87307 31.9674 6.09081 31.3906 5.51406C30.8139 4.9373 30.0316 4.61328 29.216 4.61328H24.6028Z" stroke="#0077FF" stroke-width="2.30658" stroke-linecap="round" stroke-linejoin="round"/>
<path d="M7.68872 4.61328C6.87307 4.61328 6.09081 4.9373 5.51406 5.51406C4.9373 6.09081 4.61328 6.87307 4.61328 7.68872V16.9151C4.61328 17.7307 4.9373 18.513 5.51406 19.0897C6.09081 19.6665 6.87307 19.9905 7.68872 19.9905C8.09655 19.9905 8.48768 20.1525 8.77606 20.4409C9.06444 20.7293 9.22645 21.1204 9.22645 21.5282V23.0659C9.22645 23.8816 8.90243 24.6638 8.32567 25.2406C7.74891 25.8174 6.96666 26.1414 6.151 26.1414C5.74317 26.1414 5.35205 26.3034 5.06367 26.5918C4.77529 26.8801 4.61328 27.2713 4.61328 27.6791V30.7545C4.61328 31.1624 4.77529 31.5535 5.06367 31.8419C5.35205 32.1303 5.74317 32.2923 6.151 32.2923C8.59798 32.2923 10.9447 31.3202 12.675 29.5899C14.4053 27.8597 15.3773 25.5129 15.3773 23.0659V7.68872C15.3773 6.87307 15.0533 6.09081 14.4766 5.51406C13.8998 4.9373 13.1175 4.61328 12.3019 4.61328H7.68872Z" stroke="#0077FF" stroke-width="2.30658" stroke-linecap="round" stroke-linejoin="round"/>
</svg>
