<svg width="15" height="15" viewBox="0 0 15 15" fill="none" xmlns="http://www.w3.org/2000/svg">
<path d="M7.08639 1.41088C7.11334 1.35642 7.15498 1.31058 7.20661 1.27853C7.25823 1.24648 7.31779 1.22949 7.37856 1.22949C7.43932 1.22949 7.49888 1.24648 7.5505 1.27853C7.60213 1.31058 7.64377 1.35642 7.67072 1.41088L9.09158 4.28888C9.18518 4.4783 9.32335 4.64219 9.49423 4.76646C9.66511 4.89074 9.86359 4.9717 10.0726 5.00238L13.2502 5.46739C13.3104 5.47611 13.367 5.50151 13.4135 5.54071C13.46 5.5799 13.4946 5.63134 13.5135 5.68919C13.5323 5.74705 13.5345 5.80901 13.52 5.86808C13.5054 5.92715 13.4746 5.98096 13.431 6.02343L11.1331 8.26112C10.9815 8.4088 10.8681 8.5911 10.8027 8.79233C10.7372 8.99355 10.7216 9.20767 10.7572 9.41626L11.2997 12.5778C11.3104 12.638 11.3039 12.6999 11.281 12.7566C11.2581 12.8133 11.2197 12.8624 11.1703 12.8983C11.1209 12.9342 11.0623 12.9555 11.0013 12.9597C10.9404 12.964 10.8795 12.951 10.8255 12.9223L7.98503 11.4288C7.79787 11.3306 7.58964 11.2792 7.37825 11.2792C7.16685 11.2792 6.95862 11.3306 6.77146 11.4288L3.9316 12.9223C3.87768 12.9508 3.81682 12.9636 3.75596 12.9593C3.6951 12.955 3.63668 12.9337 3.58733 12.8978C3.53799 12.8619 3.4997 12.8129 3.47684 12.7563C3.45397 12.6998 3.44744 12.6379 3.45798 12.5778L3.99987 9.41687C4.03567 9.20819 4.02016 8.99394 3.95469 8.79258C3.88921 8.59123 3.77574 8.40884 3.62405 8.26112L1.32608 6.02404C1.28216 5.98162 1.25104 5.92772 1.23626 5.86847C1.22148 5.80922 1.22363 5.74702 1.24248 5.68894C1.26133 5.63086 1.29611 5.57924 1.34286 5.53996C1.38961 5.50068 1.44646 5.47532 1.50692 5.46677L4.68385 5.00238C4.89314 4.97193 5.0919 4.89108 5.26301 4.76679C5.43412 4.6425 5.57247 4.47849 5.66615 4.28888L7.08639 1.41088Z" fill="#0077FF" stroke="#0077FF" stroke-width="1.23018" stroke-linecap="round" stroke-linejoin="round"/>
</svg>
