<svg width="15" height="15" viewBox="0 0 15 15" fill="none" xmlns="http://www.w3.org/2000/svg">
<path d="M7.07254 1.41088C7.09944 1.35642 7.14098 1.31058 7.19248 1.27853C7.24398 1.24648 7.3034 1.22949 7.36402 1.22949C7.42464 1.22949 7.48406 1.24648 7.53556 1.27853C7.58707 1.31058 7.62861 1.35642 7.6555 1.41088L9.073 4.28888C9.16638 4.4783 9.30422 4.64219 9.4747 4.76646C9.64517 4.89074 9.84319 4.9717 10.0517 5.00238L13.2218 5.46739C13.2819 5.47611 13.3383 5.50151 13.3847 5.54071C13.4311 5.5799 13.4657 5.63134 13.4844 5.68919C13.5032 5.74705 13.5055 5.80901 13.4909 5.86808C13.4764 5.92715 13.4457 5.98096 13.4022 6.02343L11.1097 8.26112C10.9585 8.4088 10.8453 8.5911 10.78 8.79233C10.7147 8.99355 10.6992 9.20767 10.7347 9.41626L11.2759 12.5778C11.2866 12.638 11.2801 12.6999 11.2572 12.7566C11.2344 12.8133 11.1961 12.8624 11.1468 12.8983C11.0975 12.9342 11.0391 12.9555 10.9783 12.9597C10.9174 12.964 10.8566 12.951 10.8028 12.9223L7.96907 11.4288C7.78235 11.3306 7.57461 11.2792 7.36372 11.2792C7.15282 11.2792 6.94508 11.3306 6.75836 11.4288L3.92521 12.9223C3.87141 12.9508 3.8107 12.9636 3.74999 12.9593C3.68927 12.955 3.63098 12.9337 3.58175 12.8978C3.53253 12.8619 3.49433 12.8129 3.47152 12.7563C3.44871 12.6998 3.44219 12.6379 3.45271 12.5778L3.99332 9.41687C4.02903 9.20819 4.01356 8.99394 3.94824 8.79258C3.88292 8.59123 3.76972 8.40884 3.61839 8.26112L1.32585 6.02404C1.28203 5.98162 1.25098 5.92772 1.23623 5.86847C1.22149 5.80922 1.22364 5.74702 1.24244 5.68894C1.26125 5.63086 1.29594 5.57924 1.34259 5.53996C1.38923 5.50068 1.44594 5.47532 1.50626 5.46677L4.67568 5.00238C4.88448 4.97193 5.08276 4.89108 5.25347 4.76679C5.42418 4.6425 5.56221 4.47849 5.65566 4.28888L7.07254 1.41088Z" fill="#E0FF22" stroke="#E0FF22" stroke-width="1.23018" stroke-linecap="round" stroke-linejoin="round"/>
</svg>
