<svg width="336" height="236" viewBox="0 0 336 236" fill="none" xmlns="http://www.w3.org/2000/svg">
<g filter="url(#filter0_d_1505_2892)">
<rect x="38" y="13" width="260" height="160" rx="24" fill="#0077FF"/>
<rect x="68" y="50.5" width="48" height="48" rx="24" fill="#DBFF00"/>
<path d="M92 84.5C97.5228 84.5 102 80.0228 102 74.5C102 68.9772 97.5228 64.5 92 64.5C86.4772 64.5 82 68.9772 82 74.5C82 80.0228 86.4772 84.5 92 84.5Z" stroke="black" stroke-width="2" stroke-linecap="round" stroke-linejoin="round"/>
<path d="M92 80.5C95.3137 80.5 98 77.8137 98 74.5C98 71.1863 95.3137 68.5 92 68.5C88.6863 68.5 86 71.1863 86 74.5C86 77.8137 88.6863 80.5 92 80.5Z" stroke="black" stroke-width="2" stroke-linecap="round" stroke-linejoin="round"/>
<path d="M92 76.5C93.1046 76.5 94 75.6046 94 74.5C94 73.3954 93.1046 72.5 92 72.5C90.8954 72.5 90 73.3954 90 74.5C90 75.6046 90.8954 76.5 92 76.5Z" stroke="black" stroke-width="2" stroke-linecap="round" stroke-linejoin="round"/>
<path d="M136.873 57H135.602L134.562 54.252H130.406L129.429 57H128.15L131.91 47.1973H133.1L136.873 57ZM134.187 53.2197L132.648 49.043C132.598 48.9062 132.548 48.6875 132.498 48.3867H132.471C132.425 48.6647 132.373 48.8835 132.313 49.043L130.789 53.2197H134.187ZM143.675 50L140.886 57H139.785L137.133 50H138.363L140.141 55.0859C140.273 55.4596 140.355 55.7855 140.387 56.0635H140.414C140.46 55.7126 140.533 55.3958 140.633 55.1133L142.492 50H143.675ZM150.859 56.4395C150.859 59.0098 149.629 60.2949 147.168 60.2949C146.302 60.2949 145.546 60.1309 144.898 59.8027V58.6816C145.687 59.1191 146.439 59.3379 147.154 59.3379C148.877 59.3379 149.738 58.4219 149.738 56.5898V55.8242H149.711C149.178 56.7174 148.376 57.1641 147.305 57.1641C146.434 57.1641 145.732 56.8542 145.199 56.2344C144.671 55.61 144.406 54.7738 144.406 53.7256C144.406 52.5361 144.691 51.5905 145.261 50.8887C145.835 50.1868 146.619 49.8359 147.612 49.8359C148.556 49.8359 149.255 50.2142 149.711 50.9707H149.738V50H150.859V56.4395ZM149.738 53.835V52.8027C149.738 52.2467 149.549 51.7705 149.171 51.374C148.797 50.9775 148.33 50.7793 147.77 50.7793C147.077 50.7793 146.535 51.0322 146.143 51.5381C145.751 52.0394 145.555 52.7435 145.555 53.6504C145.555 54.4297 145.742 55.054 146.115 55.5234C146.493 55.9883 146.993 56.2207 147.612 56.2207C148.241 56.2207 148.752 55.9974 149.144 55.5508C149.54 55.1042 149.738 54.5322 149.738 53.835ZM163.793 56.5898C163.068 56.9727 162.166 57.1641 161.086 57.1641C159.691 57.1641 158.575 56.7152 157.736 55.8174C156.898 54.9196 156.479 53.7415 156.479 52.2832C156.479 50.7155 156.95 49.4486 157.894 48.4824C158.837 47.5163 160.033 47.0332 161.482 47.0332C162.412 47.0332 163.182 47.1676 163.793 47.4365V48.6602C163.091 48.2682 162.316 48.0723 161.469 48.0723C160.343 48.0723 159.429 48.4482 158.728 49.2002C158.03 49.9521 157.682 50.957 157.682 52.2148C157.682 53.4089 158.007 54.3613 158.659 55.0723C159.315 55.7786 160.174 56.1318 161.236 56.1318C162.221 56.1318 163.073 55.9131 163.793 55.4756V56.5898ZM166.938 53.2949V57H165.789V47.1973H168.482C169.531 47.1973 170.342 47.4525 170.916 47.9629C171.495 48.4733 171.784 49.1934 171.784 50.123C171.784 51.0527 171.463 51.8138 170.82 52.4062C170.182 52.9987 169.319 53.2949 168.229 53.2949H166.938ZM166.938 48.2363V52.2559H168.141C168.934 52.2559 169.537 52.0758 169.952 51.7158C170.371 51.3512 170.581 50.8385 170.581 50.1777C170.581 48.8835 169.815 48.2363 168.284 48.2363H166.938ZM181.225 57H179.953L178.914 54.252H174.758L173.78 57H172.502L176.262 47.1973H177.451L181.225 57ZM178.538 53.2197L177 49.043C176.95 48.9062 176.9 48.6875 176.85 48.3867H176.822C176.777 48.6647 176.724 48.8835 176.665 49.043L175.141 53.2197H178.538ZM193.188 56.5898C192.463 56.9727 191.561 57.1641 190.48 57.1641C189.086 57.1641 187.969 56.7152 187.131 55.8174C186.292 54.9196 185.873 53.7415 185.873 52.2832C185.873 50.7155 186.345 49.4486 187.288 48.4824C188.231 47.5163 189.428 47.0332 190.877 47.0332C191.807 47.0332 192.577 47.1676 193.188 47.4365V48.6602C192.486 48.2682 191.711 48.0723 190.863 48.0723C189.738 48.0723 188.824 48.4482 188.122 49.2002C187.425 49.9521 187.076 50.957 187.076 52.2148C187.076 53.4089 187.402 54.3613 188.054 55.0723C188.71 55.7786 189.569 56.1318 190.631 56.1318C191.615 56.1318 192.467 55.9131 193.188 55.4756V56.5898ZM200.693 57H199.572V55.8926H199.545C199.08 56.7402 198.36 57.1641 197.385 57.1641C195.717 57.1641 194.883 56.1706 194.883 54.1836V50H195.997V54.0059C195.997 55.4824 196.562 56.2207 197.692 56.2207C198.239 56.2207 198.688 56.0202 199.039 55.6191C199.395 55.2135 199.572 54.6849 199.572 54.0332V50H200.693V57ZM206.21 56.9316C205.946 57.0775 205.597 57.1504 205.164 57.1504C203.938 57.1504 203.325 56.4668 203.325 55.0996V50.957H202.122V50H203.325V48.291L204.446 47.9287V50H206.21V50.957H204.446V54.9014C204.446 55.3708 204.526 55.7057 204.686 55.9062C204.845 56.1068 205.109 56.207 205.479 56.207C205.761 56.207 206.005 56.1296 206.21 55.9746V56.9316Z" fill="white" fill-opacity="0.8"/>
<path d="M136.512 93.392C135.037 93.392 133.731 93.1307 132.592 92.608C131.453 92.0853 130.557 91.3387 129.904 90.368C129.269 89.3787 128.952 88.212 128.952 86.868V86.364H132.536V86.756C132.536 87.8013 132.9 88.6413 133.628 89.276C134.356 89.892 135.317 90.2 136.512 90.2C137.725 90.2 138.659 89.9107 139.312 89.332C139.984 88.7533 140.32 88.0253 140.32 87.148V86.868C140.32 86.2707 140.171 85.7853 139.872 85.412C139.573 85.0387 139.172 84.768 138.668 84.6C138.164 84.4133 137.595 84.32 136.96 84.32H133.04V80.4L139.368 77.04V76.592H129.456V73.4H143.344V78.16L137.436 81.296V81.744H138.472C139.349 81.744 140.199 81.9213 141.02 82.276C141.86 82.6307 142.551 83.1813 143.092 83.928C143.633 84.656 143.904 85.608 143.904 86.784V87.12C143.904 88.3893 143.596 89.5 142.98 90.452C142.364 91.3853 141.496 92.1133 140.376 92.636C139.275 93.14 137.987 93.392 136.512 93.392ZM153.519 93.392C151.988 93.392 150.663 93.1213 149.543 92.58C148.442 92.0387 147.592 91.2733 146.995 90.284C146.398 89.2947 146.099 88.1467 146.099 86.84V86.56H149.739V86.812C149.739 87.7453 150.047 88.548 150.663 89.22C151.298 89.8733 152.231 90.2 153.463 90.2C154.695 90.2 155.638 89.8733 156.291 89.22C156.963 88.548 157.299 87.68 157.299 86.616V86.336C157.299 85.2907 156.963 84.46 156.291 83.844C155.638 83.228 154.816 82.92 153.827 82.92C153.286 82.92 152.838 82.9947 152.483 83.144C152.128 83.2933 151.839 83.48 151.615 83.704C151.391 83.928 151.204 84.152 151.055 84.376H146.715V73.4H160.099V76.648H150.299V81.436H150.803C150.99 81.1933 151.242 80.96 151.559 80.736C151.876 80.512 152.287 80.3253 152.791 80.176C153.295 80.0267 153.892 79.952 154.583 79.952C155.74 79.952 156.795 80.1947 157.747 80.68C158.699 81.1653 159.455 81.884 160.015 82.836C160.594 83.7693 160.883 84.9267 160.883 86.308V86.644C160.883 88.0253 160.584 89.22 159.987 90.228C159.408 91.236 158.568 92.02 157.467 92.58C156.366 93.1213 155.05 93.392 153.519 93.392ZM165.968 93.364L163.84 91.656L178.904 73.036L181.032 74.744L165.968 93.364ZM177.784 93.28C176.366 93.28 175.255 92.9067 174.452 92.16C173.65 91.3947 173.248 90.3587 173.248 89.052V88.856C173.248 87.5307 173.65 86.4947 174.452 85.748C175.255 84.9827 176.366 84.6 177.784 84.6C179.166 84.6 180.267 84.9827 181.088 85.748C181.91 86.4947 182.32 87.5307 182.32 88.856V89.052C182.32 90.3587 181.919 91.3947 181.116 92.16C180.314 92.9067 179.203 93.28 177.784 93.28ZM177.784 90.984C178.326 90.984 178.746 90.816 179.044 90.48C179.362 90.144 179.52 89.7053 179.52 89.164V88.716C179.52 88.1747 179.362 87.736 179.044 87.4C178.746 87.064 178.326 86.896 177.784 86.896C177.243 86.896 176.814 87.064 176.496 87.4C176.198 87.736 176.048 88.1747 176.048 88.716V89.164C176.048 89.7053 176.198 90.144 176.496 90.48C176.814 90.816 177.243 90.984 177.784 90.984ZM167.088 81.8C165.67 81.8 164.559 81.4267 163.756 80.68C162.954 79.9147 162.552 78.8787 162.552 77.572V77.376C162.552 76.0507 162.954 75.0147 163.756 74.268C164.559 73.5027 165.67 73.12 167.088 73.12C168.47 73.12 169.571 73.5027 170.392 74.268C171.214 75.0147 171.624 76.0507 171.624 77.376V77.572C171.624 78.8787 171.223 79.9147 170.42 80.68C169.618 81.4267 168.507 81.8 167.088 81.8ZM167.088 79.504C167.63 79.504 168.05 79.336 168.348 79C168.666 78.664 168.824 78.2253 168.824 77.684V77.236C168.824 76.6947 168.666 76.256 168.348 75.92C168.05 75.584 167.63 75.416 167.088 75.416C166.547 75.416 166.118 75.584 165.8 75.92C165.502 76.256 165.352 76.6947 165.352 77.236V77.684C165.352 78.2253 165.502 78.664 165.8 79C166.118 79.336 166.547 79.504 167.088 79.504Z" fill="#DBFF00"/>
<path d="M69.12 135V125.2H73.082C73.6887 125.2 74.2207 125.307 74.678 125.522C75.1447 125.727 75.5087 126.026 75.77 126.418C76.0313 126.801 76.162 127.263 76.162 127.804V127.958C76.162 128.602 76.008 129.111 75.7 129.484C75.392 129.857 75.028 130.109 74.608 130.24V130.436C74.944 130.445 75.2193 130.557 75.434 130.772C75.658 130.977 75.77 131.29 75.77 131.71V135H74.608V131.85C74.608 131.57 74.5287 131.355 74.37 131.206C74.2207 131.057 73.992 130.982 73.684 130.982H70.296V135H69.12ZM70.296 129.918H72.97C73.614 129.918 74.1087 129.764 74.454 129.456C74.8087 129.139 74.986 128.7 74.986 128.14V128.042C74.986 127.482 74.8133 127.048 74.468 126.74C74.1227 126.423 73.6233 126.264 72.97 126.264H70.296V129.918ZM81.13 135.196C80.4394 135.196 79.8327 135.051 79.31 134.762C78.7874 134.463 78.3814 134.048 78.092 133.516C77.8027 132.984 77.658 132.368 77.658 131.668V131.5C77.658 130.791 77.8027 130.17 78.092 129.638C78.3814 129.106 78.7827 128.695 79.296 128.406C79.8094 128.107 80.3974 127.958 81.06 127.958C81.704 127.958 82.2734 128.098 82.768 128.378C83.2627 128.649 83.65 129.041 83.93 129.554C84.21 130.067 84.35 130.669 84.35 131.36V131.864H78.764C78.792 132.601 79.03 133.18 79.478 133.6C79.926 134.011 80.486 134.216 81.158 134.216C81.746 134.216 82.1987 134.081 82.516 133.81C82.8334 133.539 83.076 133.217 83.244 132.844L84.196 133.306C84.056 133.595 83.86 133.885 83.608 134.174C83.3654 134.463 83.0434 134.706 82.642 134.902C82.25 135.098 81.746 135.196 81.13 135.196ZM78.778 130.954H83.23C83.1927 130.319 82.9734 129.825 82.572 129.47C82.18 129.115 81.676 128.938 81.06 128.938C80.4347 128.938 79.9214 129.115 79.52 129.47C79.1187 129.825 78.8714 130.319 78.778 130.954ZM88.3792 135.196C87.9032 135.196 87.4692 135.112 87.0772 134.944C86.6852 134.776 86.3772 134.533 86.1532 134.216C85.9292 133.899 85.8172 133.511 85.8172 133.054C85.8172 132.587 85.9292 132.205 86.1532 131.906C86.3772 131.598 86.6852 131.369 87.0772 131.22C87.4692 131.061 87.9079 130.982 88.3932 130.982H90.7032V130.478C90.7032 129.993 90.5585 129.61 90.2692 129.33C89.9892 129.05 89.5692 128.91 89.0092 128.91C88.4585 128.91 88.0292 129.045 87.7212 129.316C87.4132 129.577 87.2032 129.932 87.0912 130.38L86.0552 130.044C86.1672 129.661 86.3445 129.316 86.5872 129.008C86.8299 128.691 87.1519 128.439 87.5532 128.252C87.9639 128.056 88.4539 127.958 89.0232 127.958C89.9005 127.958 90.5819 128.187 91.0672 128.644C91.5525 129.092 91.7952 129.727 91.7952 130.548V133.642C91.7952 133.922 91.9259 134.062 92.1872 134.062H92.8172V135H91.8512C91.5432 135 91.2959 134.916 91.1092 134.748C90.9225 134.571 90.8292 134.337 90.8292 134.048V133.978H90.6612C90.5585 134.155 90.4185 134.342 90.2412 134.538C90.0732 134.725 89.8399 134.879 89.5412 135C89.2425 135.131 88.8552 135.196 88.3792 135.196ZM88.5052 134.244C89.1585 134.244 89.6859 134.053 90.0872 133.67C90.4979 133.278 90.7032 132.732 90.7032 132.032V131.878H88.4352C87.9965 131.878 87.6325 131.976 87.3432 132.172C87.0632 132.359 86.9232 132.643 86.9232 133.026C86.9232 133.409 87.0679 133.707 87.3572 133.922C87.6559 134.137 88.0385 134.244 88.5052 134.244ZM94.3319 135V125.2H95.4379V135H94.3319ZM104.509 135.196C103.847 135.196 103.249 135.056 102.717 134.776C102.195 134.487 101.779 134.076 101.471 133.544C101.173 133.012 101.023 132.382 101.023 131.654V131.5C101.023 130.763 101.173 130.133 101.471 129.61C101.779 129.078 102.195 128.672 102.717 128.392C103.249 128.103 103.847 127.958 104.509 127.958C105.163 127.958 105.718 128.079 106.175 128.322C106.642 128.565 107.006 128.887 107.267 129.288C107.538 129.689 107.711 130.119 107.785 130.576L106.707 130.8C106.661 130.464 106.549 130.156 106.371 129.876C106.203 129.596 105.965 129.372 105.657 129.204C105.349 129.036 104.971 128.952 104.523 128.952C104.066 128.952 103.655 129.055 103.291 129.26C102.937 129.465 102.652 129.759 102.437 130.142C102.232 130.525 102.129 130.982 102.129 131.514V131.64C102.129 132.172 102.232 132.629 102.437 133.012C102.652 133.395 102.937 133.689 103.291 133.894C103.655 134.099 104.066 134.202 104.523 134.202C105.205 134.202 105.723 134.025 106.077 133.67C106.441 133.315 106.665 132.877 106.749 132.354L107.841 132.592C107.739 133.04 107.552 133.465 107.281 133.866C107.011 134.267 106.642 134.589 106.175 134.832C105.718 135.075 105.163 135.196 104.509 135.196ZM112.89 135.196C112.2 135.196 111.588 135.051 111.056 134.762C110.534 134.473 110.123 134.067 109.824 133.544C109.535 133.012 109.39 132.387 109.39 131.668V131.486C109.39 130.777 109.535 130.156 109.824 129.624C110.123 129.092 110.534 128.681 111.056 128.392C111.588 128.103 112.2 127.958 112.89 127.958C113.581 127.958 114.188 128.103 114.71 128.392C115.242 128.681 115.653 129.092 115.942 129.624C116.241 130.156 116.39 130.777 116.39 131.486V131.668C116.39 132.387 116.241 133.012 115.942 133.544C115.653 134.067 115.242 134.473 114.71 134.762C114.188 135.051 113.581 135.196 112.89 135.196ZM112.89 134.202C113.618 134.202 114.197 133.973 114.626 133.516C115.065 133.049 115.284 132.424 115.284 131.64V131.514C115.284 130.73 115.065 130.109 114.626 129.652C114.197 129.185 113.618 128.952 112.89 128.952C112.172 128.952 111.593 129.185 111.154 129.652C110.716 130.109 110.496 130.73 110.496 131.514V131.64C110.496 132.424 110.716 133.049 111.154 133.516C111.593 133.973 112.172 134.202 112.89 134.202ZM121.139 135.196C120.289 135.196 119.571 135 118.983 134.608C118.404 134.216 118.054 133.595 117.933 132.746L118.983 132.508C119.057 132.956 119.197 133.311 119.403 133.572C119.608 133.824 119.86 134.006 120.159 134.118C120.467 134.221 120.793 134.272 121.139 134.272C121.652 134.272 122.058 134.169 122.357 133.964C122.655 133.759 122.805 133.483 122.805 133.138C122.805 132.783 122.66 132.536 122.371 132.396C122.091 132.247 121.703 132.125 121.209 132.032L120.635 131.934C120.196 131.859 119.795 131.743 119.431 131.584C119.067 131.425 118.777 131.211 118.563 130.94C118.348 130.669 118.241 130.329 118.241 129.918C118.241 129.302 118.479 128.821 118.955 128.476C119.431 128.131 120.061 127.958 120.845 127.958C121.619 127.958 122.245 128.135 122.721 128.49C123.206 128.835 123.519 129.325 123.659 129.96L122.623 130.226C122.539 129.731 122.338 129.386 122.021 129.19C121.703 128.985 121.311 128.882 120.845 128.882C120.378 128.882 120.009 128.971 119.739 129.148C119.468 129.316 119.333 129.568 119.333 129.904C119.333 130.231 119.459 130.473 119.711 130.632C119.972 130.781 120.317 130.893 120.747 130.968L121.321 131.066C121.806 131.15 122.24 131.267 122.623 131.416C123.015 131.556 123.323 131.761 123.547 132.032C123.78 132.303 123.897 132.657 123.897 133.096C123.897 133.768 123.645 134.286 123.141 134.65C122.646 135.014 121.979 135.196 121.139 135.196ZM128.133 135C127.741 135 127.438 134.893 127.223 134.678C127.018 134.463 126.915 134.169 126.915 133.796V129.12H124.857V128.154H126.915V125.718H128.021V128.154H130.261V129.12H128.021V133.628C128.021 133.908 128.157 134.048 128.427 134.048H129.953V135H128.133ZM138.406 135.196C137.557 135.196 136.838 135 136.25 134.608C135.672 134.216 135.322 133.595 135.2 132.746L136.25 132.508C136.325 132.956 136.465 133.311 136.67 133.572C136.876 133.824 137.128 134.006 137.426 134.118C137.734 134.221 138.061 134.272 138.406 134.272C138.92 134.272 139.326 134.169 139.624 133.964C139.923 133.759 140.072 133.483 140.072 133.138C140.072 132.783 139.928 132.536 139.638 132.396C139.358 132.247 138.971 132.125 138.476 132.032L137.902 131.934C137.464 131.859 137.062 131.743 136.698 131.584C136.334 131.425 136.045 131.211 135.83 130.94C135.616 130.669 135.508 130.329 135.508 129.918C135.508 129.302 135.746 128.821 136.222 128.476C136.698 128.131 137.328 127.958 138.112 127.958C138.887 127.958 139.512 128.135 139.988 128.49C140.474 128.835 140.786 129.325 140.926 129.96L139.89 130.226C139.806 129.731 139.606 129.386 139.288 129.19C138.971 128.985 138.579 128.882 138.112 128.882C137.646 128.882 137.277 128.971 137.006 129.148C136.736 129.316 136.6 129.568 136.6 129.904C136.6 130.231 136.726 130.473 136.978 130.632C137.24 130.781 137.585 130.893 138.014 130.968L138.588 131.066C139.074 131.15 139.508 131.267 139.89 131.416C140.282 131.556 140.59 131.761 140.814 132.032C141.048 132.303 141.164 132.657 141.164 133.096C141.164 133.768 140.912 134.286 140.408 134.65C139.914 135.014 139.246 135.196 138.406 135.196ZM145.076 135.196C144.6 135.196 144.166 135.112 143.774 134.944C143.382 134.776 143.074 134.533 142.85 134.216C142.626 133.899 142.514 133.511 142.514 133.054C142.514 132.587 142.626 132.205 142.85 131.906C143.074 131.598 143.382 131.369 143.774 131.22C144.166 131.061 144.605 130.982 145.09 130.982H147.4V130.478C147.4 129.993 147.256 129.61 146.966 129.33C146.686 129.05 146.266 128.91 145.706 128.91C145.156 128.91 144.726 129.045 144.418 129.316C144.11 129.577 143.9 129.932 143.788 130.38L142.752 130.044C142.864 129.661 143.042 129.316 143.284 129.008C143.527 128.691 143.849 128.439 144.25 128.252C144.661 128.056 145.151 127.958 145.72 127.958C146.598 127.958 147.279 128.187 147.764 128.644C148.25 129.092 148.492 129.727 148.492 130.548V133.642C148.492 133.922 148.623 134.062 148.884 134.062H149.514V135H148.548C148.24 135 147.993 134.916 147.806 134.748C147.62 134.571 147.526 134.337 147.526 134.048V133.978H147.358C147.256 134.155 147.116 134.342 146.938 134.538C146.77 134.725 146.537 134.879 146.238 135C145.94 135.131 145.552 135.196 145.076 135.196ZM145.202 134.244C145.856 134.244 146.383 134.053 146.784 133.67C147.195 133.278 147.4 132.732 147.4 132.032V131.878H145.132C144.694 131.878 144.33 131.976 144.04 132.172C143.76 132.359 143.62 132.643 143.62 133.026C143.62 133.409 143.765 133.707 144.054 133.922C144.353 134.137 144.736 134.244 145.202 134.244ZM152.382 135L149.932 128.154H151.108L153.166 134.174H153.362L155.42 128.154H156.596L154.146 135H152.382ZM158.193 135V128.154H159.299V135H158.193ZM158.753 127.09C158.511 127.09 158.305 127.011 158.137 126.852C157.979 126.693 157.899 126.493 157.899 126.25C157.899 125.998 157.979 125.793 158.137 125.634C158.305 125.475 158.511 125.396 158.753 125.396C158.996 125.396 159.197 125.475 159.355 125.634C159.514 125.793 159.593 125.998 159.593 126.25C159.593 126.493 159.514 126.693 159.355 126.852C159.197 127.011 158.996 127.09 158.753 127.09ZM161.625 135V128.154H162.703V129.316H162.899C163.048 128.989 163.3 128.695 163.655 128.434C164.019 128.163 164.551 128.028 165.251 128.028C165.764 128.028 166.222 128.135 166.623 128.35C167.034 128.565 167.36 128.882 167.603 129.302C167.846 129.722 167.967 130.24 167.967 130.856V135H166.861V130.94C166.861 130.259 166.688 129.764 166.343 129.456C166.007 129.148 165.55 128.994 164.971 128.994C164.308 128.994 163.767 129.209 163.347 129.638C162.936 130.067 162.731 130.707 162.731 131.556V135H161.625ZM169.875 131.612V131.416C169.875 130.697 170.019 130.081 170.309 129.568C170.598 129.055 170.99 128.658 171.485 128.378C171.979 128.098 172.521 127.958 173.109 127.958C173.827 127.958 174.378 128.098 174.761 128.378C175.153 128.649 175.442 128.952 175.629 129.288H175.825V128.154H176.875V136.596C176.875 136.969 176.772 137.263 176.567 137.478C176.361 137.693 176.063 137.8 175.671 137.8H171.023V136.82H175.377C175.657 136.82 175.797 136.68 175.797 136.4V133.796H175.601C175.489 134.001 175.33 134.202 175.125 134.398C174.919 134.594 174.653 134.757 174.327 134.888C174 135.009 173.594 135.07 173.109 135.07C172.521 135.07 171.979 134.93 171.485 134.65C170.99 134.37 170.598 133.973 170.309 133.46C170.019 132.937 169.875 132.321 169.875 131.612ZM173.403 134.09C174.112 134.09 174.686 133.866 175.125 133.418C175.573 132.97 175.797 132.354 175.797 131.57V131.458C175.797 130.665 175.573 130.049 175.125 129.61C174.686 129.162 174.112 128.938 173.403 128.938C172.703 128.938 172.124 129.162 171.667 129.61C171.219 130.049 170.995 130.665 170.995 131.458V131.57C170.995 132.354 171.219 132.97 171.667 133.418C172.124 133.866 172.703 134.09 173.403 134.09ZM181.951 135.196C181.102 135.196 180.383 135 179.795 134.608C179.217 134.216 178.867 133.595 178.745 132.746L179.795 132.508C179.87 132.956 180.01 133.311 180.215 133.572C180.421 133.824 180.673 134.006 180.971 134.118C181.279 134.221 181.606 134.272 181.951 134.272C182.465 134.272 182.871 134.169 183.169 133.964C183.468 133.759 183.617 133.483 183.617 133.138C183.617 132.783 183.473 132.536 183.183 132.396C182.903 132.247 182.516 132.125 182.021 132.032L181.447 131.934C181.009 131.859 180.607 131.743 180.243 131.584C179.879 131.425 179.59 131.211 179.375 130.94C179.161 130.669 179.053 130.329 179.053 129.918C179.053 129.302 179.291 128.821 179.767 128.476C180.243 128.131 180.873 127.958 181.657 127.958C182.432 127.958 183.057 128.135 183.533 128.49C184.019 128.835 184.331 129.325 184.471 129.96L183.435 130.226C183.351 129.731 183.151 129.386 182.833 129.19C182.516 128.985 182.124 128.882 181.657 128.882C181.191 128.882 180.822 128.971 180.551 129.148C180.281 129.316 180.145 129.568 180.145 129.904C180.145 130.231 180.271 130.473 180.523 130.632C180.785 130.781 181.13 130.893 181.559 130.968L182.133 131.066C182.619 131.15 183.053 131.267 183.435 131.416C183.827 131.556 184.135 131.761 184.359 132.032C184.593 132.303 184.709 132.657 184.709 133.096C184.709 133.768 184.457 134.286 183.953 134.65C183.459 135.014 182.791 135.196 181.951 135.196ZM191.516 135V129.12H189.416V128.154H191.516V126.404C191.516 126.031 191.618 125.737 191.824 125.522C192.038 125.307 192.342 125.2 192.734 125.2H194.456V126.152H193.042C192.762 126.152 192.622 126.292 192.622 126.572V128.154H194.778V129.12H192.622V135H191.516ZM199.187 135.196C198.497 135.196 197.885 135.051 197.353 134.762C196.831 134.473 196.42 134.067 196.121 133.544C195.832 133.012 195.687 132.387 195.687 131.668V131.486C195.687 130.777 195.832 130.156 196.121 129.624C196.42 129.092 196.831 128.681 197.353 128.392C197.885 128.103 198.497 127.958 199.187 127.958C199.878 127.958 200.485 128.103 201.007 128.392C201.539 128.681 201.95 129.092 202.239 129.624C202.538 130.156 202.687 130.777 202.687 131.486V131.668C202.687 132.387 202.538 133.012 202.239 133.544C201.95 134.067 201.539 134.473 201.007 134.762C200.485 135.051 199.878 135.196 199.187 135.196ZM199.187 134.202C199.915 134.202 200.494 133.973 200.923 133.516C201.362 133.049 201.581 132.424 201.581 131.64V131.514C201.581 130.73 201.362 130.109 200.923 129.652C200.494 129.185 199.915 128.952 199.187 128.952C198.469 128.952 197.89 129.185 197.451 129.652C197.013 130.109 196.793 130.73 196.793 131.514V131.64C196.793 132.424 197.013 133.049 197.451 133.516C197.89 133.973 198.469 134.202 199.187 134.202ZM204.678 135V128.154H205.756V128.994H205.952C206.073 128.695 206.26 128.476 206.512 128.336C206.764 128.196 207.095 128.126 207.506 128.126H208.318V129.134H207.436C206.941 129.134 206.54 129.274 206.232 129.554C205.933 129.825 205.784 130.249 205.784 130.828V135H204.678ZM216.701 135.196C216.038 135.196 215.441 135.056 214.909 134.776C214.386 134.487 213.971 134.076 213.663 133.544C213.364 133.012 213.215 132.382 213.215 131.654V131.5C213.215 130.763 213.364 130.133 213.663 129.61C213.971 129.078 214.386 128.672 214.909 128.392C215.441 128.103 216.038 127.958 216.701 127.958C217.354 127.958 217.909 128.079 218.367 128.322C218.833 128.565 219.197 128.887 219.459 129.288C219.729 129.689 219.902 130.119 219.977 130.576L218.899 130.8C218.852 130.464 218.74 130.156 218.563 129.876C218.395 129.596 218.157 129.372 217.849 129.204C217.541 129.036 217.163 128.952 216.715 128.952C216.257 128.952 215.847 129.055 215.483 129.26C215.128 129.465 214.843 129.759 214.629 130.142C214.423 130.525 214.321 130.982 214.321 131.514V131.64C214.321 132.172 214.423 132.629 214.629 133.012C214.843 133.395 215.128 133.689 215.483 133.894C215.847 134.099 216.257 134.202 216.715 134.202C217.396 134.202 217.914 134.025 218.269 133.67C218.633 133.315 218.857 132.877 218.941 132.354L220.033 132.592C219.93 133.04 219.743 133.465 219.473 133.866C219.202 134.267 218.833 134.589 218.367 134.832C217.909 135.075 217.354 135.196 216.701 135.196ZM221.918 135V125.2H223.024V135H221.918ZM225.35 135V128.154H226.456V135H225.35ZM225.91 127.09C225.667 127.09 225.462 127.011 225.294 126.852C225.135 126.693 225.056 126.493 225.056 126.25C225.056 125.998 225.135 125.793 225.294 125.634C225.462 125.475 225.667 125.396 225.91 125.396C226.152 125.396 226.353 125.475 226.512 125.634C226.67 125.793 226.75 125.998 226.75 126.25C226.75 126.493 226.67 126.693 226.512 126.852C226.353 127.011 226.152 127.09 225.91 127.09ZM231.917 135.196C231.226 135.196 230.62 135.051 230.097 134.762C229.574 134.463 229.168 134.048 228.879 133.516C228.59 132.984 228.445 132.368 228.445 131.668V131.5C228.445 130.791 228.59 130.17 228.879 129.638C229.168 129.106 229.57 128.695 230.083 128.406C230.596 128.107 231.184 127.958 231.847 127.958C232.491 127.958 233.06 128.098 233.555 128.378C234.05 128.649 234.437 129.041 234.717 129.554C234.997 130.067 235.137 130.669 235.137 131.36V131.864H229.551C229.579 132.601 229.817 133.18 230.265 133.6C230.713 134.011 231.273 134.216 231.945 134.216C232.533 134.216 232.986 134.081 233.303 133.81C233.62 133.539 233.863 133.217 234.031 132.844L234.983 133.306C234.843 133.595 234.647 133.885 234.395 134.174C234.152 134.463 233.83 134.706 233.429 134.902C233.037 135.098 232.533 135.196 231.917 135.196ZM229.565 130.954H234.017C233.98 130.319 233.76 129.825 233.359 129.47C232.967 129.115 232.463 128.938 231.847 128.938C231.222 128.938 230.708 129.115 230.307 129.47C229.906 129.825 229.658 130.319 229.565 130.954ZM237.066 135V128.154H238.144V129.316H238.34C238.49 128.989 238.742 128.695 239.096 128.434C239.46 128.163 239.992 128.028 240.692 128.028C241.206 128.028 241.663 128.135 242.064 128.35C242.475 128.565 242.802 128.882 243.044 129.302C243.287 129.722 243.408 130.24 243.408 130.856V135H242.302V130.94C242.302 130.259 242.13 129.764 241.784 129.456C241.448 129.148 240.991 128.994 240.412 128.994C239.75 128.994 239.208 129.209 238.788 129.638C238.378 130.067 238.172 130.707 238.172 131.556V135H237.066ZM247.981 135C247.589 135 247.285 134.893 247.071 134.678C246.865 134.463 246.763 134.169 246.763 133.796V129.12H244.705V128.154H246.763V125.718H247.869V128.154H250.109V129.12H247.869V133.628C247.869 133.908 248.004 134.048 248.275 134.048H249.801V135H247.981ZM254.658 135.196C253.809 135.196 253.09 135 252.502 134.608C251.924 134.216 251.574 133.595 251.452 132.746L252.502 132.508C252.577 132.956 252.717 133.311 252.922 133.572C253.128 133.824 253.38 134.006 253.678 134.118C253.986 134.221 254.313 134.272 254.658 134.272C255.172 134.272 255.578 134.169 255.876 133.964C256.175 133.759 256.324 133.483 256.324 133.138C256.324 132.783 256.18 132.536 255.89 132.396C255.61 132.247 255.223 132.125 254.728 132.032L254.154 131.934C253.716 131.859 253.314 131.743 252.95 131.584C252.586 131.425 252.297 131.211 252.082 130.94C251.868 130.669 251.76 130.329 251.76 129.918C251.76 129.302 251.998 128.821 252.474 128.476C252.95 128.131 253.58 127.958 254.364 127.958C255.139 127.958 255.764 128.135 256.24 128.49C256.726 128.835 257.038 129.325 257.178 129.96L256.142 130.226C256.058 129.731 255.858 129.386 255.54 129.19C255.223 128.985 254.831 128.882 254.364 128.882C253.898 128.882 253.529 128.971 253.258 129.148C252.988 129.316 252.852 129.568 252.852 129.904C252.852 130.231 252.978 130.473 253.23 130.632C253.492 130.781 253.837 130.893 254.266 130.968L254.84 131.066C255.326 131.15 255.76 131.267 256.142 131.416C256.534 131.556 256.842 131.761 257.066 132.032C257.3 132.303 257.416 132.657 257.416 133.096C257.416 133.768 257.164 134.286 256.66 134.65C256.166 135.014 255.498 135.196 254.658 135.196Z" fill="white" fill-opacity="0.9"/>
</g>
<defs>
<filter id="filter0_d_1505_2892" x="0" y="0" width="336" height="236" filterUnits="userSpaceOnUse" color-interpolation-filters="sRGB">
<feFlood flood-opacity="0" result="BackgroundImageFix"/>
<feColorMatrix in="SourceAlpha" type="matrix" values="0 0 0 0 0 0 0 0 0 0 0 0 0 0 0 0 0 0 127 0" result="hardAlpha"/>
<feMorphology radius="12" operator="erode" in="SourceAlpha" result="effect1_dropShadow_1505_2892"/>
<feOffset dy="25"/>
<feGaussianBlur stdDeviation="25"/>
<feComposite in2="hardAlpha" operator="out"/>
<feColorMatrix type="matrix" values="0 0 0 0 0 0 0 0 0 0 0 0 0 0 0 0 0 0 0.25 0"/>
<feBlend mode="normal" in2="BackgroundImageFix" result="effect1_dropShadow_1505_2892"/>
<feBlend mode="normal" in="SourceGraphic" in2="effect1_dropShadow_1505_2892" result="shape"/>
</filter>
</defs>
</svg>
