<svg width="316" height="235" viewBox="0 0 316 235" fill="none" xmlns="http://www.w3.org/2000/svg">
<g filter="url(#filter0_d_1505_2901)">
<rect x="38" y="13" width="240" height="159" rx="24" fill="#DBFF00"/>
<rect x="39" y="14" width="238" height="157" rx="23" stroke="black" stroke-opacity="0.1" stroke-width="2"/>
<rect x="70" y="52.5" width="48" height="48" rx="24" fill="black"/>
<path d="M93.5268 66.7949C93.5706 66.7064 93.6383 66.6318 93.7223 66.5797C93.8062 66.5276 93.903 66.5 94.0018 66.5C94.1006 66.5 94.1974 66.5276 94.2813 66.5797C94.3653 66.6318 94.433 66.7064 94.4768 66.7949L96.7868 71.4739C96.939 71.7819 97.1636 72.0483 97.4414 72.2503C97.7192 72.4524 98.0419 72.584 98.3818 72.6339L103.548 73.3899C103.646 73.4041 103.738 73.4454 103.813 73.5091C103.889 73.5728 103.945 73.6564 103.976 73.7505C104.006 73.8446 104.01 73.9453 103.986 74.0413C103.963 74.1374 103.913 74.2248 103.842 74.2939L100.106 77.9319C99.8594 78.172 99.6751 78.4684 99.5686 78.7955C99.4622 79.1227 99.4369 79.4708 99.4948 79.8099L100.377 84.9499C100.394 85.0477 100.384 85.1485 100.346 85.2406C100.309 85.3327 100.247 85.4125 100.166 85.4709C100.086 85.5293 99.9908 85.5639 99.8917 85.5708C99.7926 85.5777 99.6935 85.5566 99.6058 85.5099L94.9878 83.0819C94.6835 82.9221 94.345 82.8386 94.0013 82.8386C93.6576 82.8386 93.3191 82.9221 93.0148 83.0819L88.3978 85.5099C88.3101 85.5563 88.2112 85.5772 88.1123 85.5701C88.0133 85.5631 87.9183 85.5285 87.8381 85.4701C87.7579 85.4118 87.6956 85.3321 87.6585 85.2401C87.6213 85.1482 87.6107 85.0476 87.6278 84.9499L88.5088 79.8109C88.567 79.4716 88.5418 79.1233 88.4353 78.7959C88.3289 78.4686 88.1444 78.172 87.8978 77.9319L84.1618 74.2949C84.0904 74.2259 84.0398 74.1383 84.0158 74.042C83.9917 73.9456 83.9952 73.8445 84.0259 73.7501C84.0565 73.6557 84.1131 73.5717 84.1891 73.5079C84.2651 73.444 84.3575 73.4028 84.4558 73.3889L89.6208 72.6339C89.9611 72.5844 90.2842 72.453 90.5624 72.2509C90.8406 72.0488 91.0655 71.7822 91.2178 71.4739L93.5268 66.7949Z" stroke="#DBFF00" stroke-width="2" stroke-linecap="round" stroke-linejoin="round"/>
<path d="M134.662 58.196C133.495 58.196 132.567 57.86 131.876 57.188C131.185 56.5067 130.84 55.5173 130.84 54.22V51.98C130.84 50.6827 131.185 49.698 131.876 49.026C132.567 48.3447 133.495 48.004 134.662 48.004C135.819 48.004 136.706 48.326 137.322 48.97C137.947 49.614 138.26 50.496 138.26 51.616V51.686H137.098V51.574C137.098 50.8367 136.897 50.2347 136.496 49.768C136.104 49.292 135.493 49.054 134.662 49.054C133.831 49.054 133.183 49.3107 132.716 49.824C132.249 50.328 132.016 51.0373 132.016 51.952V54.248C132.016 55.1627 132.249 55.8767 132.716 56.39C133.183 56.894 133.831 57.146 134.662 57.146C135.493 57.146 136.104 56.9127 136.496 56.446C136.897 55.97 137.098 55.3633 137.098 54.626V54.402H138.26V54.584C138.26 55.704 137.947 56.586 137.322 57.23C136.706 57.874 135.819 58.196 134.662 58.196ZM140.144 58V48.2H141.25V58H140.144ZM146.194 58.126C145.699 58.126 145.242 58.0187 144.822 57.804C144.411 57.5893 144.085 57.272 143.842 56.852C143.609 56.4227 143.492 55.9047 143.492 55.298V51.154H144.598V55.214C144.598 55.8953 144.766 56.39 145.102 56.698C145.447 57.006 145.909 57.16 146.488 57.16C147.141 57.16 147.678 56.9453 148.098 56.516C148.518 56.0867 148.728 55.4473 148.728 54.598V51.154H149.834V58H148.756V56.838H148.56C148.411 57.1647 148.154 57.4633 147.79 57.734C147.426 57.9953 146.894 58.126 146.194 58.126ZM154.668 58C154.276 58 153.973 57.8927 153.758 57.678C153.553 57.4633 153.45 57.1693 153.45 56.796V52.12H151.392V51.154H153.45V48.718H154.556V51.154H156.796V52.12H154.556V56.628C154.556 56.908 154.692 57.048 154.962 57.048H156.488V58H154.668ZM161.492 58.196C160.829 58.196 160.232 58.056 159.7 57.776C159.177 57.4867 158.762 57.076 158.454 56.544C158.155 56.012 158.006 55.382 158.006 54.654V54.5C158.006 53.7627 158.155 53.1327 158.454 52.61C158.762 52.078 159.177 51.672 159.7 51.392C160.232 51.1027 160.829 50.958 161.492 50.958C162.145 50.958 162.7 51.0793 163.158 51.322C163.624 51.5647 163.988 51.8867 164.25 52.288C164.52 52.6893 164.693 53.1187 164.768 53.576L163.69 53.8C163.643 53.464 163.531 53.156 163.354 52.876C163.186 52.596 162.948 52.372 162.64 52.204C162.332 52.036 161.954 51.952 161.506 51.952C161.048 51.952 160.638 52.0547 160.274 52.26C159.919 52.4653 159.634 52.7593 159.42 53.142C159.214 53.5247 159.112 53.982 159.112 54.514V54.64C159.112 55.172 159.214 55.6293 159.42 56.012C159.634 56.3947 159.919 56.6887 160.274 56.894C160.638 57.0993 161.048 57.202 161.506 57.202C162.187 57.202 162.705 57.0247 163.06 56.67C163.424 56.3153 163.648 55.8767 163.732 55.354L164.824 55.592C164.721 56.04 164.534 56.4647 164.264 56.866C163.993 57.2673 163.624 57.5893 163.158 57.832C162.7 58.0747 162.145 58.196 161.492 58.196ZM166.709 58V48.2H167.815V52.246H168.011C168.104 52.0407 168.244 51.8493 168.431 51.672C168.627 51.4853 168.874 51.3313 169.173 51.21C169.481 51.0887 169.868 51.028 170.335 51.028C170.848 51.028 171.306 51.14 171.707 51.364C172.118 51.5787 172.444 51.896 172.687 52.316C172.93 52.7267 173.051 53.24 173.051 53.856V58H171.945V53.94C171.945 53.2587 171.772 52.764 171.427 52.456C171.091 52.148 170.634 51.994 170.055 51.994C169.392 51.994 168.851 52.2087 168.431 52.638C168.02 53.0673 167.815 53.7067 167.815 54.556V58H166.709ZM178.849 58V48.2H182.811C183.417 48.2 183.949 48.3073 184.407 48.522C184.873 48.7273 185.237 49.026 185.499 49.418C185.76 49.8007 185.891 50.2627 185.891 50.804V50.958C185.891 51.602 185.737 52.1107 185.429 52.484C185.121 52.8573 184.757 53.1093 184.337 53.24V53.436C184.673 53.4453 184.948 53.5573 185.163 53.772C185.387 53.9773 185.499 54.29 185.499 54.71V58H184.337V54.85C184.337 54.57 184.257 54.3553 184.099 54.206C183.949 54.0567 183.721 53.982 183.413 53.982H180.025V58H178.849ZM180.025 52.918H182.699C183.343 52.918 183.837 52.764 184.183 52.456C184.537 52.1387 184.715 51.7 184.715 51.14V51.042C184.715 50.482 184.542 50.048 184.197 49.74C183.851 49.4227 183.352 49.264 182.699 49.264H180.025V52.918ZM189.823 58.196C189.347 58.196 188.913 58.112 188.521 57.944C188.129 57.776 187.821 57.5333 187.597 57.216C187.373 56.8987 187.261 56.5113 187.261 56.054C187.261 55.5873 187.373 55.2047 187.597 54.906C187.821 54.598 188.129 54.3693 188.521 54.22C188.913 54.0613 189.351 53.982 189.837 53.982H192.147V53.478C192.147 52.9927 192.002 52.61 191.713 52.33C191.433 52.05 191.013 51.91 190.453 51.91C189.902 51.91 189.473 52.0453 189.165 52.316C188.857 52.5773 188.647 52.932 188.535 53.38L187.499 53.044C187.611 52.6613 187.788 52.316 188.031 52.008C188.273 51.6907 188.595 51.4387 188.997 51.252C189.407 51.056 189.897 50.958 190.467 50.958C191.344 50.958 192.025 51.1867 192.511 51.644C192.996 52.092 193.239 52.7267 193.239 53.548V56.642C193.239 56.922 193.369 57.062 193.631 57.062H194.261V58H193.295C192.987 58 192.739 57.916 192.553 57.748C192.366 57.5707 192.273 57.3373 192.273 57.048V56.978H192.105C192.002 57.1553 191.862 57.342 191.685 57.538C191.517 57.7247 191.283 57.8787 190.985 58C190.686 58.1307 190.299 58.196 189.823 58.196ZM189.949 57.244C190.602 57.244 191.129 57.0527 191.531 56.67C191.941 56.278 192.147 55.732 192.147 55.032V54.878H189.879C189.44 54.878 189.076 54.976 188.787 55.172C188.507 55.3587 188.367 55.6433 188.367 56.026C188.367 56.4087 188.511 56.7073 188.801 56.922C189.099 57.1367 189.482 57.244 189.949 57.244ZM197.844 58C197.452 58 197.149 57.8927 196.934 57.678C196.729 57.4633 196.626 57.1693 196.626 56.796V52.12H194.568V51.154H196.626V48.718H197.732V51.154H199.972V52.12H197.732V56.628C197.732 56.908 197.867 57.048 198.138 57.048H199.664V58H197.844ZM201.764 58V51.154H202.87V58H201.764ZM202.324 50.09C202.081 50.09 201.876 50.0107 201.708 49.852C201.549 49.6933 201.47 49.4927 201.47 49.25C201.47 48.998 201.549 48.7927 201.708 48.634C201.876 48.4753 202.081 48.396 202.324 48.396C202.566 48.396 202.767 48.4753 202.926 48.634C203.084 48.7927 203.164 48.998 203.164 49.25C203.164 49.4927 203.084 49.6933 202.926 49.852C202.767 50.0107 202.566 50.09 202.324 50.09ZM205.195 58V51.154H206.273V52.316H206.469C206.619 51.9893 206.871 51.6953 207.225 51.434C207.589 51.1633 208.121 51.028 208.821 51.028C209.335 51.028 209.792 51.1353 210.193 51.35C210.604 51.5647 210.931 51.882 211.173 52.302C211.416 52.722 211.537 53.24 211.537 53.856V58H210.431V53.94C210.431 53.2587 210.259 52.764 209.913 52.456C209.577 52.148 209.12 51.994 208.541 51.994C207.879 51.994 207.337 52.2087 206.917 52.638C206.507 53.0673 206.301 53.7067 206.301 54.556V58H205.195ZM213.445 54.612V54.416C213.445 53.6973 213.59 53.0813 213.879 52.568C214.168 52.0547 214.56 51.658 215.055 51.378C215.55 51.098 216.091 50.958 216.679 50.958C217.398 50.958 217.948 51.098 218.331 51.378C218.723 51.6487 219.012 51.952 219.199 52.288H219.395V51.154H220.445V59.596C220.445 59.9693 220.342 60.2633 220.137 60.478C219.932 60.6927 219.633 60.8 219.241 60.8H214.593V59.82H218.947C219.227 59.82 219.367 59.68 219.367 59.4V56.796H219.171C219.059 57.0013 218.9 57.202 218.695 57.398C218.49 57.594 218.224 57.7573 217.897 57.888C217.57 58.0093 217.164 58.07 216.679 58.07C216.091 58.07 215.55 57.93 215.055 57.65C214.56 57.37 214.168 56.9733 213.879 56.46C213.59 55.9373 213.445 55.3213 213.445 54.612ZM216.973 57.09C217.682 57.09 218.256 56.866 218.695 56.418C219.143 55.97 219.367 55.354 219.367 54.57V54.458C219.367 53.6647 219.143 53.0487 218.695 52.61C218.256 52.162 217.682 51.938 216.973 51.938C216.273 51.938 215.694 52.162 215.237 52.61C214.789 53.0487 214.565 53.6647 214.565 54.458V54.57C214.565 55.354 214.789 55.97 215.237 56.418C215.694 56.866 216.273 57.09 216.973 57.09Z" fill="black" fill-opacity="0.7"/>
<path d="M140.36 95V91.024H130.728V86.88L137.504 75.4H143.944V87.832H147.192V91.024H143.944V95H140.36ZM134.144 87.832H140.36V77.696H139.856L134.144 87.384V87.832ZM151.973 95.392C151.226 95.392 150.591 95.1493 150.069 94.664C149.565 94.16 149.313 93.516 149.313 92.732C149.313 91.948 149.565 91.3133 150.069 90.828C150.591 90.324 151.226 90.072 151.973 90.072C152.738 90.072 153.373 90.324 153.877 90.828C154.381 91.3133 154.633 91.948 154.633 92.732C154.633 93.516 154.381 94.16 153.877 94.664C153.373 95.1493 152.738 95.392 151.973 95.392ZM164.486 95.392C163.03 95.392 161.761 95.1493 160.678 94.664C159.614 94.1787 158.783 93.4787 158.186 92.564C157.607 91.6493 157.318 90.5573 157.318 89.288H160.958C160.958 90.072 161.229 90.7533 161.77 91.332C162.33 91.9107 163.235 92.2 164.486 92.2C165.755 92.2 166.726 91.8733 167.398 91.22C168.07 90.548 168.406 89.6427 168.406 88.504V86.488H167.902C167.585 86.8613 167.099 87.216 166.446 87.552C165.811 87.888 164.859 88.056 163.59 88.056C162.47 88.056 161.425 87.8133 160.454 87.328C159.483 86.8427 158.699 86.1427 158.102 85.228C157.505 84.2947 157.206 83.1747 157.206 81.868V81.532C157.206 80.2253 157.514 79.0867 158.13 78.116C158.746 77.1453 159.614 76.3893 160.734 75.848C161.854 75.288 163.161 75.008 164.654 75.008C166.147 75.008 167.445 75.288 168.546 75.848C169.647 76.408 170.497 77.1827 171.094 78.172C171.691 79.1613 171.99 80.3 171.99 81.588V88.28C171.99 89.8667 171.663 91.192 171.01 92.256C170.375 93.3013 169.489 94.0853 168.35 94.608C167.23 95.1307 165.942 95.392 164.486 95.392ZM164.598 85.2C165.382 85.2 166.054 85.06 166.614 84.78C167.193 84.5 167.631 84.108 167.93 83.604C168.247 83.1 168.406 82.5027 168.406 81.812V81.588C168.406 80.5427 168.061 79.7213 167.37 79.124C166.698 78.508 165.774 78.2 164.598 78.2C163.422 78.2 162.489 78.508 161.798 79.124C161.126 79.7213 160.79 80.5427 160.79 81.588V81.812C160.79 82.5027 160.939 83.1 161.238 83.604C161.555 84.108 162.003 84.5 162.582 84.78C163.161 85.06 163.833 85.2 164.598 85.2ZM172.947 100.6L181.179 75.4H184.707L176.475 100.6H172.947ZM192.734 95.392C191.203 95.392 189.878 95.1213 188.758 94.58C187.657 94.0387 186.807 93.2733 186.21 92.284C185.613 91.2947 185.314 90.1467 185.314 88.84V88.56H188.954V88.812C188.954 89.7453 189.262 90.548 189.878 91.22C190.513 91.8733 191.446 92.2 192.678 92.2C193.91 92.2 194.853 91.8733 195.506 91.22C196.178 90.548 196.514 89.68 196.514 88.616V88.336C196.514 87.2907 196.178 86.46 195.506 85.844C194.853 85.228 194.031 84.92 193.042 84.92C192.501 84.92 192.053 84.9947 191.698 85.144C191.343 85.2933 191.054 85.48 190.83 85.704C190.606 85.928 190.419 86.152 190.27 86.376H185.93V75.4H199.314V78.648H189.514V83.436H190.018C190.205 83.1933 190.457 82.96 190.774 82.736C191.091 82.512 191.502 82.3253 192.006 82.176C192.51 82.0267 193.107 81.952 193.798 81.952C194.955 81.952 196.01 82.1947 196.962 82.68C197.914 83.1653 198.67 83.884 199.23 84.836C199.809 85.7693 200.098 86.9267 200.098 88.308V88.644C200.098 90.0253 199.799 91.22 199.202 92.228C198.623 93.236 197.783 94.02 196.682 94.58C195.581 95.1213 194.265 95.392 192.734 95.392Z" fill="black"/>
<path d="M77.6832 125.53C77.7124 125.471 77.7576 125.421 77.8135 125.387C77.8695 125.352 77.934 125.333 77.9999 125.333C78.0658 125.333 78.1303 125.352 78.1863 125.387C78.2422 125.421 78.2873 125.471 78.3166 125.53L79.8566 128.649C79.958 128.855 80.1078 129.032 80.293 129.167C80.4782 129.302 80.6933 129.39 80.9199 129.423L84.3639 129.927C84.4292 129.936 84.4905 129.964 84.5409 130.006C84.5913 130.049 84.6289 130.104 84.6492 130.167C84.6696 130.23 84.6721 130.297 84.6563 130.361C84.6405 130.425 84.6071 130.483 84.5599 130.529L82.0692 132.955C81.905 133.115 81.7821 133.312 81.7111 133.531C81.6402 133.749 81.6233 133.981 81.6619 134.207L82.2499 137.633C82.2614 137.699 82.2544 137.766 82.2296 137.827C82.2048 137.889 82.1632 137.942 82.1096 137.981C82.056 138.02 81.9926 138.043 81.9265 138.047C81.8604 138.052 81.7944 138.038 81.7359 138.007L78.6572 136.388C78.4544 136.282 78.2287 136.226 77.9996 136.226C77.7704 136.226 77.5448 136.282 77.3419 136.388L74.2639 138.007C74.2055 138.038 74.1395 138.052 74.0735 138.047C74.0076 138.042 73.9442 138.019 73.8908 137.98C73.8373 137.941 73.7958 137.888 73.771 137.827C73.7462 137.766 73.7391 137.699 73.7506 137.633L74.3379 134.207C74.3767 133.981 74.3599 133.749 74.2889 133.531C74.218 133.313 74.095 133.115 73.9306 132.955L71.4399 130.53C71.3923 130.484 71.3586 130.426 71.3425 130.361C71.3265 130.297 71.3289 130.23 71.3493 130.167C71.3697 130.104 71.4074 130.048 71.4581 130.005C71.5088 129.963 71.5704 129.935 71.6359 129.926L75.0792 129.423C75.3061 129.39 75.5215 129.302 75.707 129.167C75.8924 129.033 76.0424 128.855 76.1439 128.649L77.6832 125.53Z" fill="black" stroke="black" stroke-width="1.33333" stroke-linecap="round" stroke-linejoin="round"/>
<path d="M97.6832 125.53C97.7124 125.471 97.7576 125.421 97.8135 125.387C97.8695 125.352 97.934 125.333 97.9999 125.333C98.0658 125.333 98.1303 125.352 98.1863 125.387C98.2422 125.421 98.2873 125.471 98.3166 125.53L99.8566 128.649C99.958 128.855 100.108 129.032 100.293 129.167C100.478 129.302 100.693 129.39 100.92 129.423L104.364 129.927C104.429 129.936 104.49 129.964 104.541 130.006C104.591 130.049 104.629 130.104 104.649 130.167C104.67 130.23 104.672 130.297 104.656 130.361C104.64 130.425 104.607 130.483 104.56 130.529L102.069 132.955C101.905 133.115 101.782 133.312 101.711 133.531C101.64 133.749 101.623 133.981 101.662 134.207L102.25 137.633C102.261 137.699 102.254 137.766 102.23 137.827C102.205 137.889 102.163 137.942 102.11 137.981C102.056 138.02 101.993 138.043 101.926 138.047C101.86 138.052 101.794 138.038 101.736 138.007L98.6572 136.388C98.4544 136.282 98.2287 136.226 97.9996 136.226C97.7704 136.226 97.5448 136.282 97.3419 136.388L94.2639 138.007C94.2055 138.038 94.1395 138.052 94.0735 138.047C94.0076 138.042 93.9442 138.019 93.8908 137.98C93.8373 137.941 93.7958 137.888 93.771 137.827C93.7462 137.766 93.7391 137.699 93.7506 137.633L94.3379 134.207C94.3767 133.981 94.3599 133.749 94.2889 133.531C94.218 133.313 94.095 133.115 93.9306 132.955L91.4399 130.53C91.3923 130.484 91.3586 130.426 91.3425 130.361C91.3265 130.297 91.3289 130.23 91.3493 130.167C91.3697 130.104 91.4074 130.048 91.4581 130.005C91.5088 129.963 91.5704 129.935 91.6359 129.926L95.0792 129.423C95.3061 129.39 95.5215 129.302 95.707 129.167C95.8924 129.033 96.0424 128.855 96.1439 128.649L97.6832 125.53Z" fill="black" stroke="black" stroke-width="1.33333" stroke-linecap="round" stroke-linejoin="round"/>
<path d="M117.683 125.53C117.712 125.471 117.758 125.421 117.814 125.387C117.869 125.352 117.934 125.333 118 125.333C118.066 125.333 118.13 125.352 118.186 125.387C118.242 125.421 118.287 125.471 118.317 125.53L119.857 128.649C119.958 128.855 120.108 129.032 120.293 129.167C120.478 129.302 120.693 129.39 120.92 129.423L124.364 129.927C124.429 129.936 124.49 129.964 124.541 130.006C124.591 130.049 124.629 130.104 124.649 130.167C124.67 130.23 124.672 130.297 124.656 130.361C124.64 130.425 124.607 130.483 124.56 130.529L122.069 132.955C121.905 133.115 121.782 133.312 121.711 133.531C121.64 133.749 121.623 133.981 121.662 134.207L122.25 137.633C122.261 137.699 122.254 137.766 122.23 137.827C122.205 137.889 122.163 137.942 122.11 137.981C122.056 138.02 121.993 138.043 121.926 138.047C121.86 138.052 121.794 138.038 121.736 138.007L118.657 136.388C118.454 136.282 118.229 136.226 118 136.226C117.77 136.226 117.545 136.282 117.342 136.388L114.264 138.007C114.205 138.038 114.139 138.052 114.074 138.047C114.008 138.042 113.944 138.019 113.891 137.98C113.837 137.941 113.796 137.888 113.771 137.827C113.746 137.766 113.739 137.699 113.751 137.633L114.338 134.207C114.377 133.981 114.36 133.749 114.289 133.531C114.218 133.313 114.095 133.115 113.931 132.955L111.44 130.53C111.392 130.484 111.359 130.426 111.343 130.361C111.327 130.297 111.329 130.23 111.349 130.167C111.37 130.104 111.407 130.048 111.458 130.005C111.509 129.963 111.57 129.935 111.636 129.926L115.079 129.423C115.306 129.39 115.521 129.302 115.707 129.167C115.892 129.033 116.042 128.855 116.144 128.649L117.683 125.53Z" fill="black" stroke="black" stroke-width="1.33333" stroke-linecap="round" stroke-linejoin="round"/>
<path d="M137.683 125.53C137.712 125.471 137.758 125.421 137.814 125.387C137.869 125.352 137.934 125.333 138 125.333C138.066 125.333 138.13 125.352 138.186 125.387C138.242 125.421 138.287 125.471 138.317 125.53L139.857 128.649C139.958 128.855 140.108 129.032 140.293 129.167C140.478 129.302 140.693 129.39 140.92 129.423L144.364 129.927C144.429 129.936 144.49 129.964 144.541 130.006C144.591 130.049 144.629 130.104 144.649 130.167C144.67 130.23 144.672 130.297 144.656 130.361C144.64 130.425 144.607 130.483 144.56 130.529L142.069 132.955C141.905 133.115 141.782 133.312 141.711 133.531C141.64 133.749 141.623 133.981 141.662 134.207L142.25 137.633C142.261 137.699 142.254 137.766 142.23 137.827C142.205 137.889 142.163 137.942 142.11 137.981C142.056 138.02 141.993 138.043 141.926 138.047C141.86 138.052 141.794 138.038 141.736 138.007L138.657 136.388C138.454 136.282 138.229 136.226 138 136.226C137.77 136.226 137.545 136.282 137.342 136.388L134.264 138.007C134.205 138.038 134.139 138.052 134.074 138.047C134.008 138.042 133.944 138.019 133.891 137.98C133.837 137.941 133.796 137.888 133.771 137.827C133.746 137.766 133.739 137.699 133.751 137.633L134.338 134.207C134.377 133.981 134.36 133.749 134.289 133.531C134.218 133.313 134.095 133.115 133.931 132.955L131.44 130.53C131.392 130.484 131.359 130.426 131.343 130.361C131.327 130.297 131.329 130.23 131.349 130.167C131.37 130.104 131.407 130.048 131.458 130.005C131.509 129.963 131.57 129.935 131.636 129.926L135.079 129.423C135.306 129.39 135.521 129.302 135.707 129.167C135.892 129.033 136.042 128.855 136.144 128.649L137.683 125.53Z" fill="black" stroke="black" stroke-width="1.33333" stroke-linecap="round" stroke-linejoin="round"/>
<path d="M157.683 125.53C157.712 125.471 157.758 125.421 157.814 125.387C157.869 125.352 157.934 125.333 158 125.333C158.066 125.333 158.13 125.352 158.186 125.387C158.242 125.421 158.287 125.471 158.317 125.53L159.857 128.649C159.958 128.855 160.108 129.032 160.293 129.167C160.478 129.302 160.693 129.39 160.92 129.423L164.364 129.927C164.429 129.936 164.49 129.964 164.541 130.006C164.591 130.049 164.629 130.104 164.649 130.167C164.67 130.23 164.672 130.297 164.656 130.361C164.64 130.425 164.607 130.483 164.56 130.529L162.069 132.955C161.905 133.115 161.782 133.312 161.711 133.531C161.64 133.749 161.623 133.981 161.662 134.207L162.25 137.633C162.261 137.699 162.254 137.766 162.23 137.827C162.205 137.889 162.163 137.942 162.11 137.981C162.056 138.02 161.993 138.043 161.926 138.047C161.86 138.052 161.794 138.038 161.736 138.007L158.657 136.388C158.454 136.282 158.229 136.226 158 136.226C157.77 136.226 157.545 136.282 157.342 136.388L154.264 138.007C154.205 138.038 154.139 138.052 154.074 138.047C154.008 138.042 153.944 138.019 153.891 137.98C153.837 137.941 153.796 137.888 153.771 137.827C153.746 137.766 153.739 137.699 153.751 137.633L154.338 134.207C154.377 133.981 154.36 133.749 154.289 133.531C154.218 133.313 154.095 133.115 153.931 132.955L151.44 130.53C151.392 130.484 151.359 130.426 151.343 130.361C151.327 130.297 151.329 130.23 151.349 130.167C151.37 130.104 151.407 130.048 151.458 130.005C151.509 129.963 151.57 129.935 151.636 129.926L155.079 129.423C155.306 129.39 155.521 129.302 155.707 129.167C155.892 129.033 156.042 128.855 156.144 128.649L157.683 125.53Z" fill="black" stroke="black" stroke-width="1.33333" stroke-linecap="round" stroke-linejoin="round"/>
</g>
<defs>
<filter id="filter0_d_1505_2901" x="0" y="0" width="316" height="235" filterUnits="userSpaceOnUse" color-interpolation-filters="sRGB">
<feFlood flood-opacity="0" result="BackgroundImageFix"/>
<feColorMatrix in="SourceAlpha" type="matrix" values="0 0 0 0 0 0 0 0 0 0 0 0 0 0 0 0 0 0 127 0" result="hardAlpha"/>
<feMorphology radius="12" operator="erode" in="SourceAlpha" result="effect1_dropShadow_1505_2901"/>
<feOffset dy="25"/>
<feGaussianBlur stdDeviation="25"/>
<feComposite in2="hardAlpha" operator="out"/>
<feColorMatrix type="matrix" values="0 0 0 0 0 0 0 0 0 0 0 0 0 0 0 0 0 0 0.25 0"/>
<feBlend mode="normal" in2="BackgroundImageFix" result="effect1_dropShadow_1505_2901"/>
<feBlend mode="normal" in="SourceGraphic" in2="effect1_dropShadow_1505_2901" result="shape"/>
</filter>
</defs>
</svg>
