<svg width="356" height="240" viewBox="0 0 356 240" fill="none" xmlns="http://www.w3.org/2000/svg">
<g filter="url(#filter0_d_1505_2884)">
<rect x="38" y="13" width="280" height="164" rx="24" fill="white"/>
<rect x="39" y="14" width="278" height="162" rx="23" stroke="#0077FF" stroke-opacity="0.2" stroke-width="2"/>
<rect x="70" y="52.5" width="48" height="48" rx="24" fill="#0077FF"/>
<path d="M104 71.5L95.5 80L90.5 75L84 81.5" stroke="white" stroke-width="2" stroke-linecap="round" stroke-linejoin="round"/>
<path d="M98 71.5H104V77.5" stroke="white" stroke-width="2" stroke-linecap="round" stroke-linejoin="round"/>
<path d="M138.873 59H137.602L136.562 56.252H132.406L131.429 59H130.15L133.91 49.1973H135.1L138.873 59ZM136.187 55.2197L134.648 51.043C134.598 50.9062 134.548 50.6875 134.498 50.3867H134.471C134.425 50.6647 134.373 50.8835 134.313 51.043L132.789 55.2197H136.187ZM146.146 59H145.025V57.8105H144.998C144.479 58.7129 143.676 59.1641 142.592 59.1641C141.712 59.1641 141.008 58.8519 140.479 58.2275C139.955 57.5986 139.693 56.7441 139.693 55.6641C139.693 54.5065 139.985 53.5791 140.568 52.8818C141.152 52.1846 141.929 51.8359 142.899 51.8359C143.861 51.8359 144.561 52.2142 144.998 52.9707H145.025V48.6367H146.146V59ZM145.025 55.835V54.8027C145.025 54.2376 144.839 53.7591 144.465 53.3672C144.091 52.9753 143.617 52.7793 143.043 52.7793C142.359 52.7793 141.822 53.0299 141.43 53.5312C141.038 54.0326 140.842 54.7253 140.842 55.6094C140.842 56.416 141.029 57.054 141.402 57.5234C141.781 57.9883 142.286 58.2207 142.92 58.2207C143.544 58.2207 144.05 57.9951 144.438 57.5439C144.829 57.0928 145.025 56.5231 145.025 55.835ZM151.95 58.6035V57.25C152.105 57.3867 152.29 57.5098 152.504 57.6191C152.723 57.7285 152.951 57.8219 153.188 57.8994C153.429 57.9723 153.671 58.0293 153.912 58.0703C154.154 58.1113 154.377 58.1318 154.582 58.1318C155.288 58.1318 155.815 58.002 156.161 57.7422C156.512 57.4779 156.688 57.0996 156.688 56.6074C156.688 56.3431 156.628 56.113 156.51 55.917C156.396 55.721 156.236 55.5433 156.031 55.3838C155.826 55.2197 155.582 55.0648 155.3 54.9189C155.022 54.7686 154.721 54.6113 154.397 54.4473C154.056 54.2741 153.737 54.0986 153.44 53.9209C153.144 53.7432 152.887 53.5472 152.668 53.333C152.449 53.1188 152.276 52.8773 152.148 52.6084C152.025 52.335 151.964 52.016 151.964 51.6514C151.964 51.2048 152.062 50.8174 152.258 50.4893C152.454 50.1566 152.711 49.8831 153.03 49.6689C153.349 49.4548 153.712 49.2952 154.117 49.1904C154.527 49.0856 154.944 49.0332 155.368 49.0332C156.334 49.0332 157.038 49.1494 157.48 49.3818V50.6738C156.902 50.2728 156.159 50.0723 155.252 50.0723C155.001 50.0723 154.751 50.0996 154.5 50.1543C154.249 50.2044 154.026 50.2887 153.83 50.4072C153.634 50.5257 153.475 50.6784 153.352 50.8652C153.229 51.0521 153.167 51.2799 153.167 51.5488C153.167 51.7995 153.213 52.016 153.304 52.1982C153.399 52.3805 153.538 52.5469 153.721 52.6973C153.903 52.8477 154.124 52.9935 154.384 53.1348C154.648 53.276 154.951 53.431 155.293 53.5996C155.644 53.7728 155.977 53.9551 156.291 54.1465C156.605 54.3379 156.881 54.5498 157.118 54.7822C157.355 55.0146 157.542 55.2721 157.679 55.5547C157.82 55.8372 157.891 56.1608 157.891 56.5254C157.891 57.0085 157.795 57.4186 157.604 57.7559C157.417 58.0885 157.161 58.3597 156.838 58.5693C156.519 58.779 156.15 58.9294 155.73 59.0205C155.311 59.1162 154.869 59.1641 154.404 59.1641C154.249 59.1641 154.058 59.1504 153.83 59.123C153.602 59.1003 153.37 59.0638 153.133 59.0137C152.896 58.9681 152.67 58.9111 152.456 58.8428C152.246 58.7699 152.078 58.6901 151.95 58.6035ZM160.844 57.9883H160.816V62.2197H159.695V52H160.816V53.2305H160.844C161.395 52.3008 162.202 51.8359 163.264 51.8359C164.166 51.8359 164.87 52.1504 165.376 52.7793C165.882 53.4036 166.135 54.2422 166.135 55.2949C166.135 56.4661 165.85 57.4049 165.28 58.1113C164.711 58.8132 163.931 59.1641 162.942 59.1641C162.035 59.1641 161.336 58.7721 160.844 57.9883ZM160.816 55.165V56.1426C160.816 56.7214 161.003 57.2135 161.377 57.6191C161.755 58.0202 162.234 58.2207 162.812 58.2207C163.492 58.2207 164.022 57.9609 164.405 57.4414C164.793 56.9219 164.986 56.1995 164.986 55.2744C164.986 54.4951 164.806 53.8844 164.446 53.4424C164.086 53.0003 163.599 52.7793 162.983 52.7793C162.332 52.7793 161.808 53.0072 161.411 53.4629C161.015 53.9141 160.816 54.4814 160.816 55.165ZM173.552 55.7803H168.609C168.628 56.5596 168.837 57.1611 169.238 57.585C169.639 58.0088 170.191 58.2207 170.893 58.2207C171.681 58.2207 172.406 57.9609 173.066 57.4414V58.4941C172.451 58.9408 171.638 59.1641 170.626 59.1641C169.637 59.1641 168.86 58.8473 168.295 58.2139C167.73 57.5758 167.447 56.6803 167.447 55.5273C167.447 54.4382 167.755 53.5518 168.37 52.8682C168.99 52.18 169.758 51.8359 170.674 51.8359C171.59 51.8359 172.299 52.1322 172.8 52.7246C173.301 53.3171 173.552 54.1396 173.552 55.1924V55.7803ZM172.403 54.8301C172.399 54.1829 172.242 53.6794 171.932 53.3193C171.626 52.9593 171.2 52.7793 170.653 52.7793C170.125 52.7793 169.676 52.9684 169.307 53.3467C168.938 53.7249 168.71 54.2194 168.623 54.8301H172.403ZM181.064 59H179.943V55.0078C179.943 53.5221 179.401 52.7793 178.316 52.7793C177.756 52.7793 177.291 52.9912 176.922 53.415C176.557 53.8343 176.375 54.3652 176.375 55.0078V59H175.254V52H176.375V53.1621H176.402C176.931 52.278 177.697 51.8359 178.699 51.8359C179.465 51.8359 180.05 52.0843 180.456 52.5811C180.862 53.0732 181.064 53.7865 181.064 54.7207V59ZM189.158 59H188.037V57.8105H188.01C187.49 58.7129 186.688 59.1641 185.604 59.1641C184.724 59.1641 184.02 58.8519 183.491 58.2275C182.967 57.5986 182.705 56.7441 182.705 55.6641C182.705 54.5065 182.997 53.5791 183.58 52.8818C184.163 52.1846 184.94 51.8359 185.911 51.8359C186.873 51.8359 187.572 52.2142 188.01 52.9707H188.037V48.6367H189.158V59ZM188.037 55.835V54.8027C188.037 54.2376 187.85 53.7591 187.477 53.3672C187.103 52.9753 186.629 52.7793 186.055 52.7793C185.371 52.7793 184.833 53.0299 184.441 53.5312C184.049 54.0326 183.854 54.7253 183.854 55.6094C183.854 56.416 184.04 57.054 184.414 57.5234C184.792 57.9883 185.298 58.2207 185.932 58.2207C186.556 58.2207 187.062 57.9951 187.449 57.5439C187.841 57.0928 188.037 56.5231 188.037 55.835Z" fill="#424242"/>
<path d="M138.652 95.392C137.14 95.392 135.805 95.1213 134.648 94.58C133.491 94.0387 132.585 93.264 131.932 92.256C131.279 91.248 130.952 90.0347 130.952 88.616V87.832H134.592V88.616C134.592 89.792 134.956 90.6787 135.684 91.276C136.412 91.8547 137.401 92.144 138.652 92.144C139.921 92.144 140.864 91.892 141.48 91.388C142.115 90.884 142.432 90.24 142.432 89.456C142.432 88.9147 142.283 88.476 141.984 88.14C141.685 87.804 141.247 87.5333 140.668 87.328C140.089 87.104 139.38 86.8987 138.54 86.712L137.896 86.572C136.552 86.2733 135.395 85.9 134.424 85.452C133.472 84.9853 132.735 84.3787 132.212 83.632C131.708 82.8853 131.456 81.9147 131.456 80.72C131.456 79.5253 131.736 78.508 132.296 77.668C132.875 76.8093 133.677 76.156 134.704 75.708C135.749 75.2413 136.972 75.008 138.372 75.008C139.772 75.008 141.013 75.2507 142.096 75.736C143.197 76.2027 144.056 76.912 144.672 77.864C145.307 78.7973 145.624 79.9733 145.624 81.392V82.232H141.984V81.392C141.984 80.6453 141.835 80.048 141.536 79.6C141.256 79.1333 140.845 78.7973 140.304 78.592C139.763 78.368 139.119 78.256 138.372 78.256C137.252 78.256 136.421 78.4707 135.88 78.9C135.357 79.3107 135.096 79.88 135.096 80.608C135.096 81.0933 135.217 81.504 135.46 81.84C135.721 82.176 136.104 82.456 136.608 82.68C137.112 82.904 137.756 83.1 138.54 83.268L139.184 83.408C140.584 83.7067 141.797 84.0893 142.824 84.556C143.851 85.0227 144.644 85.6387 145.204 86.404C145.783 87.1693 146.072 88.1493 146.072 89.344C146.072 90.5387 145.764 91.5933 145.148 92.508C144.551 93.404 143.692 94.1133 142.572 94.636C141.471 95.14 140.164 95.392 138.652 95.392ZM136.944 98.248V72.152H140.304V98.248H136.944ZM154.204 95V78.032H153.7L151.068 84.248H147.316L151.32 75.4H157.788V95H154.204ZM160.817 95V92.648C160.817 91.2853 161.041 90.156 161.489 89.26C161.937 88.3453 162.581 87.5987 163.421 87.02C164.279 86.4227 165.325 85.9373 166.557 85.564L168.433 84.976C169.123 84.752 169.702 84.4813 170.169 84.164C170.635 83.828 170.99 83.4267 171.233 82.96C171.494 82.4933 171.625 81.9613 171.625 81.364V81.252C171.625 80.3187 171.307 79.5813 170.673 79.04C170.038 78.48 169.17 78.2 168.069 78.2C166.986 78.2 166.109 78.4987 165.437 79.096C164.783 79.6747 164.457 80.5147 164.457 81.616V82.12H160.873V81.672C160.873 80.2533 161.19 79.0493 161.825 78.06C162.459 77.0707 163.318 76.3147 164.401 75.792C165.502 75.2693 166.725 75.008 168.069 75.008C169.413 75.008 170.626 75.2693 171.709 75.792C172.791 76.296 173.641 77.0147 174.257 77.948C174.891 78.8627 175.209 79.9453 175.209 81.196V81.476C175.209 82.7267 174.947 83.7907 174.425 84.668C173.921 85.5267 173.23 86.236 172.353 86.796C171.475 87.3373 170.477 87.7853 169.357 88.14L167.565 88.7C166.762 88.9427 166.137 89.2133 165.689 89.512C165.241 89.792 164.923 90.1093 164.737 90.464C164.569 90.8 164.485 91.2107 164.485 91.696V91.808H175.041V95H160.817ZM178.114 95V75.4H184.974L188.362 92.48H188.866L192.254 75.4H199.114V95H195.53V78.116H195.026L191.666 95H185.562L182.202 78.116H181.698V95H178.114ZM207.985 91.052V86.796H203.785V83.604H207.985V79.348H211.289V83.604H215.489V86.796H211.289V91.052H207.985Z" fill="#0077FF"/>
<path d="M71.12 137V127.2H73.36L75.964 136.258H76.146L78.75 127.2H80.99V137H79.856V127.97H79.66L77.07 137H75.04L72.45 127.97H72.254V137H71.12ZM85.3753 137.196C84.8993 137.196 84.4653 137.112 84.0733 136.944C83.6813 136.776 83.3733 136.533 83.1493 136.216C82.9253 135.899 82.8133 135.511 82.8133 135.054C82.8133 134.587 82.9253 134.205 83.1493 133.906C83.3733 133.598 83.6813 133.369 84.0733 133.22C84.4653 133.061 84.9039 132.982 85.3893 132.982H87.6993V132.478C87.6993 131.993 87.5546 131.61 87.2653 131.33C86.9853 131.05 86.5653 130.91 86.0053 130.91C85.4546 130.91 85.0253 131.045 84.7173 131.316C84.4093 131.577 84.1993 131.932 84.0873 132.38L83.0513 132.044C83.1633 131.661 83.3406 131.316 83.5833 131.008C83.8259 130.691 84.1479 130.439 84.5493 130.252C84.9599 130.056 85.4499 129.958 86.0193 129.958C86.8966 129.958 87.5779 130.187 88.0633 130.644C88.5486 131.092 88.7913 131.727 88.7913 132.548V135.642C88.7913 135.922 88.9219 136.062 89.1833 136.062H89.8133V137H88.8473C88.5393 137 88.2919 136.916 88.1053 136.748C87.9186 136.571 87.8253 136.337 87.8253 136.048V135.978H87.6573C87.5546 136.155 87.4146 136.342 87.2373 136.538C87.0693 136.725 86.8359 136.879 86.5373 137C86.2386 137.131 85.8513 137.196 85.3753 137.196ZM85.5013 136.244C86.1546 136.244 86.6819 136.053 87.0833 135.67C87.4939 135.278 87.6993 134.732 87.6993 134.032V133.878H85.4313C84.9926 133.878 84.6286 133.976 84.3393 134.172C84.0593 134.359 83.9193 134.643 83.9193 135.026C83.9193 135.409 84.0639 135.707 84.3533 135.922C84.6519 136.137 85.0346 136.244 85.5013 136.244ZM91.328 137V130.154H92.406V131.316H92.602C92.7513 130.989 93.0033 130.695 93.358 130.434C93.722 130.163 94.254 130.028 94.954 130.028C95.4673 130.028 95.9247 130.135 96.326 130.35C96.7367 130.565 97.0633 130.882 97.306 131.302C97.5487 131.722 97.67 132.24 97.67 132.856V137H96.564V132.94C96.564 132.259 96.3913 131.764 96.046 131.456C95.71 131.148 95.2527 130.994 94.674 130.994C94.0113 130.994 93.47 131.209 93.05 131.638C92.6393 132.067 92.434 132.707 92.434 133.556V137H91.328ZM102.014 137.196C101.538 137.196 101.104 137.112 100.712 136.944C100.32 136.776 100.012 136.533 99.788 136.216C99.564 135.899 99.452 135.511 99.452 135.054C99.452 134.587 99.564 134.205 99.788 133.906C100.012 133.598 100.32 133.369 100.712 133.22C101.104 133.061 101.543 132.982 102.028 132.982H104.338V132.478C104.338 131.993 104.193 131.61 103.904 131.33C103.624 131.05 103.204 130.91 102.644 130.91C102.093 130.91 101.664 131.045 101.356 131.316C101.048 131.577 100.838 131.932 100.726 132.38L99.69 132.044C99.802 131.661 99.9793 131.316 100.222 131.008C100.465 130.691 100.787 130.439 101.188 130.252C101.599 130.056 102.089 129.958 102.658 129.958C103.535 129.958 104.217 130.187 104.702 130.644C105.187 131.092 105.43 131.727 105.43 132.548V135.642C105.43 135.922 105.561 136.062 105.822 136.062H106.452V137H105.486C105.178 137 104.931 136.916 104.744 136.748C104.557 136.571 104.464 136.337 104.464 136.048V135.978H104.296C104.193 136.155 104.053 136.342 103.876 136.538C103.708 136.725 103.475 136.879 103.176 137C102.877 137.131 102.49 137.196 102.014 137.196ZM102.14 136.244C102.793 136.244 103.321 136.053 103.722 135.67C104.133 135.278 104.338 134.732 104.338 134.032V133.878H102.07C101.631 133.878 101.267 133.976 100.978 134.172C100.698 134.359 100.558 134.643 100.558 135.026C100.558 135.409 100.703 135.707 100.992 135.922C101.291 136.137 101.673 136.244 102.14 136.244ZM107.439 133.612V133.416C107.439 132.697 107.584 132.081 107.873 131.568C108.163 131.055 108.555 130.658 109.049 130.378C109.544 130.098 110.085 129.958 110.673 129.958C111.392 129.958 111.943 130.098 112.325 130.378C112.717 130.649 113.007 130.952 113.193 131.288H113.389V130.154H114.439V138.596C114.439 138.969 114.337 139.263 114.131 139.478C113.926 139.693 113.627 139.8 113.235 139.8H108.587V138.82H112.941C113.221 138.82 113.361 138.68 113.361 138.4V135.796H113.165C113.053 136.001 112.895 136.202 112.689 136.398C112.484 136.594 112.218 136.757 111.891 136.888C111.565 137.009 111.159 137.07 110.673 137.07C110.085 137.07 109.544 136.93 109.049 136.65C108.555 136.37 108.163 135.973 107.873 135.46C107.584 134.937 107.439 134.321 107.439 133.612ZM110.967 136.09C111.677 136.09 112.251 135.866 112.689 135.418C113.137 134.97 113.361 134.354 113.361 133.57V133.458C113.361 132.665 113.137 132.049 112.689 131.61C112.251 131.162 111.677 130.938 110.967 130.938C110.267 130.938 109.689 131.162 109.231 131.61C108.783 132.049 108.559 132.665 108.559 133.458V133.57C108.559 134.354 108.783 134.97 109.231 135.418C109.689 135.866 110.267 136.09 110.967 136.09ZM119.894 137.196C119.203 137.196 118.596 137.051 118.074 136.762C117.551 136.463 117.145 136.048 116.856 135.516C116.566 134.984 116.422 134.368 116.422 133.668V133.5C116.422 132.791 116.566 132.17 116.856 131.638C117.145 131.106 117.546 130.695 118.06 130.406C118.573 130.107 119.161 129.958 119.824 129.958C120.468 129.958 121.037 130.098 121.532 130.378C122.026 130.649 122.414 131.041 122.694 131.554C122.974 132.067 123.114 132.669 123.114 133.36V133.864H117.528C117.556 134.601 117.794 135.18 118.242 135.6C118.69 136.011 119.25 136.216 119.922 136.216C120.51 136.216 120.962 136.081 121.28 135.81C121.597 135.539 121.84 135.217 122.008 134.844L122.96 135.306C122.82 135.595 122.624 135.885 122.372 136.174C122.129 136.463 121.807 136.706 121.406 136.902C121.014 137.098 120.51 137.196 119.894 137.196ZM117.542 132.954H121.994C121.956 132.319 121.737 131.825 121.336 131.47C120.944 131.115 120.44 130.938 119.824 130.938C119.198 130.938 118.685 131.115 118.284 131.47C117.882 131.825 117.635 132.319 117.542 132.954ZM127.941 137.196C127.353 137.196 126.812 137.056 126.317 136.776C125.822 136.496 125.43 136.09 125.141 135.558C124.852 135.026 124.707 134.396 124.707 133.668V133.486C124.707 132.758 124.852 132.133 125.141 131.61C125.43 131.078 125.818 130.672 126.303 130.392C126.798 130.103 127.344 129.958 127.941 129.958C128.417 129.958 128.818 130.023 129.145 130.154C129.481 130.275 129.752 130.434 129.957 130.63C130.162 130.817 130.321 131.017 130.433 131.232H130.629V127.2H131.735V137H130.657V135.866H130.461C130.274 136.211 129.985 136.519 129.593 136.79C129.201 137.061 128.65 137.196 127.941 137.196ZM128.235 136.216C128.944 136.216 129.518 135.992 129.957 135.544C130.405 135.087 130.629 134.452 130.629 133.64V133.514C130.629 132.702 130.405 132.072 129.957 131.624C129.518 131.167 128.944 130.938 128.235 130.938C127.535 130.938 126.956 131.167 126.499 131.624C126.051 132.072 125.827 132.702 125.827 133.514V133.64C125.827 134.452 126.051 135.087 126.499 135.544C126.956 135.992 127.535 136.216 128.235 136.216ZM139.748 137.196C139.272 137.196 138.838 137.112 138.446 136.944C138.054 136.776 137.746 136.533 137.522 136.216C137.298 135.899 137.186 135.511 137.186 135.054C137.186 134.587 137.298 134.205 137.522 133.906C137.746 133.598 138.054 133.369 138.446 133.22C138.838 133.061 139.277 132.982 139.762 132.982H142.072V132.478C142.072 131.993 141.928 131.61 141.638 131.33C141.358 131.05 140.938 130.91 140.378 130.91C139.828 130.91 139.398 131.045 139.09 131.316C138.782 131.577 138.572 131.932 138.46 132.38L137.424 132.044C137.536 131.661 137.714 131.316 137.956 131.008C138.199 130.691 138.521 130.439 138.922 130.252C139.333 130.056 139.823 129.958 140.392 129.958C141.27 129.958 141.951 130.187 142.436 130.644C142.922 131.092 143.164 131.727 143.164 132.548V135.642C143.164 135.922 143.295 136.062 143.556 136.062H144.186V137H143.22C142.912 137 142.665 136.916 142.478 136.748C142.292 136.571 142.198 136.337 142.198 136.048V135.978H142.03C141.928 136.155 141.788 136.342 141.61 136.538C141.442 136.725 141.209 136.879 140.91 137C140.612 137.131 140.224 137.196 139.748 137.196ZM139.874 136.244C140.528 136.244 141.055 136.053 141.456 135.67C141.867 135.278 142.072 134.732 142.072 134.032V133.878H139.804C139.366 133.878 139.002 133.976 138.712 134.172C138.432 134.359 138.292 134.643 138.292 135.026C138.292 135.409 138.437 135.707 138.726 135.922C139.025 136.137 139.408 136.244 139.874 136.244ZM148.66 137.196C147.997 137.196 147.4 137.056 146.868 136.776C146.345 136.487 145.93 136.076 145.622 135.544C145.323 135.012 145.174 134.382 145.174 133.654V133.5C145.174 132.763 145.323 132.133 145.622 131.61C145.93 131.078 146.345 130.672 146.868 130.392C147.4 130.103 147.997 129.958 148.66 129.958C149.313 129.958 149.868 130.079 150.326 130.322C150.792 130.565 151.156 130.887 151.418 131.288C151.688 131.689 151.861 132.119 151.936 132.576L150.858 132.8C150.811 132.464 150.699 132.156 150.522 131.876C150.354 131.596 150.116 131.372 149.808 131.204C149.5 131.036 149.122 130.952 148.674 130.952C148.216 130.952 147.806 131.055 147.442 131.26C147.087 131.465 146.802 131.759 146.588 132.142C146.382 132.525 146.28 132.982 146.28 133.514V133.64C146.28 134.172 146.382 134.629 146.588 135.012C146.802 135.395 147.087 135.689 147.442 135.894C147.806 136.099 148.216 136.202 148.674 136.202C149.355 136.202 149.873 136.025 150.228 135.67C150.592 135.315 150.816 134.877 150.9 134.354L151.992 134.592C151.889 135.04 151.702 135.465 151.432 135.866C151.161 136.267 150.792 136.589 150.326 136.832C149.868 137.075 149.313 137.196 148.66 137.196ZM153.877 137V130.154H154.955V130.994H155.151C155.272 130.695 155.459 130.476 155.711 130.336C155.963 130.196 156.294 130.126 156.705 130.126H157.517V131.134H156.635C156.14 131.134 155.739 131.274 155.431 131.554C155.132 131.825 154.983 132.249 154.983 132.828V137H153.877ZM162.072 137.196C161.381 137.196 160.77 137.051 160.238 136.762C159.715 136.473 159.305 136.067 159.006 135.544C158.717 135.012 158.572 134.387 158.572 133.668V133.486C158.572 132.777 158.717 132.156 159.006 131.624C159.305 131.092 159.715 130.681 160.238 130.392C160.77 130.103 161.381 129.958 162.072 129.958C162.763 129.958 163.369 130.103 163.892 130.392C164.424 130.681 164.835 131.092 165.124 131.624C165.423 132.156 165.572 132.777 165.572 133.486V133.668C165.572 134.387 165.423 135.012 165.124 135.544C164.835 136.067 164.424 136.473 163.892 136.762C163.369 137.051 162.763 137.196 162.072 137.196ZM162.072 136.202C162.8 136.202 163.379 135.973 163.808 135.516C164.247 135.049 164.466 134.424 164.466 133.64V133.514C164.466 132.73 164.247 132.109 163.808 131.652C163.379 131.185 162.8 130.952 162.072 130.952C161.353 130.952 160.775 131.185 160.336 131.652C159.897 132.109 159.678 132.73 159.678 133.514V133.64C159.678 134.424 159.897 135.049 160.336 135.516C160.775 135.973 161.353 136.202 162.072 136.202ZM170.32 137.196C169.471 137.196 168.752 137 168.164 136.608C167.586 136.216 167.236 135.595 167.114 134.746L168.164 134.508C168.239 134.956 168.379 135.311 168.584 135.572C168.79 135.824 169.042 136.006 169.34 136.118C169.648 136.221 169.975 136.272 170.32 136.272C170.834 136.272 171.24 136.169 171.538 135.964C171.837 135.759 171.986 135.483 171.986 135.138C171.986 134.783 171.842 134.536 171.552 134.396C171.272 134.247 170.885 134.125 170.39 134.032L169.816 133.934C169.378 133.859 168.976 133.743 168.612 133.584C168.248 133.425 167.959 133.211 167.744 132.94C167.53 132.669 167.422 132.329 167.422 131.918C167.422 131.302 167.66 130.821 168.136 130.476C168.612 130.131 169.242 129.958 170.026 129.958C170.801 129.958 171.426 130.135 171.902 130.49C172.388 130.835 172.7 131.325 172.84 131.96L171.804 132.226C171.72 131.731 171.52 131.386 171.202 131.19C170.885 130.985 170.493 130.882 170.026 130.882C169.56 130.882 169.191 130.971 168.92 131.148C168.65 131.316 168.514 131.568 168.514 131.904C168.514 132.231 168.64 132.473 168.892 132.632C169.154 132.781 169.499 132.893 169.928 132.968L170.502 133.066C170.988 133.15 171.422 133.267 171.804 133.416C172.196 133.556 172.504 133.761 172.728 134.032C172.962 134.303 173.078 134.657 173.078 135.096C173.078 135.768 172.826 136.286 172.322 136.65C171.828 137.014 171.16 137.196 170.32 137.196ZM177.703 137.196C176.854 137.196 176.135 137 175.547 136.608C174.969 136.216 174.619 135.595 174.497 134.746L175.547 134.508C175.622 134.956 175.762 135.311 175.967 135.572C176.173 135.824 176.425 136.006 176.723 136.118C177.031 136.221 177.358 136.272 177.703 136.272C178.217 136.272 178.623 136.169 178.921 135.964C179.22 135.759 179.369 135.483 179.369 135.138C179.369 134.783 179.225 134.536 178.935 134.396C178.655 134.247 178.268 134.125 177.773 134.032L177.199 133.934C176.761 133.859 176.359 133.743 175.995 133.584C175.631 133.425 175.342 133.211 175.127 132.94C174.913 132.669 174.805 132.329 174.805 131.918C174.805 131.302 175.043 130.821 175.519 130.476C175.995 130.131 176.625 129.958 177.409 129.958C178.184 129.958 178.809 130.135 179.285 130.49C179.771 130.835 180.083 131.325 180.223 131.96L179.187 132.226C179.103 131.731 178.903 131.386 178.585 131.19C178.268 130.985 177.876 130.882 177.409 130.882C176.943 130.882 176.574 130.971 176.303 131.148C176.033 131.316 175.897 131.568 175.897 131.904C175.897 132.231 176.023 132.473 176.275 132.632C176.537 132.781 176.882 132.893 177.311 132.968L177.885 133.066C178.371 133.15 178.805 133.267 179.187 133.416C179.579 133.556 179.887 133.761 180.111 134.032C180.345 134.303 180.461 134.657 180.461 135.096C180.461 135.768 180.209 136.286 179.705 136.65C179.211 137.014 178.543 137.196 177.703 137.196ZM185.504 137V135.978C185.504 135.278 185.625 134.718 185.868 134.298C186.12 133.878 186.465 133.542 186.904 133.29C187.352 133.029 187.884 132.805 188.5 132.618L189.27 132.38C189.69 132.249 190.058 132.091 190.376 131.904C190.693 131.708 190.94 131.465 191.118 131.176C191.295 130.877 191.384 130.513 191.384 130.084V130.028C191.384 129.412 191.169 128.927 190.74 128.572C190.31 128.208 189.76 128.026 189.088 128.026C188.378 128.026 187.8 128.217 187.352 128.6C186.904 128.973 186.68 129.543 186.68 130.308V130.504H185.56V130.322C185.56 129.613 185.714 129.011 186.022 128.516C186.33 128.021 186.75 127.648 187.282 127.396C187.814 127.135 188.416 127.004 189.088 127.004C189.76 127.004 190.352 127.13 190.866 127.382C191.388 127.634 191.794 127.984 192.084 128.432C192.373 128.88 192.518 129.403 192.518 130V130.126C192.518 130.761 192.392 131.288 192.14 131.708C191.888 132.119 191.538 132.455 191.09 132.716C190.651 132.977 190.133 133.201 189.536 133.388L188.78 133.626C188.304 133.775 187.907 133.934 187.59 134.102C187.282 134.261 187.048 134.466 186.89 134.718C186.731 134.97 186.652 135.311 186.652 135.74V135.978H192.434V137H185.504ZM197.677 137.196C196.567 137.196 195.68 136.869 195.017 136.216C194.364 135.553 194.037 134.564 194.037 133.248V130.952C194.037 129.645 194.364 128.661 195.017 127.998C195.68 127.335 196.567 127.004 197.677 127.004C198.797 127.004 199.684 127.335 200.337 127.998C201 128.661 201.331 129.645 201.331 130.952V133.248C201.331 134.564 201 135.553 200.337 136.216C199.684 136.869 198.797 137.196 197.677 137.196ZM197.677 136.174C198.517 136.174 199.147 135.922 199.567 135.418C199.987 134.914 200.197 134.209 200.197 133.304V130.882C200.197 129.977 199.983 129.277 199.553 128.782C199.124 128.278 198.499 128.026 197.677 128.026C196.856 128.026 196.231 128.278 195.801 128.782C195.381 129.286 195.171 129.986 195.171 130.882V133.304C195.171 134.219 195.381 134.928 195.801 135.432C196.221 135.927 196.847 136.174 197.677 136.174ZM206.646 137.196C205.535 137.196 204.649 136.869 203.986 136.216C203.333 135.553 203.006 134.564 203.006 133.248V130.952C203.006 129.645 203.333 128.661 203.986 127.998C204.649 127.335 205.535 127.004 206.646 127.004C207.766 127.004 208.653 127.335 209.306 127.998C209.969 128.661 210.3 129.645 210.3 130.952V133.248C210.3 134.564 209.969 135.553 209.306 136.216C208.653 136.869 207.766 137.196 206.646 137.196ZM206.646 136.174C207.486 136.174 208.116 135.922 208.536 135.418C208.956 134.914 209.166 134.209 209.166 133.304V130.882C209.166 129.977 208.951 129.277 208.522 128.782C208.093 128.278 207.467 128.026 206.646 128.026C205.825 128.026 205.199 128.278 204.77 128.782C204.35 129.286 204.14 129.986 204.14 130.882V133.304C204.14 134.219 204.35 134.928 204.77 135.432C205.19 135.927 205.815 136.174 206.646 136.174ZM214.943 135.04V132.604H212.535V131.596H214.943V129.16H216.007V131.596H218.415V132.604H216.007V135.04H214.943ZM227.724 137.196C227.061 137.196 226.464 137.056 225.932 136.776C225.409 136.487 224.994 136.076 224.686 135.544C224.387 135.012 224.238 134.382 224.238 133.654V133.5C224.238 132.763 224.387 132.133 224.686 131.61C224.994 131.078 225.409 130.672 225.932 130.392C226.464 130.103 227.061 129.958 227.724 129.958C228.377 129.958 228.933 130.079 229.39 130.322C229.857 130.565 230.221 130.887 230.482 131.288C230.753 131.689 230.925 132.119 231 132.576L229.922 132.8C229.875 132.464 229.763 132.156 229.586 131.876C229.418 131.596 229.18 131.372 228.872 131.204C228.564 131.036 228.186 130.952 227.738 130.952C227.281 130.952 226.87 131.055 226.506 131.26C226.151 131.465 225.867 131.759 225.652 132.142C225.447 132.525 225.344 132.982 225.344 133.514V133.64C225.344 134.172 225.447 134.629 225.652 135.012C225.867 135.395 226.151 135.689 226.506 135.894C226.87 136.099 227.281 136.202 227.738 136.202C228.419 136.202 228.937 136.025 229.292 135.67C229.656 135.315 229.88 134.877 229.964 134.354L231.056 134.592C230.953 135.04 230.767 135.465 230.496 135.866C230.225 136.267 229.857 136.589 229.39 136.832C228.933 137.075 228.377 137.196 227.724 137.196ZM235.041 137.196C234.565 137.196 234.131 137.112 233.739 136.944C233.347 136.776 233.039 136.533 232.815 136.216C232.591 135.899 232.479 135.511 232.479 135.054C232.479 134.587 232.591 134.205 232.815 133.906C233.039 133.598 233.347 133.369 233.739 133.22C234.131 133.061 234.57 132.982 235.055 132.982H237.365V132.478C237.365 131.993 237.221 131.61 236.931 131.33C236.651 131.05 236.231 130.91 235.671 130.91C235.121 130.91 234.691 131.045 234.383 131.316C234.075 131.577 233.865 131.932 233.753 132.38L232.717 132.044C232.829 131.661 233.007 131.316 233.249 131.008C233.492 130.691 233.814 130.439 234.215 130.252C234.626 130.056 235.116 129.958 235.685 129.958C236.563 129.958 237.244 130.187 237.729 130.644C238.215 131.092 238.457 131.727 238.457 132.548V135.642C238.457 135.922 238.588 136.062 238.849 136.062H239.479V137H238.513C238.205 137 237.958 136.916 237.771 136.748C237.585 136.571 237.491 136.337 237.491 136.048V135.978H237.323C237.221 136.155 237.081 136.342 236.903 136.538C236.735 136.725 236.502 136.879 236.203 137C235.905 137.131 235.517 137.196 235.041 137.196ZM235.167 136.244C235.821 136.244 236.348 136.053 236.749 135.67C237.16 135.278 237.365 134.732 237.365 134.032V133.878H235.097C234.659 133.878 234.295 133.976 234.005 134.172C233.725 134.359 233.585 134.643 233.585 135.026C233.585 135.409 233.73 135.707 234.019 135.922C234.318 136.137 234.701 136.244 235.167 136.244ZM240.994 137V130.154H242.072V131.008H242.268C242.399 130.765 242.613 130.541 242.912 130.336C243.211 130.131 243.631 130.028 244.172 130.028C244.704 130.028 245.133 130.145 245.46 130.378C245.796 130.611 246.039 130.896 246.188 131.232H246.384C246.543 130.896 246.781 130.611 247.098 130.378C247.425 130.145 247.877 130.028 248.456 130.028C248.913 130.028 249.315 130.121 249.66 130.308C250.005 130.495 250.276 130.765 250.472 131.12C250.677 131.465 250.78 131.881 250.78 132.366V137H249.674V132.464C249.674 132.007 249.539 131.647 249.268 131.386C249.007 131.115 248.638 130.98 248.162 130.98C247.658 130.98 247.243 131.143 246.916 131.47C246.599 131.797 246.44 132.268 246.44 132.884V137H245.334V132.464C245.334 132.007 245.199 131.647 244.928 131.386C244.667 131.115 244.298 130.98 243.822 130.98C243.318 130.98 242.903 131.143 242.576 131.47C242.259 131.797 242.1 132.268 242.1 132.884V137H240.994ZM253.039 139.8V130.154H254.117V131.288H254.313C254.49 130.943 254.775 130.635 255.167 130.364C255.568 130.093 256.124 129.958 256.833 129.958C257.421 129.958 257.958 130.103 258.443 130.392C258.938 130.672 259.33 131.073 259.619 131.596C259.918 132.119 260.067 132.749 260.067 133.486V133.668C260.067 134.396 259.922 135.026 259.633 135.558C259.344 136.09 258.952 136.496 258.457 136.776C257.972 137.056 257.43 137.196 256.833 137.196C256.357 137.196 255.951 137.131 255.615 137C255.288 136.879 255.022 136.72 254.817 136.524C254.612 136.328 254.453 136.127 254.341 135.922H254.145V139.8H253.039ZM256.539 136.216C257.248 136.216 257.822 135.992 258.261 135.544C258.709 135.087 258.933 134.452 258.933 133.64V133.514C258.933 132.702 258.709 132.072 258.261 131.624C257.822 131.167 257.248 130.938 256.539 130.938C255.839 130.938 255.26 131.167 254.803 131.624C254.355 132.072 254.131 132.702 254.131 133.514V133.64C254.131 134.452 254.355 135.087 254.803 135.544C255.26 135.992 255.839 136.216 256.539 136.216ZM264.149 137.196C263.673 137.196 263.239 137.112 262.847 136.944C262.455 136.776 262.147 136.533 261.923 136.216C261.699 135.899 261.587 135.511 261.587 135.054C261.587 134.587 261.699 134.205 261.923 133.906C262.147 133.598 262.455 133.369 262.847 133.22C263.239 133.061 263.677 132.982 264.163 132.982H266.473V132.478C266.473 131.993 266.328 131.61 266.039 131.33C265.759 131.05 265.339 130.91 264.779 130.91C264.228 130.91 263.799 131.045 263.491 131.316C263.183 131.577 262.973 131.932 262.861 132.38L261.825 132.044C261.937 131.661 262.114 131.316 262.357 131.008C262.599 130.691 262.921 130.439 263.323 130.252C263.733 130.056 264.223 129.958 264.793 129.958C265.67 129.958 266.351 130.187 266.837 130.644C267.322 131.092 267.565 131.727 267.565 132.548V135.642C267.565 135.922 267.695 136.062 267.957 136.062H268.587V137H267.621C267.313 137 267.065 136.916 266.879 136.748C266.692 136.571 266.599 136.337 266.599 136.048V135.978H266.431C266.328 136.155 266.188 136.342 266.011 136.538C265.843 136.725 265.609 136.879 265.311 137C265.012 137.131 264.625 137.196 264.149 137.196ZM264.275 136.244C264.928 136.244 265.455 136.053 265.857 135.67C266.267 135.278 266.473 134.732 266.473 134.032V133.878H264.205C263.766 133.878 263.402 133.976 263.113 134.172C262.833 134.359 262.693 134.643 262.693 135.026C262.693 135.409 262.837 135.707 263.127 135.922C263.425 136.137 263.808 136.244 264.275 136.244ZM270.101 137V130.154H271.207V137H270.101ZM270.661 129.09C270.419 129.09 270.213 129.011 270.045 128.852C269.887 128.693 269.807 128.493 269.807 128.25C269.807 127.998 269.887 127.793 270.045 127.634C270.213 127.475 270.419 127.396 270.661 127.396C270.904 127.396 271.105 127.475 271.263 127.634C271.422 127.793 271.501 127.998 271.501 128.25C271.501 128.493 271.422 128.693 271.263 128.852C271.105 129.011 270.904 129.09 270.661 129.09ZM273.197 133.612V133.416C273.197 132.697 273.342 132.081 273.631 131.568C273.92 131.055 274.312 130.658 274.807 130.378C275.302 130.098 275.843 129.958 276.431 129.958C277.15 129.958 277.7 130.098 278.083 130.378C278.475 130.649 278.764 130.952 278.951 131.288H279.147V130.154H280.197V138.596C280.197 138.969 280.094 139.263 279.889 139.478C279.684 139.693 279.385 139.8 278.993 139.8H274.345V138.82H278.699C278.979 138.82 279.119 138.68 279.119 138.4V135.796H278.923C278.811 136.001 278.652 136.202 278.447 136.398C278.242 136.594 277.976 136.757 277.649 136.888C277.322 137.009 276.916 137.07 276.431 137.07C275.843 137.07 275.302 136.93 274.807 136.65C274.312 136.37 273.92 135.973 273.631 135.46C273.342 134.937 273.197 134.321 273.197 133.612ZM276.725 136.09C277.434 136.09 278.008 135.866 278.447 135.418C278.895 134.97 279.119 134.354 279.119 133.57V133.458C279.119 132.665 278.895 132.049 278.447 131.61C278.008 131.162 277.434 130.938 276.725 130.938C276.025 130.938 275.446 131.162 274.989 131.61C274.541 132.049 274.317 132.665 274.317 133.458V133.57C274.317 134.354 274.541 134.97 274.989 135.418C275.446 135.866 276.025 136.09 276.725 136.09ZM282.516 137V130.154H283.594V131.316H283.79C283.939 130.989 284.191 130.695 284.546 130.434C284.91 130.163 285.442 130.028 286.142 130.028C286.655 130.028 287.112 130.135 287.514 130.35C287.924 130.565 288.251 130.882 288.494 131.302C288.736 131.722 288.858 132.24 288.858 132.856V137H287.752V132.94C287.752 132.259 287.579 131.764 287.234 131.456C286.898 131.148 286.44 130.994 285.862 130.994C285.199 130.994 284.658 131.209 284.238 131.638C283.827 132.067 283.622 132.707 283.622 133.556V137H282.516ZM293.859 137.196C293.01 137.196 292.291 137 291.703 136.608C291.125 136.216 290.775 135.595 290.653 134.746L291.703 134.508C291.778 134.956 291.918 135.311 292.123 135.572C292.329 135.824 292.581 136.006 292.879 136.118C293.187 136.221 293.514 136.272 293.859 136.272C294.373 136.272 294.779 136.169 295.077 135.964C295.376 135.759 295.525 135.483 295.525 135.138C295.525 134.783 295.381 134.536 295.091 134.396C294.811 134.247 294.424 134.125 293.929 134.032L293.355 133.934C292.917 133.859 292.515 133.743 292.151 133.584C291.787 133.425 291.498 133.211 291.283 132.94C291.069 132.669 290.961 132.329 290.961 131.918C290.961 131.302 291.199 130.821 291.675 130.476C292.151 130.131 292.781 129.958 293.565 129.958C294.34 129.958 294.965 130.135 295.441 130.49C295.927 130.835 296.239 131.325 296.379 131.96L295.343 132.226C295.259 131.731 295.059 131.386 294.741 131.19C294.424 130.985 294.032 130.882 293.565 130.882C293.099 130.882 292.73 130.971 292.459 131.148C292.189 131.316 292.053 131.568 292.053 131.904C292.053 132.231 292.179 132.473 292.431 132.632C292.693 132.781 293.038 132.893 293.467 132.968L294.041 133.066C294.527 133.15 294.961 133.267 295.343 133.416C295.735 133.556 296.043 133.761 296.267 134.032C296.501 134.303 296.617 134.657 296.617 135.096C296.617 135.768 296.365 136.286 295.861 136.65C295.367 137.014 294.699 137.196 293.859 137.196Z" fill="#424242"/>
</g>
<defs>
<filter id="filter0_d_1505_2884" x="0" y="0" width="356" height="240" filterUnits="userSpaceOnUse" color-interpolation-filters="sRGB">
<feFlood flood-opacity="0" result="BackgroundImageFix"/>
<feColorMatrix in="SourceAlpha" type="matrix" values="0 0 0 0 0 0 0 0 0 0 0 0 0 0 0 0 0 0 127 0" result="hardAlpha"/>
<feMorphology radius="12" operator="erode" in="SourceAlpha" result="effect1_dropShadow_1505_2884"/>
<feOffset dy="25"/>
<feGaussianBlur stdDeviation="25"/>
<feComposite in2="hardAlpha" operator="out"/>
<feColorMatrix type="matrix" values="0 0 0 0 0 0 0 0 0 0 0 0 0 0 0 0 0 0 0.25 0"/>
<feBlend mode="normal" in2="BackgroundImageFix" result="effect1_dropShadow_1505_2884"/>
<feBlend mode="normal" in="SourceGraphic" in2="effect1_dropShadow_1505_2884" result="shape"/>
</filter>
</defs>
</svg>
