<svg width="528" height="532" viewBox="0 0 528 532" fill="none" xmlns="http://www.w3.org/2000/svg">
<g filter="url(#filter0_d_1505_2883)">
<rect x="184" y="13" width="280" height="164" rx="24" fill="white"/>
<rect x="185" y="14" width="278" height="162" rx="23" stroke="#0077FF" stroke-opacity="0.2" stroke-width="2"/>
<rect x="216" y="52.5" width="48" height="48" rx="24" fill="#0077FF"/>
<path d="M250 71.5L241.5 80L236.5 75L230 81.5" stroke="white" stroke-width="2" stroke-linecap="round" stroke-linejoin="round"/>
<path d="M244 71.5H250V77.5" stroke="white" stroke-width="2" stroke-linecap="round" stroke-linejoin="round"/>
<path d="M284.873 59H283.602L282.562 56.252H278.406L277.429 59H276.15L279.91 49.1973H281.1L284.873 59ZM282.187 55.2197L280.648 51.043C280.598 50.9062 280.548 50.6875 280.498 50.3867H280.471C280.425 50.6647 280.373 50.8835 280.313 51.043L278.789 55.2197H282.187ZM292.146 59H291.025V57.8105H290.998C290.479 58.7129 289.676 59.1641 288.592 59.1641C287.712 59.1641 287.008 58.8519 286.479 58.2275C285.955 57.5986 285.693 56.7441 285.693 55.6641C285.693 54.5065 285.985 53.5791 286.568 52.8818C287.152 52.1846 287.929 51.8359 288.899 51.8359C289.861 51.8359 290.561 52.2142 290.998 52.9707H291.025V48.6367H292.146V59ZM291.025 55.835V54.8027C291.025 54.2376 290.839 53.7591 290.465 53.3672C290.091 52.9753 289.617 52.7793 289.043 52.7793C288.359 52.7793 287.822 53.0299 287.43 53.5312C287.038 54.0326 286.842 54.7253 286.842 55.6094C286.842 56.416 287.029 57.054 287.402 57.5234C287.781 57.9883 288.286 58.2207 288.92 58.2207C289.544 58.2207 290.05 57.9951 290.438 57.5439C290.829 57.0928 291.025 56.5231 291.025 55.835ZM297.95 58.6035V57.25C298.105 57.3867 298.29 57.5098 298.504 57.6191C298.723 57.7285 298.951 57.8219 299.188 57.8994C299.429 57.9723 299.671 58.0293 299.912 58.0703C300.154 58.1113 300.377 58.1318 300.582 58.1318C301.288 58.1318 301.815 58.002 302.161 57.7422C302.512 57.4779 302.688 57.0996 302.688 56.6074C302.688 56.3431 302.628 56.113 302.51 55.917C302.396 55.721 302.236 55.5433 302.031 55.3838C301.826 55.2197 301.582 55.0648 301.3 54.9189C301.022 54.7686 300.721 54.6113 300.397 54.4473C300.056 54.2741 299.737 54.0986 299.44 53.9209C299.144 53.7432 298.887 53.5472 298.668 53.333C298.449 53.1188 298.276 52.8773 298.148 52.6084C298.025 52.335 297.964 52.016 297.964 51.6514C297.964 51.2048 298.062 50.8174 298.258 50.4893C298.454 50.1566 298.711 49.8831 299.03 49.6689C299.349 49.4548 299.712 49.2952 300.117 49.1904C300.527 49.0856 300.944 49.0332 301.368 49.0332C302.334 49.0332 303.038 49.1494 303.48 49.3818V50.6738C302.902 50.2728 302.159 50.0723 301.252 50.0723C301.001 50.0723 300.751 50.0996 300.5 50.1543C300.249 50.2044 300.026 50.2887 299.83 50.4072C299.634 50.5257 299.475 50.6784 299.352 50.8652C299.229 51.0521 299.167 51.2799 299.167 51.5488C299.167 51.7995 299.213 52.016 299.304 52.1982C299.399 52.3805 299.538 52.5469 299.721 52.6973C299.903 52.8477 300.124 52.9935 300.384 53.1348C300.648 53.276 300.951 53.431 301.293 53.5996C301.644 53.7728 301.977 53.9551 302.291 54.1465C302.605 54.3379 302.881 54.5498 303.118 54.7822C303.355 55.0146 303.542 55.2721 303.679 55.5547C303.82 55.8372 303.891 56.1608 303.891 56.5254C303.891 57.0085 303.795 57.4186 303.604 57.7559C303.417 58.0885 303.161 58.3597 302.838 58.5693C302.519 58.779 302.15 58.9294 301.73 59.0205C301.311 59.1162 300.869 59.1641 300.404 59.1641C300.249 59.1641 300.058 59.1504 299.83 59.123C299.602 59.1003 299.37 59.0638 299.133 59.0137C298.896 58.9681 298.67 58.9111 298.456 58.8428C298.246 58.7699 298.078 58.6901 297.95 58.6035ZM306.844 57.9883H306.816V62.2197H305.695V52H306.816V53.2305H306.844C307.395 52.3008 308.202 51.8359 309.264 51.8359C310.166 51.8359 310.87 52.1504 311.376 52.7793C311.882 53.4036 312.135 54.2422 312.135 55.2949C312.135 56.4661 311.85 57.4049 311.28 58.1113C310.711 58.8132 309.931 59.1641 308.942 59.1641C308.035 59.1641 307.336 58.7721 306.844 57.9883ZM306.816 55.165V56.1426C306.816 56.7214 307.003 57.2135 307.377 57.6191C307.755 58.0202 308.234 58.2207 308.812 58.2207C309.492 58.2207 310.022 57.9609 310.405 57.4414C310.793 56.9219 310.986 56.1995 310.986 55.2744C310.986 54.4951 310.806 53.8844 310.446 53.4424C310.086 53.0003 309.599 52.7793 308.983 52.7793C308.332 52.7793 307.808 53.0072 307.411 53.4629C307.015 53.9141 306.816 54.4814 306.816 55.165ZM319.552 55.7803H314.609C314.628 56.5596 314.837 57.1611 315.238 57.585C315.639 58.0088 316.191 58.2207 316.893 58.2207C317.681 58.2207 318.406 57.9609 319.066 57.4414V58.4941C318.451 58.9408 317.638 59.1641 316.626 59.1641C315.637 59.1641 314.86 58.8473 314.295 58.2139C313.73 57.5758 313.447 56.6803 313.447 55.5273C313.447 54.4382 313.755 53.5518 314.37 52.8682C314.99 52.18 315.758 51.8359 316.674 51.8359C317.59 51.8359 318.299 52.1322 318.8 52.7246C319.301 53.3171 319.552 54.1396 319.552 55.1924V55.7803ZM318.403 54.8301C318.399 54.1829 318.242 53.6794 317.932 53.3193C317.626 52.9593 317.2 52.7793 316.653 52.7793C316.125 52.7793 315.676 52.9684 315.307 53.3467C314.938 53.7249 314.71 54.2194 314.623 54.8301H318.403ZM327.064 59H325.943V55.0078C325.943 53.5221 325.401 52.7793 324.316 52.7793C323.756 52.7793 323.291 52.9912 322.922 53.415C322.557 53.8343 322.375 54.3652 322.375 55.0078V59H321.254V52H322.375V53.1621H322.402C322.931 52.278 323.697 51.8359 324.699 51.8359C325.465 51.8359 326.05 52.0843 326.456 52.5811C326.862 53.0732 327.064 53.7865 327.064 54.7207V59ZM335.158 59H334.037V57.8105H334.01C333.49 58.7129 332.688 59.1641 331.604 59.1641C330.724 59.1641 330.02 58.8519 329.491 58.2275C328.967 57.5986 328.705 56.7441 328.705 55.6641C328.705 54.5065 328.997 53.5791 329.58 52.8818C330.163 52.1846 330.94 51.8359 331.911 51.8359C332.873 51.8359 333.572 52.2142 334.01 52.9707H334.037V48.6367H335.158V59ZM334.037 55.835V54.8027C334.037 54.2376 333.85 53.7591 333.477 53.3672C333.103 52.9753 332.629 52.7793 332.055 52.7793C331.371 52.7793 330.833 53.0299 330.441 53.5312C330.049 54.0326 329.854 54.7253 329.854 55.6094C329.854 56.416 330.04 57.054 330.414 57.5234C330.792 57.9883 331.298 58.2207 331.932 58.2207C332.556 58.2207 333.062 57.9951 333.449 57.5439C333.841 57.0928 334.037 56.5231 334.037 55.835Z" fill="#424242"/>
<path d="M284.652 95.392C283.14 95.392 281.805 95.1213 280.648 94.58C279.491 94.0387 278.585 93.264 277.932 92.256C277.279 91.248 276.952 90.0347 276.952 88.616V87.832H280.592V88.616C280.592 89.792 280.956 90.6787 281.684 91.276C282.412 91.8547 283.401 92.144 284.652 92.144C285.921 92.144 286.864 91.892 287.48 91.388C288.115 90.884 288.432 90.24 288.432 89.456C288.432 88.9147 288.283 88.476 287.984 88.14C287.685 87.804 287.247 87.5333 286.668 87.328C286.089 87.104 285.38 86.8987 284.54 86.712L283.896 86.572C282.552 86.2733 281.395 85.9 280.424 85.452C279.472 84.9853 278.735 84.3787 278.212 83.632C277.708 82.8853 277.456 81.9147 277.456 80.72C277.456 79.5253 277.736 78.508 278.296 77.668C278.875 76.8093 279.677 76.156 280.704 75.708C281.749 75.2413 282.972 75.008 284.372 75.008C285.772 75.008 287.013 75.2507 288.096 75.736C289.197 76.2027 290.056 76.912 290.672 77.864C291.307 78.7973 291.624 79.9733 291.624 81.392V82.232H287.984V81.392C287.984 80.6453 287.835 80.048 287.536 79.6C287.256 79.1333 286.845 78.7973 286.304 78.592C285.763 78.368 285.119 78.256 284.372 78.256C283.252 78.256 282.421 78.4707 281.88 78.9C281.357 79.3107 281.096 79.88 281.096 80.608C281.096 81.0933 281.217 81.504 281.46 81.84C281.721 82.176 282.104 82.456 282.608 82.68C283.112 82.904 283.756 83.1 284.54 83.268L285.184 83.408C286.584 83.7067 287.797 84.0893 288.824 84.556C289.851 85.0227 290.644 85.6387 291.204 86.404C291.783 87.1693 292.072 88.1493 292.072 89.344C292.072 90.5387 291.764 91.5933 291.148 92.508C290.551 93.404 289.692 94.1133 288.572 94.636C287.471 95.14 286.164 95.392 284.652 95.392ZM282.944 98.248V72.152H286.304V98.248H282.944ZM300.204 95V78.032H299.7L297.068 84.248H293.316L297.32 75.4H303.788V95H300.204ZM306.817 95V92.648C306.817 91.2853 307.041 90.156 307.489 89.26C307.937 88.3453 308.581 87.5987 309.421 87.02C310.279 86.4227 311.325 85.9373 312.557 85.564L314.433 84.976C315.123 84.752 315.702 84.4813 316.169 84.164C316.635 83.828 316.99 83.4267 317.233 82.96C317.494 82.4933 317.625 81.9613 317.625 81.364V81.252C317.625 80.3187 317.307 79.5813 316.673 79.04C316.038 78.48 315.17 78.2 314.069 78.2C312.986 78.2 312.109 78.4987 311.437 79.096C310.783 79.6747 310.457 80.5147 310.457 81.616V82.12H306.873V81.672C306.873 80.2533 307.19 79.0493 307.825 78.06C308.459 77.0707 309.318 76.3147 310.401 75.792C311.502 75.2693 312.725 75.008 314.069 75.008C315.413 75.008 316.626 75.2693 317.709 75.792C318.791 76.296 319.641 77.0147 320.257 77.948C320.891 78.8627 321.209 79.9453 321.209 81.196V81.476C321.209 82.7267 320.947 83.7907 320.425 84.668C319.921 85.5267 319.23 86.236 318.353 86.796C317.475 87.3373 316.477 87.7853 315.357 88.14L313.565 88.7C312.762 88.9427 312.137 89.2133 311.689 89.512C311.241 89.792 310.923 90.1093 310.737 90.464C310.569 90.8 310.485 91.2107 310.485 91.696V91.808H321.041V95H306.817ZM324.114 95V75.4H330.974L334.362 92.48H334.866L338.254 75.4H345.114V95H341.53V78.116H341.026L337.666 95H331.562L328.202 78.116H327.698V95H324.114ZM353.985 91.052V86.796H349.785V83.604H353.985V79.348H357.289V83.604H361.489V86.796H357.289V91.052H353.985Z" fill="#0077FF"/>
<path d="M217.12 137V127.2H219.36L221.964 136.258H222.146L224.75 127.2H226.99V137H225.856V127.97H225.66L223.07 137H221.04L218.45 127.97H218.254V137H217.12ZM231.375 137.196C230.899 137.196 230.465 137.112 230.073 136.944C229.681 136.776 229.373 136.533 229.149 136.216C228.925 135.899 228.813 135.511 228.813 135.054C228.813 134.587 228.925 134.205 229.149 133.906C229.373 133.598 229.681 133.369 230.073 133.22C230.465 133.061 230.904 132.982 231.389 132.982H233.699V132.478C233.699 131.993 233.555 131.61 233.265 131.33C232.985 131.05 232.565 130.91 232.005 130.91C231.455 130.91 231.025 131.045 230.717 131.316C230.409 131.577 230.199 131.932 230.087 132.38L229.051 132.044C229.163 131.661 229.341 131.316 229.583 131.008C229.826 130.691 230.148 130.439 230.549 130.252C230.96 130.056 231.45 129.958 232.019 129.958C232.897 129.958 233.578 130.187 234.063 130.644C234.549 131.092 234.791 131.727 234.791 132.548V135.642C234.791 135.922 234.922 136.062 235.183 136.062H235.813V137H234.847C234.539 137 234.292 136.916 234.105 136.748C233.919 136.571 233.825 136.337 233.825 136.048V135.978H233.657C233.555 136.155 233.415 136.342 233.237 136.538C233.069 136.725 232.836 136.879 232.537 137C232.239 137.131 231.851 137.196 231.375 137.196ZM231.501 136.244C232.155 136.244 232.682 136.053 233.083 135.67C233.494 135.278 233.699 134.732 233.699 134.032V133.878H231.431C230.993 133.878 230.629 133.976 230.339 134.172C230.059 134.359 229.919 134.643 229.919 135.026C229.919 135.409 230.064 135.707 230.353 135.922C230.652 136.137 231.035 136.244 231.501 136.244ZM237.328 137V130.154H238.406V131.316H238.602C238.751 130.989 239.003 130.695 239.358 130.434C239.722 130.163 240.254 130.028 240.954 130.028C241.467 130.028 241.925 130.135 242.326 130.35C242.737 130.565 243.063 130.882 243.306 131.302C243.549 131.722 243.67 132.24 243.67 132.856V137H242.564V132.94C242.564 132.259 242.391 131.764 242.046 131.456C241.71 131.148 241.253 130.994 240.674 130.994C240.011 130.994 239.47 131.209 239.05 131.638C238.639 132.067 238.434 132.707 238.434 133.556V137H237.328ZM248.014 137.196C247.538 137.196 247.104 137.112 246.712 136.944C246.32 136.776 246.012 136.533 245.788 136.216C245.564 135.899 245.452 135.511 245.452 135.054C245.452 134.587 245.564 134.205 245.788 133.906C246.012 133.598 246.32 133.369 246.712 133.22C247.104 133.061 247.543 132.982 248.028 132.982H250.338V132.478C250.338 131.993 250.193 131.61 249.904 131.33C249.624 131.05 249.204 130.91 248.644 130.91C248.093 130.91 247.664 131.045 247.356 131.316C247.048 131.577 246.838 131.932 246.726 132.38L245.69 132.044C245.802 131.661 245.979 131.316 246.222 131.008C246.465 130.691 246.787 130.439 247.188 130.252C247.599 130.056 248.089 129.958 248.658 129.958C249.535 129.958 250.217 130.187 250.702 130.644C251.187 131.092 251.43 131.727 251.43 132.548V135.642C251.43 135.922 251.561 136.062 251.822 136.062H252.452V137H251.486C251.178 137 250.931 136.916 250.744 136.748C250.557 136.571 250.464 136.337 250.464 136.048V135.978H250.296C250.193 136.155 250.053 136.342 249.876 136.538C249.708 136.725 249.475 136.879 249.176 137C248.877 137.131 248.49 137.196 248.014 137.196ZM248.14 136.244C248.793 136.244 249.321 136.053 249.722 135.67C250.133 135.278 250.338 134.732 250.338 134.032V133.878H248.07C247.631 133.878 247.267 133.976 246.978 134.172C246.698 134.359 246.558 134.643 246.558 135.026C246.558 135.409 246.703 135.707 246.992 135.922C247.291 136.137 247.673 136.244 248.14 136.244ZM253.439 133.612V133.416C253.439 132.697 253.584 132.081 253.873 131.568C254.163 131.055 254.555 130.658 255.049 130.378C255.544 130.098 256.085 129.958 256.673 129.958C257.392 129.958 257.943 130.098 258.325 130.378C258.717 130.649 259.007 130.952 259.193 131.288H259.389V130.154H260.439V138.596C260.439 138.969 260.337 139.263 260.131 139.478C259.926 139.693 259.627 139.8 259.235 139.8H254.587V138.82H258.941C259.221 138.82 259.361 138.68 259.361 138.4V135.796H259.165C259.053 136.001 258.895 136.202 258.689 136.398C258.484 136.594 258.218 136.757 257.891 136.888C257.565 137.009 257.159 137.07 256.673 137.07C256.085 137.07 255.544 136.93 255.049 136.65C254.555 136.37 254.163 135.973 253.873 135.46C253.584 134.937 253.439 134.321 253.439 133.612ZM256.967 136.09C257.677 136.09 258.251 135.866 258.689 135.418C259.137 134.97 259.361 134.354 259.361 133.57V133.458C259.361 132.665 259.137 132.049 258.689 131.61C258.251 131.162 257.677 130.938 256.967 130.938C256.267 130.938 255.689 131.162 255.231 131.61C254.783 132.049 254.559 132.665 254.559 133.458V133.57C254.559 134.354 254.783 134.97 255.231 135.418C255.689 135.866 256.267 136.09 256.967 136.09ZM265.894 137.196C265.203 137.196 264.596 137.051 264.074 136.762C263.551 136.463 263.145 136.048 262.856 135.516C262.566 134.984 262.422 134.368 262.422 133.668V133.5C262.422 132.791 262.566 132.17 262.856 131.638C263.145 131.106 263.546 130.695 264.06 130.406C264.573 130.107 265.161 129.958 265.824 129.958C266.468 129.958 267.037 130.098 267.532 130.378C268.026 130.649 268.414 131.041 268.694 131.554C268.974 132.067 269.114 132.669 269.114 133.36V133.864H263.528C263.556 134.601 263.794 135.18 264.242 135.6C264.69 136.011 265.25 136.216 265.922 136.216C266.51 136.216 266.962 136.081 267.28 135.81C267.597 135.539 267.84 135.217 268.008 134.844L268.96 135.306C268.82 135.595 268.624 135.885 268.372 136.174C268.129 136.463 267.807 136.706 267.406 136.902C267.014 137.098 266.51 137.196 265.894 137.196ZM263.542 132.954H267.994C267.956 132.319 267.737 131.825 267.336 131.47C266.944 131.115 266.44 130.938 265.824 130.938C265.198 130.938 264.685 131.115 264.284 131.47C263.882 131.825 263.635 132.319 263.542 132.954ZM273.941 137.196C273.353 137.196 272.812 137.056 272.317 136.776C271.822 136.496 271.43 136.09 271.141 135.558C270.852 135.026 270.707 134.396 270.707 133.668V133.486C270.707 132.758 270.852 132.133 271.141 131.61C271.43 131.078 271.818 130.672 272.303 130.392C272.798 130.103 273.344 129.958 273.941 129.958C274.417 129.958 274.818 130.023 275.145 130.154C275.481 130.275 275.752 130.434 275.957 130.63C276.162 130.817 276.321 131.017 276.433 131.232H276.629V127.2H277.735V137H276.657V135.866H276.461C276.274 136.211 275.985 136.519 275.593 136.79C275.201 137.061 274.65 137.196 273.941 137.196ZM274.235 136.216C274.944 136.216 275.518 135.992 275.957 135.544C276.405 135.087 276.629 134.452 276.629 133.64V133.514C276.629 132.702 276.405 132.072 275.957 131.624C275.518 131.167 274.944 130.938 274.235 130.938C273.535 130.938 272.956 131.167 272.499 131.624C272.051 132.072 271.827 132.702 271.827 133.514V133.64C271.827 134.452 272.051 135.087 272.499 135.544C272.956 135.992 273.535 136.216 274.235 136.216ZM285.748 137.196C285.272 137.196 284.838 137.112 284.446 136.944C284.054 136.776 283.746 136.533 283.522 136.216C283.298 135.899 283.186 135.511 283.186 135.054C283.186 134.587 283.298 134.205 283.522 133.906C283.746 133.598 284.054 133.369 284.446 133.22C284.838 133.061 285.277 132.982 285.762 132.982H288.072V132.478C288.072 131.993 287.928 131.61 287.638 131.33C287.358 131.05 286.938 130.91 286.378 130.91C285.828 130.91 285.398 131.045 285.09 131.316C284.782 131.577 284.572 131.932 284.46 132.38L283.424 132.044C283.536 131.661 283.714 131.316 283.956 131.008C284.199 130.691 284.521 130.439 284.922 130.252C285.333 130.056 285.823 129.958 286.392 129.958C287.27 129.958 287.951 130.187 288.436 130.644C288.922 131.092 289.164 131.727 289.164 132.548V135.642C289.164 135.922 289.295 136.062 289.556 136.062H290.186V137H289.22C288.912 137 288.665 136.916 288.478 136.748C288.292 136.571 288.198 136.337 288.198 136.048V135.978H288.03C287.928 136.155 287.788 136.342 287.61 136.538C287.442 136.725 287.209 136.879 286.91 137C286.612 137.131 286.224 137.196 285.748 137.196ZM285.874 136.244C286.528 136.244 287.055 136.053 287.456 135.67C287.867 135.278 288.072 134.732 288.072 134.032V133.878H285.804C285.366 133.878 285.002 133.976 284.712 134.172C284.432 134.359 284.292 134.643 284.292 135.026C284.292 135.409 284.437 135.707 284.726 135.922C285.025 136.137 285.408 136.244 285.874 136.244ZM294.66 137.196C293.997 137.196 293.4 137.056 292.868 136.776C292.345 136.487 291.93 136.076 291.622 135.544C291.323 135.012 291.174 134.382 291.174 133.654V133.5C291.174 132.763 291.323 132.133 291.622 131.61C291.93 131.078 292.345 130.672 292.868 130.392C293.4 130.103 293.997 129.958 294.66 129.958C295.313 129.958 295.868 130.079 296.326 130.322C296.792 130.565 297.156 130.887 297.418 131.288C297.688 131.689 297.861 132.119 297.936 132.576L296.858 132.8C296.811 132.464 296.699 132.156 296.522 131.876C296.354 131.596 296.116 131.372 295.808 131.204C295.5 131.036 295.122 130.952 294.674 130.952C294.216 130.952 293.806 131.055 293.442 131.26C293.087 131.465 292.802 131.759 292.588 132.142C292.382 132.525 292.28 132.982 292.28 133.514V133.64C292.28 134.172 292.382 134.629 292.588 135.012C292.802 135.395 293.087 135.689 293.442 135.894C293.806 136.099 294.216 136.202 294.674 136.202C295.355 136.202 295.873 136.025 296.228 135.67C296.592 135.315 296.816 134.877 296.9 134.354L297.992 134.592C297.889 135.04 297.702 135.465 297.432 135.866C297.161 136.267 296.792 136.589 296.326 136.832C295.868 137.075 295.313 137.196 294.66 137.196ZM299.877 137V130.154H300.955V130.994H301.151C301.272 130.695 301.459 130.476 301.711 130.336C301.963 130.196 302.294 130.126 302.705 130.126H303.517V131.134H302.635C302.14 131.134 301.739 131.274 301.431 131.554C301.132 131.825 300.983 132.249 300.983 132.828V137H299.877ZM308.072 137.196C307.381 137.196 306.77 137.051 306.238 136.762C305.715 136.473 305.305 136.067 305.006 135.544C304.717 135.012 304.572 134.387 304.572 133.668V133.486C304.572 132.777 304.717 132.156 305.006 131.624C305.305 131.092 305.715 130.681 306.238 130.392C306.77 130.103 307.381 129.958 308.072 129.958C308.763 129.958 309.369 130.103 309.892 130.392C310.424 130.681 310.835 131.092 311.124 131.624C311.423 132.156 311.572 132.777 311.572 133.486V133.668C311.572 134.387 311.423 135.012 311.124 135.544C310.835 136.067 310.424 136.473 309.892 136.762C309.369 137.051 308.763 137.196 308.072 137.196ZM308.072 136.202C308.8 136.202 309.379 135.973 309.808 135.516C310.247 135.049 310.466 134.424 310.466 133.64V133.514C310.466 132.73 310.247 132.109 309.808 131.652C309.379 131.185 308.8 130.952 308.072 130.952C307.353 130.952 306.775 131.185 306.336 131.652C305.897 132.109 305.678 132.73 305.678 133.514V133.64C305.678 134.424 305.897 135.049 306.336 135.516C306.775 135.973 307.353 136.202 308.072 136.202ZM316.32 137.196C315.471 137.196 314.752 137 314.164 136.608C313.586 136.216 313.236 135.595 313.114 134.746L314.164 134.508C314.239 134.956 314.379 135.311 314.584 135.572C314.79 135.824 315.042 136.006 315.34 136.118C315.648 136.221 315.975 136.272 316.32 136.272C316.834 136.272 317.24 136.169 317.538 135.964C317.837 135.759 317.986 135.483 317.986 135.138C317.986 134.783 317.842 134.536 317.552 134.396C317.272 134.247 316.885 134.125 316.39 134.032L315.816 133.934C315.378 133.859 314.976 133.743 314.612 133.584C314.248 133.425 313.959 133.211 313.744 132.94C313.53 132.669 313.422 132.329 313.422 131.918C313.422 131.302 313.66 130.821 314.136 130.476C314.612 130.131 315.242 129.958 316.026 129.958C316.801 129.958 317.426 130.135 317.902 130.49C318.388 130.835 318.7 131.325 318.84 131.96L317.804 132.226C317.72 131.731 317.52 131.386 317.202 131.19C316.885 130.985 316.493 130.882 316.026 130.882C315.56 130.882 315.191 130.971 314.92 131.148C314.65 131.316 314.514 131.568 314.514 131.904C314.514 132.231 314.64 132.473 314.892 132.632C315.154 132.781 315.499 132.893 315.928 132.968L316.502 133.066C316.988 133.15 317.422 133.267 317.804 133.416C318.196 133.556 318.504 133.761 318.728 134.032C318.962 134.303 319.078 134.657 319.078 135.096C319.078 135.768 318.826 136.286 318.322 136.65C317.828 137.014 317.16 137.196 316.32 137.196ZM323.703 137.196C322.854 137.196 322.135 137 321.547 136.608C320.969 136.216 320.619 135.595 320.497 134.746L321.547 134.508C321.622 134.956 321.762 135.311 321.967 135.572C322.173 135.824 322.425 136.006 322.723 136.118C323.031 136.221 323.358 136.272 323.703 136.272C324.217 136.272 324.623 136.169 324.921 135.964C325.22 135.759 325.369 135.483 325.369 135.138C325.369 134.783 325.225 134.536 324.935 134.396C324.655 134.247 324.268 134.125 323.773 134.032L323.199 133.934C322.761 133.859 322.359 133.743 321.995 133.584C321.631 133.425 321.342 133.211 321.127 132.94C320.913 132.669 320.805 132.329 320.805 131.918C320.805 131.302 321.043 130.821 321.519 130.476C321.995 130.131 322.625 129.958 323.409 129.958C324.184 129.958 324.809 130.135 325.285 130.49C325.771 130.835 326.083 131.325 326.223 131.96L325.187 132.226C325.103 131.731 324.903 131.386 324.585 131.19C324.268 130.985 323.876 130.882 323.409 130.882C322.943 130.882 322.574 130.971 322.303 131.148C322.033 131.316 321.897 131.568 321.897 131.904C321.897 132.231 322.023 132.473 322.275 132.632C322.537 132.781 322.882 132.893 323.311 132.968L323.885 133.066C324.371 133.15 324.805 133.267 325.187 133.416C325.579 133.556 325.887 133.761 326.111 134.032C326.345 134.303 326.461 134.657 326.461 135.096C326.461 135.768 326.209 136.286 325.705 136.65C325.211 137.014 324.543 137.196 323.703 137.196ZM331.504 137V135.978C331.504 135.278 331.625 134.718 331.868 134.298C332.12 133.878 332.465 133.542 332.904 133.29C333.352 133.029 333.884 132.805 334.5 132.618L335.27 132.38C335.69 132.249 336.058 132.091 336.376 131.904C336.693 131.708 336.94 131.465 337.118 131.176C337.295 130.877 337.384 130.513 337.384 130.084V130.028C337.384 129.412 337.169 128.927 336.74 128.572C336.31 128.208 335.76 128.026 335.088 128.026C334.378 128.026 333.8 128.217 333.352 128.6C332.904 128.973 332.68 129.543 332.68 130.308V130.504H331.56V130.322C331.56 129.613 331.714 129.011 332.022 128.516C332.33 128.021 332.75 127.648 333.282 127.396C333.814 127.135 334.416 127.004 335.088 127.004C335.76 127.004 336.352 127.13 336.866 127.382C337.388 127.634 337.794 127.984 338.084 128.432C338.373 128.88 338.518 129.403 338.518 130V130.126C338.518 130.761 338.392 131.288 338.14 131.708C337.888 132.119 337.538 132.455 337.09 132.716C336.651 132.977 336.133 133.201 335.536 133.388L334.78 133.626C334.304 133.775 333.907 133.934 333.59 134.102C333.282 134.261 333.048 134.466 332.89 134.718C332.731 134.97 332.652 135.311 332.652 135.74V135.978H338.434V137H331.504ZM343.677 137.196C342.567 137.196 341.68 136.869 341.017 136.216C340.364 135.553 340.037 134.564 340.037 133.248V130.952C340.037 129.645 340.364 128.661 341.017 127.998C341.68 127.335 342.567 127.004 343.677 127.004C344.797 127.004 345.684 127.335 346.337 127.998C347 128.661 347.331 129.645 347.331 130.952V133.248C347.331 134.564 347 135.553 346.337 136.216C345.684 136.869 344.797 137.196 343.677 137.196ZM343.677 136.174C344.517 136.174 345.147 135.922 345.567 135.418C345.987 134.914 346.197 134.209 346.197 133.304V130.882C346.197 129.977 345.983 129.277 345.553 128.782C345.124 128.278 344.499 128.026 343.677 128.026C342.856 128.026 342.231 128.278 341.801 128.782C341.381 129.286 341.171 129.986 341.171 130.882V133.304C341.171 134.219 341.381 134.928 341.801 135.432C342.221 135.927 342.847 136.174 343.677 136.174ZM352.646 137.196C351.535 137.196 350.649 136.869 349.986 136.216C349.333 135.553 349.006 134.564 349.006 133.248V130.952C349.006 129.645 349.333 128.661 349.986 127.998C350.649 127.335 351.535 127.004 352.646 127.004C353.766 127.004 354.653 127.335 355.306 127.998C355.969 128.661 356.3 129.645 356.3 130.952V133.248C356.3 134.564 355.969 135.553 355.306 136.216C354.653 136.869 353.766 137.196 352.646 137.196ZM352.646 136.174C353.486 136.174 354.116 135.922 354.536 135.418C354.956 134.914 355.166 134.209 355.166 133.304V130.882C355.166 129.977 354.951 129.277 354.522 128.782C354.093 128.278 353.467 128.026 352.646 128.026C351.825 128.026 351.199 128.278 350.77 128.782C350.35 129.286 350.14 129.986 350.14 130.882V133.304C350.14 134.219 350.35 134.928 350.77 135.432C351.19 135.927 351.815 136.174 352.646 136.174ZM360.943 135.04V132.604H358.535V131.596H360.943V129.16H362.007V131.596H364.415V132.604H362.007V135.04H360.943ZM373.724 137.196C373.061 137.196 372.464 137.056 371.932 136.776C371.409 136.487 370.994 136.076 370.686 135.544C370.387 135.012 370.238 134.382 370.238 133.654V133.5C370.238 132.763 370.387 132.133 370.686 131.61C370.994 131.078 371.409 130.672 371.932 130.392C372.464 130.103 373.061 129.958 373.724 129.958C374.377 129.958 374.933 130.079 375.39 130.322C375.857 130.565 376.221 130.887 376.482 131.288C376.753 131.689 376.925 132.119 377 132.576L375.922 132.8C375.875 132.464 375.763 132.156 375.586 131.876C375.418 131.596 375.18 131.372 374.872 131.204C374.564 131.036 374.186 130.952 373.738 130.952C373.281 130.952 372.87 131.055 372.506 131.26C372.151 131.465 371.867 131.759 371.652 132.142C371.447 132.525 371.344 132.982 371.344 133.514V133.64C371.344 134.172 371.447 134.629 371.652 135.012C371.867 135.395 372.151 135.689 372.506 135.894C372.87 136.099 373.281 136.202 373.738 136.202C374.419 136.202 374.937 136.025 375.292 135.67C375.656 135.315 375.88 134.877 375.964 134.354L377.056 134.592C376.953 135.04 376.767 135.465 376.496 135.866C376.225 136.267 375.857 136.589 375.39 136.832C374.933 137.075 374.377 137.196 373.724 137.196ZM381.041 137.196C380.565 137.196 380.131 137.112 379.739 136.944C379.347 136.776 379.039 136.533 378.815 136.216C378.591 135.899 378.479 135.511 378.479 135.054C378.479 134.587 378.591 134.205 378.815 133.906C379.039 133.598 379.347 133.369 379.739 133.22C380.131 133.061 380.57 132.982 381.055 132.982H383.365V132.478C383.365 131.993 383.221 131.61 382.931 131.33C382.651 131.05 382.231 130.91 381.671 130.91C381.121 130.91 380.691 131.045 380.383 131.316C380.075 131.577 379.865 131.932 379.753 132.38L378.717 132.044C378.829 131.661 379.007 131.316 379.249 131.008C379.492 130.691 379.814 130.439 380.215 130.252C380.626 130.056 381.116 129.958 381.685 129.958C382.563 129.958 383.244 130.187 383.729 130.644C384.215 131.092 384.457 131.727 384.457 132.548V135.642C384.457 135.922 384.588 136.062 384.849 136.062H385.479V137H384.513C384.205 137 383.958 136.916 383.771 136.748C383.585 136.571 383.491 136.337 383.491 136.048V135.978H383.323C383.221 136.155 383.081 136.342 382.903 136.538C382.735 136.725 382.502 136.879 382.203 137C381.905 137.131 381.517 137.196 381.041 137.196ZM381.167 136.244C381.821 136.244 382.348 136.053 382.749 135.67C383.16 135.278 383.365 134.732 383.365 134.032V133.878H381.097C380.659 133.878 380.295 133.976 380.005 134.172C379.725 134.359 379.585 134.643 379.585 135.026C379.585 135.409 379.73 135.707 380.019 135.922C380.318 136.137 380.701 136.244 381.167 136.244ZM386.994 137V130.154H388.072V131.008H388.268C388.399 130.765 388.613 130.541 388.912 130.336C389.211 130.131 389.631 130.028 390.172 130.028C390.704 130.028 391.133 130.145 391.46 130.378C391.796 130.611 392.039 130.896 392.188 131.232H392.384C392.543 130.896 392.781 130.611 393.098 130.378C393.425 130.145 393.877 130.028 394.456 130.028C394.913 130.028 395.315 130.121 395.66 130.308C396.005 130.495 396.276 130.765 396.472 131.12C396.677 131.465 396.78 131.881 396.78 132.366V137H395.674V132.464C395.674 132.007 395.539 131.647 395.268 131.386C395.007 131.115 394.638 130.98 394.162 130.98C393.658 130.98 393.243 131.143 392.916 131.47C392.599 131.797 392.44 132.268 392.44 132.884V137H391.334V132.464C391.334 132.007 391.199 131.647 390.928 131.386C390.667 131.115 390.298 130.98 389.822 130.98C389.318 130.98 388.903 131.143 388.576 131.47C388.259 131.797 388.1 132.268 388.1 132.884V137H386.994ZM399.039 139.8V130.154H400.117V131.288H400.313C400.49 130.943 400.775 130.635 401.167 130.364C401.568 130.093 402.124 129.958 402.833 129.958C403.421 129.958 403.958 130.103 404.443 130.392C404.938 130.672 405.33 131.073 405.619 131.596C405.918 132.119 406.067 132.749 406.067 133.486V133.668C406.067 134.396 405.922 135.026 405.633 135.558C405.344 136.09 404.952 136.496 404.457 136.776C403.972 137.056 403.43 137.196 402.833 137.196C402.357 137.196 401.951 137.131 401.615 137C401.288 136.879 401.022 136.72 400.817 136.524C400.612 136.328 400.453 136.127 400.341 135.922H400.145V139.8H399.039ZM402.539 136.216C403.248 136.216 403.822 135.992 404.261 135.544C404.709 135.087 404.933 134.452 404.933 133.64V133.514C404.933 132.702 404.709 132.072 404.261 131.624C403.822 131.167 403.248 130.938 402.539 130.938C401.839 130.938 401.26 131.167 400.803 131.624C400.355 132.072 400.131 132.702 400.131 133.514V133.64C400.131 134.452 400.355 135.087 400.803 135.544C401.26 135.992 401.839 136.216 402.539 136.216ZM410.149 137.196C409.673 137.196 409.239 137.112 408.847 136.944C408.455 136.776 408.147 136.533 407.923 136.216C407.699 135.899 407.587 135.511 407.587 135.054C407.587 134.587 407.699 134.205 407.923 133.906C408.147 133.598 408.455 133.369 408.847 133.22C409.239 133.061 409.677 132.982 410.163 132.982H412.473V132.478C412.473 131.993 412.328 131.61 412.039 131.33C411.759 131.05 411.339 130.91 410.779 130.91C410.228 130.91 409.799 131.045 409.491 131.316C409.183 131.577 408.973 131.932 408.861 132.38L407.825 132.044C407.937 131.661 408.114 131.316 408.357 131.008C408.599 130.691 408.921 130.439 409.323 130.252C409.733 130.056 410.223 129.958 410.793 129.958C411.67 129.958 412.351 130.187 412.837 130.644C413.322 131.092 413.565 131.727 413.565 132.548V135.642C413.565 135.922 413.695 136.062 413.957 136.062H414.587V137H413.621C413.313 137 413.065 136.916 412.879 136.748C412.692 136.571 412.599 136.337 412.599 136.048V135.978H412.431C412.328 136.155 412.188 136.342 412.011 136.538C411.843 136.725 411.609 136.879 411.311 137C411.012 137.131 410.625 137.196 410.149 137.196ZM410.275 136.244C410.928 136.244 411.455 136.053 411.857 135.67C412.267 135.278 412.473 134.732 412.473 134.032V133.878H410.205C409.766 133.878 409.402 133.976 409.113 134.172C408.833 134.359 408.693 134.643 408.693 135.026C408.693 135.409 408.837 135.707 409.127 135.922C409.425 136.137 409.808 136.244 410.275 136.244ZM416.101 137V130.154H417.207V137H416.101ZM416.661 129.09C416.419 129.09 416.213 129.011 416.045 128.852C415.887 128.693 415.807 128.493 415.807 128.25C415.807 127.998 415.887 127.793 416.045 127.634C416.213 127.475 416.419 127.396 416.661 127.396C416.904 127.396 417.105 127.475 417.263 127.634C417.422 127.793 417.501 127.998 417.501 128.25C417.501 128.493 417.422 128.693 417.263 128.852C417.105 129.011 416.904 129.09 416.661 129.09ZM419.197 133.612V133.416C419.197 132.697 419.342 132.081 419.631 131.568C419.92 131.055 420.312 130.658 420.807 130.378C421.302 130.098 421.843 129.958 422.431 129.958C423.15 129.958 423.7 130.098 424.083 130.378C424.475 130.649 424.764 130.952 424.951 131.288H425.147V130.154H426.197V138.596C426.197 138.969 426.094 139.263 425.889 139.478C425.684 139.693 425.385 139.8 424.993 139.8H420.345V138.82H424.699C424.979 138.82 425.119 138.68 425.119 138.4V135.796H424.923C424.811 136.001 424.652 136.202 424.447 136.398C424.242 136.594 423.976 136.757 423.649 136.888C423.322 137.009 422.916 137.07 422.431 137.07C421.843 137.07 421.302 136.93 420.807 136.65C420.312 136.37 419.92 135.973 419.631 135.46C419.342 134.937 419.197 134.321 419.197 133.612ZM422.725 136.09C423.434 136.09 424.008 135.866 424.447 135.418C424.895 134.97 425.119 134.354 425.119 133.57V133.458C425.119 132.665 424.895 132.049 424.447 131.61C424.008 131.162 423.434 130.938 422.725 130.938C422.025 130.938 421.446 131.162 420.989 131.61C420.541 132.049 420.317 132.665 420.317 133.458V133.57C420.317 134.354 420.541 134.97 420.989 135.418C421.446 135.866 422.025 136.09 422.725 136.09ZM428.516 137V130.154H429.594V131.316H429.79C429.939 130.989 430.191 130.695 430.546 130.434C430.91 130.163 431.442 130.028 432.142 130.028C432.655 130.028 433.112 130.135 433.514 130.35C433.924 130.565 434.251 130.882 434.494 131.302C434.736 131.722 434.858 132.24 434.858 132.856V137H433.752V132.94C433.752 132.259 433.579 131.764 433.234 131.456C432.898 131.148 432.44 130.994 431.862 130.994C431.199 130.994 430.658 131.209 430.238 131.638C429.827 132.067 429.622 132.707 429.622 133.556V137H428.516ZM439.859 137.196C439.01 137.196 438.291 137 437.703 136.608C437.125 136.216 436.775 135.595 436.653 134.746L437.703 134.508C437.778 134.956 437.918 135.311 438.123 135.572C438.329 135.824 438.581 136.006 438.879 136.118C439.187 136.221 439.514 136.272 439.859 136.272C440.373 136.272 440.779 136.169 441.077 135.964C441.376 135.759 441.525 135.483 441.525 135.138C441.525 134.783 441.381 134.536 441.091 134.396C440.811 134.247 440.424 134.125 439.929 134.032L439.355 133.934C438.917 133.859 438.515 133.743 438.151 133.584C437.787 133.425 437.498 133.211 437.283 132.94C437.069 132.669 436.961 132.329 436.961 131.918C436.961 131.302 437.199 130.821 437.675 130.476C438.151 130.131 438.781 129.958 439.565 129.958C440.34 129.958 440.965 130.135 441.441 130.49C441.927 130.835 442.239 131.325 442.379 131.96L441.343 132.226C441.259 131.731 441.059 131.386 440.741 131.19C440.424 130.985 440.032 130.882 439.565 130.882C439.099 130.882 438.73 130.971 438.459 131.148C438.189 131.316 438.053 131.568 438.053 131.904C438.053 132.231 438.179 132.473 438.431 132.632C438.693 132.781 439.038 132.893 439.467 132.968L440.041 133.066C440.527 133.15 440.961 133.267 441.343 133.416C441.735 133.556 442.043 133.761 442.267 134.032C442.501 134.303 442.617 134.657 442.617 135.096C442.617 135.768 442.365 136.286 441.861 136.65C441.367 137.014 440.699 137.196 439.859 137.196Z" fill="#424242"/>
</g>
<g filter="url(#filter1_d_1505_2883)">
<rect x="38" y="169.229" width="260" height="160" rx="24" fill="#0077FF"/>
<rect x="68" y="206.729" width="48" height="48" rx="24" fill="#DBFF00"/>
<path d="M92 240.729C97.5228 240.729 102 236.252 102 230.729C102 225.207 97.5228 220.729 92 220.729C86.4772 220.729 82 225.207 82 230.729C82 236.252 86.4772 240.729 92 240.729Z" stroke="black" stroke-width="2" stroke-linecap="round" stroke-linejoin="round"/>
<path d="M92 236.729C95.3137 236.729 98 234.043 98 230.729C98 227.416 95.3137 224.729 92 224.729C88.6863 224.729 86 227.416 86 230.729C86 234.043 88.6863 236.729 92 236.729Z" stroke="black" stroke-width="2" stroke-linecap="round" stroke-linejoin="round"/>
<path d="M92 232.729C93.1046 232.729 94 231.834 94 230.729C94 229.625 93.1046 228.729 92 228.729C90.8954 228.729 90 229.625 90 230.729C90 231.834 90.8954 232.729 92 232.729Z" stroke="black" stroke-width="2" stroke-linecap="round" stroke-linejoin="round"/>
<path d="M136.873 213.229H135.602L134.562 210.481H130.406L129.429 213.229H128.15L131.91 203.427H133.1L136.873 213.229ZM134.187 209.449L132.648 205.272C132.598 205.136 132.548 204.917 132.498 204.616H132.471C132.425 204.894 132.373 205.113 132.313 205.272L130.789 209.449H134.187ZM143.675 206.229L140.886 213.229H139.785L137.133 206.229H138.363L140.141 211.315C140.273 211.689 140.355 212.015 140.387 212.293H140.414C140.46 211.942 140.533 211.625 140.633 211.343L142.492 206.229H143.675ZM150.859 212.669C150.859 215.239 149.629 216.524 147.168 216.524C146.302 216.524 145.546 216.36 144.898 216.032V214.911C145.687 215.349 146.439 215.567 147.154 215.567C148.877 215.567 149.738 214.651 149.738 212.819V212.054H149.711C149.178 212.947 148.376 213.394 147.305 213.394C146.434 213.394 145.732 213.084 145.199 212.464C144.671 211.84 144.406 211.003 144.406 209.955C144.406 208.766 144.691 207.82 145.261 207.118C145.835 206.416 146.619 206.065 147.612 206.065C148.556 206.065 149.255 206.444 149.711 207.2H149.738V206.229H150.859V212.669ZM149.738 210.064V209.032C149.738 208.476 149.549 208 149.171 207.604C148.797 207.207 148.33 207.009 147.77 207.009C147.077 207.009 146.535 207.262 146.143 207.768C145.751 208.269 145.555 208.973 145.555 209.88C145.555 210.659 145.742 211.284 146.115 211.753C146.493 212.218 146.993 212.45 147.612 212.45C148.241 212.45 148.752 212.227 149.144 211.78C149.54 211.334 149.738 210.762 149.738 210.064ZM163.793 212.819C163.068 213.202 162.166 213.394 161.086 213.394C159.691 213.394 158.575 212.945 157.736 212.047C156.898 211.149 156.479 209.971 156.479 208.513C156.479 206.945 156.95 205.678 157.894 204.712C158.837 203.746 160.033 203.263 161.482 203.263C162.412 203.263 163.182 203.397 163.793 203.666V204.89C163.091 204.498 162.316 204.302 161.469 204.302C160.343 204.302 159.429 204.678 158.728 205.43C158.03 206.182 157.682 207.187 157.682 208.444C157.682 209.638 158.007 210.591 158.659 211.302C159.315 212.008 160.174 212.361 161.236 212.361C162.221 212.361 163.073 212.143 163.793 211.705V212.819ZM166.938 209.524V213.229H165.789V203.427H168.482C169.531 203.427 170.342 203.682 170.916 204.192C171.495 204.703 171.784 205.423 171.784 206.353C171.784 207.282 171.463 208.043 170.82 208.636C170.182 209.228 169.319 209.524 168.229 209.524H166.938ZM166.938 204.466V208.485H168.141C168.934 208.485 169.537 208.305 169.952 207.945C170.371 207.581 170.581 207.068 170.581 206.407C170.581 205.113 169.815 204.466 168.284 204.466H166.938ZM181.225 213.229H179.953L178.914 210.481H174.758L173.78 213.229H172.502L176.262 203.427H177.451L181.225 213.229ZM178.538 209.449L177 205.272C176.95 205.136 176.9 204.917 176.85 204.616H176.822C176.777 204.894 176.724 205.113 176.665 205.272L175.141 209.449H178.538ZM193.188 212.819C192.463 213.202 191.561 213.394 190.48 213.394C189.086 213.394 187.969 212.945 187.131 212.047C186.292 211.149 185.873 209.971 185.873 208.513C185.873 206.945 186.345 205.678 187.288 204.712C188.231 203.746 189.428 203.263 190.877 203.263C191.807 203.263 192.577 203.397 193.188 203.666V204.89C192.486 204.498 191.711 204.302 190.863 204.302C189.738 204.302 188.824 204.678 188.122 205.43C187.425 206.182 187.076 207.187 187.076 208.444C187.076 209.638 187.402 210.591 188.054 211.302C188.71 212.008 189.569 212.361 190.631 212.361C191.615 212.361 192.467 212.143 193.188 211.705V212.819ZM200.693 213.229H199.572V212.122H199.545C199.08 212.97 198.36 213.394 197.385 213.394C195.717 213.394 194.883 212.4 194.883 210.413V206.229H195.997V210.235C195.997 211.712 196.562 212.45 197.692 212.45C198.239 212.45 198.688 212.25 199.039 211.849C199.395 211.443 199.572 210.914 199.572 210.263V206.229H200.693V213.229ZM206.21 213.161C205.946 213.307 205.597 213.38 205.164 213.38C203.938 213.38 203.325 212.696 203.325 211.329V207.187H202.122V206.229H203.325V204.521L204.446 204.158V206.229H206.21V207.187H204.446V211.131C204.446 211.6 204.526 211.935 204.686 212.136C204.845 212.336 205.109 212.437 205.479 212.437C205.761 212.437 206.005 212.359 206.21 212.204V213.161Z" fill="white" fill-opacity="0.8"/>
<path d="M136.512 249.621C135.037 249.621 133.731 249.36 132.592 248.837C131.453 248.315 130.557 247.568 129.904 246.597C129.269 245.608 128.952 244.441 128.952 243.097V242.593H132.536V242.985C132.536 244.031 132.9 244.871 133.628 245.505C134.356 246.121 135.317 246.429 136.512 246.429C137.725 246.429 138.659 246.14 139.312 245.561C139.984 244.983 140.32 244.255 140.32 243.377V243.097C140.32 242.5 140.171 242.015 139.872 241.641C139.573 241.268 139.172 240.997 138.668 240.829C138.164 240.643 137.595 240.549 136.96 240.549H133.04V236.629L139.368 233.269V232.821H129.456V229.629H143.344V234.389L137.436 237.525V237.973H138.472C139.349 237.973 140.199 238.151 141.02 238.505C141.86 238.86 142.551 239.411 143.092 240.157C143.633 240.885 143.904 241.837 143.904 243.013V243.349C143.904 244.619 143.596 245.729 142.98 246.681C142.364 247.615 141.496 248.343 140.376 248.865C139.275 249.369 137.987 249.621 136.512 249.621ZM153.519 249.621C151.988 249.621 150.663 249.351 149.543 248.809C148.442 248.268 147.592 247.503 146.995 246.513C146.398 245.524 146.099 244.376 146.099 243.069V242.789H149.739V243.041C149.739 243.975 150.047 244.777 150.663 245.449C151.298 246.103 152.231 246.429 153.463 246.429C154.695 246.429 155.638 246.103 156.291 245.449C156.963 244.777 157.299 243.909 157.299 242.845V242.565C157.299 241.52 156.963 240.689 156.291 240.073C155.638 239.457 154.816 239.149 153.827 239.149C153.286 239.149 152.838 239.224 152.483 239.373C152.128 239.523 151.839 239.709 151.615 239.933C151.391 240.157 151.204 240.381 151.055 240.605H146.715V229.629H160.099V232.877H150.299V237.665H150.803C150.99 237.423 151.242 237.189 151.559 236.965C151.876 236.741 152.287 236.555 152.791 236.405C153.295 236.256 153.892 236.181 154.583 236.181C155.74 236.181 156.795 236.424 157.747 236.909C158.699 237.395 159.455 238.113 160.015 239.065C160.594 239.999 160.883 241.156 160.883 242.537V242.873C160.883 244.255 160.584 245.449 159.987 246.457C159.408 247.465 158.568 248.249 157.467 248.809C156.366 249.351 155.05 249.621 153.519 249.621ZM165.968 249.593L163.84 247.885L178.904 229.265L181.032 230.973L165.968 249.593ZM177.784 249.509C176.366 249.509 175.255 249.136 174.452 248.389C173.65 247.624 173.248 246.588 173.248 245.281V245.085C173.248 243.76 173.65 242.724 174.452 241.977C175.255 241.212 176.366 240.829 177.784 240.829C179.166 240.829 180.267 241.212 181.088 241.977C181.91 242.724 182.32 243.76 182.32 245.085V245.281C182.32 246.588 181.919 247.624 181.116 248.389C180.314 249.136 179.203 249.509 177.784 249.509ZM177.784 247.213C178.326 247.213 178.746 247.045 179.044 246.709C179.362 246.373 179.52 245.935 179.52 245.393V244.945C179.52 244.404 179.362 243.965 179.044 243.629C178.746 243.293 178.326 243.125 177.784 243.125C177.243 243.125 176.814 243.293 176.496 243.629C176.198 243.965 176.048 244.404 176.048 244.945V245.393C176.048 245.935 176.198 246.373 176.496 246.709C176.814 247.045 177.243 247.213 177.784 247.213ZM167.088 238.029C165.67 238.029 164.559 237.656 163.756 236.909C162.954 236.144 162.552 235.108 162.552 233.801V233.605C162.552 232.28 162.954 231.244 163.756 230.497C164.559 229.732 165.67 229.349 167.088 229.349C168.47 229.349 169.571 229.732 170.392 230.497C171.214 231.244 171.624 232.28 171.624 233.605V233.801C171.624 235.108 171.223 236.144 170.42 236.909C169.618 237.656 168.507 238.029 167.088 238.029ZM167.088 235.733C167.63 235.733 168.05 235.565 168.348 235.229C168.666 234.893 168.824 234.455 168.824 233.913V233.465C168.824 232.924 168.666 232.485 168.348 232.149C168.05 231.813 167.63 231.645 167.088 231.645C166.547 231.645 166.118 231.813 165.8 232.149C165.502 232.485 165.352 232.924 165.352 233.465V233.913C165.352 234.455 165.502 234.893 165.8 235.229C166.118 235.565 166.547 235.733 167.088 235.733Z" fill="#DBFF00"/>
<path d="M69.12 291.229V281.429H73.082C73.6887 281.429 74.2207 281.537 74.678 281.751C75.1447 281.957 75.5087 282.255 75.77 282.647C76.0313 283.03 76.162 283.492 76.162 284.033V284.187C76.162 284.831 76.008 285.34 75.7 285.713C75.392 286.087 75.028 286.339 74.608 286.469V286.665C74.944 286.675 75.2193 286.787 75.434 287.001C75.658 287.207 75.77 287.519 75.77 287.939V291.229H74.608V288.079C74.608 287.799 74.5287 287.585 74.37 287.435C74.2207 287.286 73.992 287.211 73.684 287.211H70.296V291.229H69.12ZM70.296 286.147H72.97C73.614 286.147 74.1087 285.993 74.454 285.685C74.8087 285.368 74.986 284.929 74.986 284.369V284.271C74.986 283.711 74.8133 283.277 74.468 282.969C74.1227 282.652 73.6233 282.493 72.97 282.493H70.296V286.147ZM81.13 291.425C80.4394 291.425 79.8327 291.281 79.31 290.991C78.7874 290.693 78.3814 290.277 78.092 289.745C77.8027 289.213 77.658 288.597 77.658 287.897V287.729C77.658 287.02 77.8027 286.399 78.092 285.867C78.3814 285.335 78.7827 284.925 79.296 284.635C79.8094 284.337 80.3974 284.187 81.06 284.187C81.704 284.187 82.2734 284.327 82.768 284.607C83.2627 284.878 83.65 285.27 83.93 285.783C84.21 286.297 84.35 286.899 84.35 287.589V288.093H78.764C78.792 288.831 79.03 289.409 79.478 289.829C79.926 290.24 80.486 290.445 81.158 290.445C81.746 290.445 82.1987 290.31 82.516 290.039C82.8334 289.769 83.076 289.447 83.244 289.073L84.196 289.535C84.056 289.825 83.86 290.114 83.608 290.403C83.3654 290.693 83.0434 290.935 82.642 291.131C82.25 291.327 81.746 291.425 81.13 291.425ZM78.778 287.183H83.23C83.1927 286.549 82.9734 286.054 82.572 285.699C82.18 285.345 81.676 285.167 81.06 285.167C80.4347 285.167 79.9214 285.345 79.52 285.699C79.1187 286.054 78.8714 286.549 78.778 287.183ZM88.3792 291.425C87.9032 291.425 87.4692 291.341 87.0772 291.173C86.6852 291.005 86.3772 290.763 86.1532 290.445C85.9292 290.128 85.8172 289.741 85.8172 289.283C85.8172 288.817 85.9292 288.434 86.1532 288.135C86.3772 287.827 86.6852 287.599 87.0772 287.449C87.4692 287.291 87.9079 287.211 88.3932 287.211H90.7032V286.707C90.7032 286.222 90.5585 285.839 90.2692 285.559C89.9892 285.279 89.5692 285.139 89.0092 285.139C88.4585 285.139 88.0292 285.275 87.7212 285.545C87.4132 285.807 87.2032 286.161 87.0912 286.609L86.0552 286.273C86.1672 285.891 86.3445 285.545 86.5872 285.237C86.8299 284.92 87.1519 284.668 87.5532 284.481C87.9639 284.285 88.4539 284.187 89.0232 284.187C89.9005 284.187 90.5819 284.416 91.0672 284.873C91.5525 285.321 91.7952 285.956 91.7952 286.777V289.871C91.7952 290.151 91.9259 290.291 92.1872 290.291H92.8172V291.229H91.8512C91.5432 291.229 91.2959 291.145 91.1092 290.977C90.9225 290.8 90.8292 290.567 90.8292 290.277V290.207H90.6612C90.5585 290.385 90.4185 290.571 90.2412 290.767C90.0732 290.954 89.8399 291.108 89.5412 291.229C89.2425 291.36 88.8552 291.425 88.3792 291.425ZM88.5052 290.473C89.1585 290.473 89.6859 290.282 90.0872 289.899C90.4979 289.507 90.7032 288.961 90.7032 288.261V288.107H88.4352C87.9965 288.107 87.6325 288.205 87.3432 288.401C87.0632 288.588 86.9232 288.873 86.9232 289.255C86.9232 289.638 87.0679 289.937 87.3572 290.151C87.6559 290.366 88.0385 290.473 88.5052 290.473ZM94.3319 291.229V281.429H95.4379V291.229H94.3319ZM104.509 291.425C103.847 291.425 103.249 291.285 102.717 291.005C102.195 290.716 101.779 290.305 101.471 289.773C101.173 289.241 101.023 288.611 101.023 287.883V287.729C101.023 286.992 101.173 286.362 101.471 285.839C101.779 285.307 102.195 284.901 102.717 284.621C103.249 284.332 103.847 284.187 104.509 284.187C105.163 284.187 105.718 284.309 106.175 284.551C106.642 284.794 107.006 285.116 107.267 285.517C107.538 285.919 107.711 286.348 107.785 286.805L106.707 287.029C106.661 286.693 106.549 286.385 106.371 286.105C106.203 285.825 105.965 285.601 105.657 285.433C105.349 285.265 104.971 285.181 104.523 285.181C104.066 285.181 103.655 285.284 103.291 285.489C102.937 285.695 102.652 285.989 102.437 286.371C102.232 286.754 102.129 287.211 102.129 287.743V287.869C102.129 288.401 102.232 288.859 102.437 289.241C102.652 289.624 102.937 289.918 103.291 290.123C103.655 290.329 104.066 290.431 104.523 290.431C105.205 290.431 105.723 290.254 106.077 289.899C106.441 289.545 106.665 289.106 106.749 288.583L107.841 288.821C107.739 289.269 107.552 289.694 107.281 290.095C107.011 290.497 106.642 290.819 106.175 291.061C105.718 291.304 105.163 291.425 104.509 291.425ZM112.89 291.425C112.2 291.425 111.588 291.281 111.056 290.991C110.534 290.702 110.123 290.296 109.824 289.773C109.535 289.241 109.39 288.616 109.39 287.897V287.715C109.39 287.006 109.535 286.385 109.824 285.853C110.123 285.321 110.534 284.911 111.056 284.621C111.588 284.332 112.2 284.187 112.89 284.187C113.581 284.187 114.188 284.332 114.71 284.621C115.242 284.911 115.653 285.321 115.942 285.853C116.241 286.385 116.39 287.006 116.39 287.715V287.897C116.39 288.616 116.241 289.241 115.942 289.773C115.653 290.296 115.242 290.702 114.71 290.991C114.188 291.281 113.581 291.425 112.89 291.425ZM112.89 290.431C113.618 290.431 114.197 290.203 114.626 289.745C115.065 289.279 115.284 288.653 115.284 287.869V287.743C115.284 286.959 115.065 286.339 114.626 285.881C114.197 285.415 113.618 285.181 112.89 285.181C112.172 285.181 111.593 285.415 111.154 285.881C110.716 286.339 110.496 286.959 110.496 287.743V287.869C110.496 288.653 110.716 289.279 111.154 289.745C111.593 290.203 112.172 290.431 112.89 290.431ZM121.139 291.425C120.289 291.425 119.571 291.229 118.983 290.837C118.404 290.445 118.054 289.825 117.933 288.975L118.983 288.737C119.057 289.185 119.197 289.54 119.403 289.801C119.608 290.053 119.86 290.235 120.159 290.347C120.467 290.45 120.793 290.501 121.139 290.501C121.652 290.501 122.058 290.399 122.357 290.193C122.655 289.988 122.805 289.713 122.805 289.367C122.805 289.013 122.66 288.765 122.371 288.625C122.091 288.476 121.703 288.355 121.209 288.261L120.635 288.163C120.196 288.089 119.795 287.972 119.431 287.813C119.067 287.655 118.777 287.44 118.563 287.169C118.348 286.899 118.241 286.558 118.241 286.147C118.241 285.531 118.479 285.051 118.955 284.705C119.431 284.36 120.061 284.187 120.845 284.187C121.619 284.187 122.245 284.365 122.721 284.719C123.206 285.065 123.519 285.555 123.659 286.189L122.623 286.455C122.539 285.961 122.338 285.615 122.021 285.419C121.703 285.214 121.311 285.111 120.845 285.111C120.378 285.111 120.009 285.2 119.739 285.377C119.468 285.545 119.333 285.797 119.333 286.133C119.333 286.46 119.459 286.703 119.711 286.861C119.972 287.011 120.317 287.123 120.747 287.197L121.321 287.295C121.806 287.379 122.24 287.496 122.623 287.645C123.015 287.785 123.323 287.991 123.547 288.261C123.78 288.532 123.897 288.887 123.897 289.325C123.897 289.997 123.645 290.515 123.141 290.879C122.646 291.243 121.979 291.425 121.139 291.425ZM128.133 291.229C127.741 291.229 127.438 291.122 127.223 290.907C127.018 290.693 126.915 290.399 126.915 290.025V285.349H124.857V284.383H126.915V281.947H128.021V284.383H130.261V285.349H128.021V289.857C128.021 290.137 128.157 290.277 128.427 290.277H129.953V291.229H128.133ZM138.406 291.425C137.557 291.425 136.838 291.229 136.25 290.837C135.672 290.445 135.322 289.825 135.2 288.975L136.25 288.737C136.325 289.185 136.465 289.54 136.67 289.801C136.876 290.053 137.128 290.235 137.426 290.347C137.734 290.45 138.061 290.501 138.406 290.501C138.92 290.501 139.326 290.399 139.624 290.193C139.923 289.988 140.072 289.713 140.072 289.367C140.072 289.013 139.928 288.765 139.638 288.625C139.358 288.476 138.971 288.355 138.476 288.261L137.902 288.163C137.464 288.089 137.062 287.972 136.698 287.813C136.334 287.655 136.045 287.44 135.83 287.169C135.616 286.899 135.508 286.558 135.508 286.147C135.508 285.531 135.746 285.051 136.222 284.705C136.698 284.36 137.328 284.187 138.112 284.187C138.887 284.187 139.512 284.365 139.988 284.719C140.474 285.065 140.786 285.555 140.926 286.189L139.89 286.455C139.806 285.961 139.606 285.615 139.288 285.419C138.971 285.214 138.579 285.111 138.112 285.111C137.646 285.111 137.277 285.2 137.006 285.377C136.736 285.545 136.6 285.797 136.6 286.133C136.6 286.46 136.726 286.703 136.978 286.861C137.24 287.011 137.585 287.123 138.014 287.197L138.588 287.295C139.074 287.379 139.508 287.496 139.89 287.645C140.282 287.785 140.59 287.991 140.814 288.261C141.048 288.532 141.164 288.887 141.164 289.325C141.164 289.997 140.912 290.515 140.408 290.879C139.914 291.243 139.246 291.425 138.406 291.425ZM145.076 291.425C144.6 291.425 144.166 291.341 143.774 291.173C143.382 291.005 143.074 290.763 142.85 290.445C142.626 290.128 142.514 289.741 142.514 289.283C142.514 288.817 142.626 288.434 142.85 288.135C143.074 287.827 143.382 287.599 143.774 287.449C144.166 287.291 144.605 287.211 145.09 287.211H147.4V286.707C147.4 286.222 147.256 285.839 146.966 285.559C146.686 285.279 146.266 285.139 145.706 285.139C145.156 285.139 144.726 285.275 144.418 285.545C144.11 285.807 143.9 286.161 143.788 286.609L142.752 286.273C142.864 285.891 143.042 285.545 143.284 285.237C143.527 284.92 143.849 284.668 144.25 284.481C144.661 284.285 145.151 284.187 145.72 284.187C146.598 284.187 147.279 284.416 147.764 284.873C148.25 285.321 148.492 285.956 148.492 286.777V289.871C148.492 290.151 148.623 290.291 148.884 290.291H149.514V291.229H148.548C148.24 291.229 147.993 291.145 147.806 290.977C147.62 290.8 147.526 290.567 147.526 290.277V290.207H147.358C147.256 290.385 147.116 290.571 146.938 290.767C146.77 290.954 146.537 291.108 146.238 291.229C145.94 291.36 145.552 291.425 145.076 291.425ZM145.202 290.473C145.856 290.473 146.383 290.282 146.784 289.899C147.195 289.507 147.4 288.961 147.4 288.261V288.107H145.132C144.694 288.107 144.33 288.205 144.04 288.401C143.76 288.588 143.62 288.873 143.62 289.255C143.62 289.638 143.765 289.937 144.054 290.151C144.353 290.366 144.736 290.473 145.202 290.473ZM152.382 291.229L149.932 284.383H151.108L153.166 290.403H153.362L155.42 284.383H156.596L154.146 291.229H152.382ZM158.193 291.229V284.383H159.299V291.229H158.193ZM158.753 283.319C158.511 283.319 158.305 283.24 158.137 283.081C157.979 282.923 157.899 282.722 157.899 282.479C157.899 282.227 157.979 282.022 158.137 281.863C158.305 281.705 158.511 281.625 158.753 281.625C158.996 281.625 159.197 281.705 159.355 281.863C159.514 282.022 159.593 282.227 159.593 282.479C159.593 282.722 159.514 282.923 159.355 283.081C159.197 283.24 158.996 283.319 158.753 283.319ZM161.625 291.229V284.383H162.703V285.545H162.899C163.048 285.219 163.3 284.925 163.655 284.663C164.019 284.393 164.551 284.257 165.251 284.257C165.764 284.257 166.222 284.365 166.623 284.579C167.034 284.794 167.36 285.111 167.603 285.531C167.846 285.951 167.967 286.469 167.967 287.085V291.229H166.861V287.169C166.861 286.488 166.688 285.993 166.343 285.685C166.007 285.377 165.55 285.223 164.971 285.223C164.308 285.223 163.767 285.438 163.347 285.867C162.936 286.297 162.731 286.936 162.731 287.785V291.229H161.625ZM169.875 287.841V287.645C169.875 286.927 170.019 286.311 170.309 285.797C170.598 285.284 170.99 284.887 171.485 284.607C171.979 284.327 172.521 284.187 173.109 284.187C173.827 284.187 174.378 284.327 174.761 284.607C175.153 284.878 175.442 285.181 175.629 285.517H175.825V284.383H176.875V292.825C176.875 293.199 176.772 293.493 176.567 293.707C176.361 293.922 176.063 294.029 175.671 294.029H171.023V293.049H175.377C175.657 293.049 175.797 292.909 175.797 292.629V290.025H175.601C175.489 290.231 175.33 290.431 175.125 290.627C174.919 290.823 174.653 290.987 174.327 291.117C174 291.239 173.594 291.299 173.109 291.299C172.521 291.299 171.979 291.159 171.485 290.879C170.99 290.599 170.598 290.203 170.309 289.689C170.019 289.167 169.875 288.551 169.875 287.841ZM173.403 290.319C174.112 290.319 174.686 290.095 175.125 289.647C175.573 289.199 175.797 288.583 175.797 287.799V287.687C175.797 286.894 175.573 286.278 175.125 285.839C174.686 285.391 174.112 285.167 173.403 285.167C172.703 285.167 172.124 285.391 171.667 285.839C171.219 286.278 170.995 286.894 170.995 287.687V287.799C170.995 288.583 171.219 289.199 171.667 289.647C172.124 290.095 172.703 290.319 173.403 290.319ZM181.951 291.425C181.102 291.425 180.383 291.229 179.795 290.837C179.217 290.445 178.867 289.825 178.745 288.975L179.795 288.737C179.87 289.185 180.01 289.54 180.215 289.801C180.421 290.053 180.673 290.235 180.971 290.347C181.279 290.45 181.606 290.501 181.951 290.501C182.465 290.501 182.871 290.399 183.169 290.193C183.468 289.988 183.617 289.713 183.617 289.367C183.617 289.013 183.473 288.765 183.183 288.625C182.903 288.476 182.516 288.355 182.021 288.261L181.447 288.163C181.009 288.089 180.607 287.972 180.243 287.813C179.879 287.655 179.59 287.44 179.375 287.169C179.161 286.899 179.053 286.558 179.053 286.147C179.053 285.531 179.291 285.051 179.767 284.705C180.243 284.36 180.873 284.187 181.657 284.187C182.432 284.187 183.057 284.365 183.533 284.719C184.019 285.065 184.331 285.555 184.471 286.189L183.435 286.455C183.351 285.961 183.151 285.615 182.833 285.419C182.516 285.214 182.124 285.111 181.657 285.111C181.191 285.111 180.822 285.2 180.551 285.377C180.281 285.545 180.145 285.797 180.145 286.133C180.145 286.46 180.271 286.703 180.523 286.861C180.785 287.011 181.13 287.123 181.559 287.197L182.133 287.295C182.619 287.379 183.053 287.496 183.435 287.645C183.827 287.785 184.135 287.991 184.359 288.261C184.593 288.532 184.709 288.887 184.709 289.325C184.709 289.997 184.457 290.515 183.953 290.879C183.459 291.243 182.791 291.425 181.951 291.425ZM191.516 291.229V285.349H189.416V284.383H191.516V282.633C191.516 282.26 191.618 281.966 191.824 281.751C192.038 281.537 192.342 281.429 192.734 281.429H194.456V282.381H193.042C192.762 282.381 192.622 282.521 192.622 282.801V284.383H194.778V285.349H192.622V291.229H191.516ZM199.187 291.425C198.497 291.425 197.885 291.281 197.353 290.991C196.831 290.702 196.42 290.296 196.121 289.773C195.832 289.241 195.687 288.616 195.687 287.897V287.715C195.687 287.006 195.832 286.385 196.121 285.853C196.42 285.321 196.831 284.911 197.353 284.621C197.885 284.332 198.497 284.187 199.187 284.187C199.878 284.187 200.485 284.332 201.007 284.621C201.539 284.911 201.95 285.321 202.239 285.853C202.538 286.385 202.687 287.006 202.687 287.715V287.897C202.687 288.616 202.538 289.241 202.239 289.773C201.95 290.296 201.539 290.702 201.007 290.991C200.485 291.281 199.878 291.425 199.187 291.425ZM199.187 290.431C199.915 290.431 200.494 290.203 200.923 289.745C201.362 289.279 201.581 288.653 201.581 287.869V287.743C201.581 286.959 201.362 286.339 200.923 285.881C200.494 285.415 199.915 285.181 199.187 285.181C198.469 285.181 197.89 285.415 197.451 285.881C197.013 286.339 196.793 286.959 196.793 287.743V287.869C196.793 288.653 197.013 289.279 197.451 289.745C197.89 290.203 198.469 290.431 199.187 290.431ZM204.678 291.229V284.383H205.756V285.223H205.952C206.073 284.925 206.26 284.705 206.512 284.565C206.764 284.425 207.095 284.355 207.506 284.355H208.318V285.363H207.436C206.941 285.363 206.54 285.503 206.232 285.783C205.933 286.054 205.784 286.479 205.784 287.057V291.229H204.678ZM216.701 291.425C216.038 291.425 215.441 291.285 214.909 291.005C214.386 290.716 213.971 290.305 213.663 289.773C213.364 289.241 213.215 288.611 213.215 287.883V287.729C213.215 286.992 213.364 286.362 213.663 285.839C213.971 285.307 214.386 284.901 214.909 284.621C215.441 284.332 216.038 284.187 216.701 284.187C217.354 284.187 217.909 284.309 218.367 284.551C218.833 284.794 219.197 285.116 219.459 285.517C219.729 285.919 219.902 286.348 219.977 286.805L218.899 287.029C218.852 286.693 218.74 286.385 218.563 286.105C218.395 285.825 218.157 285.601 217.849 285.433C217.541 285.265 217.163 285.181 216.715 285.181C216.257 285.181 215.847 285.284 215.483 285.489C215.128 285.695 214.843 285.989 214.629 286.371C214.423 286.754 214.321 287.211 214.321 287.743V287.869C214.321 288.401 214.423 288.859 214.629 289.241C214.843 289.624 215.128 289.918 215.483 290.123C215.847 290.329 216.257 290.431 216.715 290.431C217.396 290.431 217.914 290.254 218.269 289.899C218.633 289.545 218.857 289.106 218.941 288.583L220.033 288.821C219.93 289.269 219.743 289.694 219.473 290.095C219.202 290.497 218.833 290.819 218.367 291.061C217.909 291.304 217.354 291.425 216.701 291.425ZM221.918 291.229V281.429H223.024V291.229H221.918ZM225.35 291.229V284.383H226.456V291.229H225.35ZM225.91 283.319C225.667 283.319 225.462 283.24 225.294 283.081C225.135 282.923 225.056 282.722 225.056 282.479C225.056 282.227 225.135 282.022 225.294 281.863C225.462 281.705 225.667 281.625 225.91 281.625C226.152 281.625 226.353 281.705 226.512 281.863C226.67 282.022 226.75 282.227 226.75 282.479C226.75 282.722 226.67 282.923 226.512 283.081C226.353 283.24 226.152 283.319 225.91 283.319ZM231.917 291.425C231.226 291.425 230.62 291.281 230.097 290.991C229.574 290.693 229.168 290.277 228.879 289.745C228.59 289.213 228.445 288.597 228.445 287.897V287.729C228.445 287.02 228.59 286.399 228.879 285.867C229.168 285.335 229.57 284.925 230.083 284.635C230.596 284.337 231.184 284.187 231.847 284.187C232.491 284.187 233.06 284.327 233.555 284.607C234.05 284.878 234.437 285.27 234.717 285.783C234.997 286.297 235.137 286.899 235.137 287.589V288.093H229.551C229.579 288.831 229.817 289.409 230.265 289.829C230.713 290.24 231.273 290.445 231.945 290.445C232.533 290.445 232.986 290.31 233.303 290.039C233.62 289.769 233.863 289.447 234.031 289.073L234.983 289.535C234.843 289.825 234.647 290.114 234.395 290.403C234.152 290.693 233.83 290.935 233.429 291.131C233.037 291.327 232.533 291.425 231.917 291.425ZM229.565 287.183H234.017C233.98 286.549 233.76 286.054 233.359 285.699C232.967 285.345 232.463 285.167 231.847 285.167C231.222 285.167 230.708 285.345 230.307 285.699C229.906 286.054 229.658 286.549 229.565 287.183ZM237.066 291.229V284.383H238.144V285.545H238.34C238.49 285.219 238.742 284.925 239.096 284.663C239.46 284.393 239.992 284.257 240.692 284.257C241.206 284.257 241.663 284.365 242.064 284.579C242.475 284.794 242.802 285.111 243.044 285.531C243.287 285.951 243.408 286.469 243.408 287.085V291.229H242.302V287.169C242.302 286.488 242.13 285.993 241.784 285.685C241.448 285.377 240.991 285.223 240.412 285.223C239.75 285.223 239.208 285.438 238.788 285.867C238.378 286.297 238.172 286.936 238.172 287.785V291.229H237.066ZM247.981 291.229C247.589 291.229 247.285 291.122 247.071 290.907C246.865 290.693 246.763 290.399 246.763 290.025V285.349H244.705V284.383H246.763V281.947H247.869V284.383H250.109V285.349H247.869V289.857C247.869 290.137 248.004 290.277 248.275 290.277H249.801V291.229H247.981ZM254.658 291.425C253.809 291.425 253.09 291.229 252.502 290.837C251.924 290.445 251.574 289.825 251.452 288.975L252.502 288.737C252.577 289.185 252.717 289.54 252.922 289.801C253.128 290.053 253.38 290.235 253.678 290.347C253.986 290.45 254.313 290.501 254.658 290.501C255.172 290.501 255.578 290.399 255.876 290.193C256.175 289.988 256.324 289.713 256.324 289.367C256.324 289.013 256.18 288.765 255.89 288.625C255.61 288.476 255.223 288.355 254.728 288.261L254.154 288.163C253.716 288.089 253.314 287.972 252.95 287.813C252.586 287.655 252.297 287.44 252.082 287.169C251.868 286.899 251.76 286.558 251.76 286.147C251.76 285.531 251.998 285.051 252.474 284.705C252.95 284.36 253.58 284.187 254.364 284.187C255.139 284.187 255.764 284.365 256.24 284.719C256.726 285.065 257.038 285.555 257.178 286.189L256.142 286.455C256.058 285.961 255.858 285.615 255.54 285.419C255.223 285.214 254.831 285.111 254.364 285.111C253.898 285.111 253.529 285.2 253.258 285.377C252.988 285.545 252.852 285.797 252.852 286.133C252.852 286.46 252.978 286.703 253.23 286.861C253.492 287.011 253.837 287.123 254.266 287.197L254.84 287.295C255.326 287.379 255.76 287.496 256.142 287.645C256.534 287.785 256.842 287.991 257.066 288.261C257.3 288.532 257.416 288.887 257.416 289.325C257.416 289.997 257.164 290.515 256.66 290.879C256.166 291.243 255.498 291.425 254.658 291.425Z" fill="white" fill-opacity="0.9"/>
</g>
<g filter="url(#filter2_d_1505_2883)">
<rect x="250" y="309.229" width="240" height="159" rx="24" fill="#DBFF00"/>
<rect x="251" y="310.229" width="238" height="157" rx="23" stroke="black" stroke-opacity="0.1" stroke-width="2"/>
<rect x="282" y="348.729" width="48" height="48" rx="24" fill="black"/>
<path d="M305.527 363.024C305.571 362.936 305.638 362.861 305.722 362.809C305.806 362.757 305.903 362.729 306.002 362.729C306.101 362.729 306.197 362.757 306.281 362.809C306.365 362.861 306.433 362.936 306.477 363.024L308.787 367.703C308.939 368.011 309.164 368.278 309.441 368.48C309.719 368.682 310.042 368.813 310.382 368.863L315.548 369.619C315.646 369.634 315.738 369.675 315.813 369.739C315.889 369.802 315.945 369.886 315.976 369.98C316.006 370.074 316.01 370.175 315.986 370.271C315.963 370.367 315.913 370.454 315.842 370.523L312.106 374.161C311.859 374.401 311.675 374.698 311.569 375.025C311.462 375.352 311.437 375.7 311.495 376.039L312.377 381.179C312.394 381.277 312.384 381.378 312.346 381.47C312.309 381.562 312.247 381.642 312.166 381.7C312.086 381.759 311.991 381.793 311.892 381.8C311.793 381.807 311.693 381.786 311.606 381.739L306.988 379.311C306.684 379.152 306.345 379.068 306.001 379.068C305.658 379.068 305.319 379.152 305.015 379.311L300.398 381.739C300.31 381.786 300.211 381.807 300.112 381.8C300.013 381.793 299.918 381.758 299.838 381.7C299.758 381.641 299.696 381.562 299.658 381.47C299.621 381.378 299.611 381.277 299.628 381.179L300.509 376.04C300.567 375.701 300.542 375.353 300.435 375.025C300.329 374.698 300.144 374.402 299.898 374.161L296.162 370.524C296.09 370.455 296.04 370.368 296.016 370.271C295.992 370.175 295.995 370.074 296.026 369.98C296.057 369.885 296.113 369.801 296.189 369.737C296.265 369.674 296.358 369.632 296.456 369.618L301.621 368.863C301.961 368.814 302.284 368.682 302.562 368.48C302.841 368.278 303.066 368.012 303.218 367.703L305.527 363.024Z" stroke="#DBFF00" stroke-width="2" stroke-linecap="round" stroke-linejoin="round"/>
<path d="M346.662 354.425C345.495 354.425 344.567 354.089 343.876 353.417C343.185 352.736 342.84 351.747 342.84 350.449V348.209C342.84 346.912 343.185 345.927 343.876 345.255C344.567 344.574 345.495 344.233 346.662 344.233C347.819 344.233 348.706 344.555 349.322 345.199C349.947 345.843 350.26 346.725 350.26 347.845V347.915H349.098V347.803C349.098 347.066 348.897 346.464 348.496 345.997C348.104 345.521 347.493 345.283 346.662 345.283C345.831 345.283 345.183 345.54 344.716 346.053C344.249 346.557 344.016 347.267 344.016 348.181V350.477C344.016 351.392 344.249 352.106 344.716 352.619C345.183 353.123 345.831 353.375 346.662 353.375C347.493 353.375 348.104 353.142 348.496 352.675C348.897 352.199 349.098 351.593 349.098 350.855V350.631H350.26V350.813C350.26 351.933 349.947 352.815 349.322 353.459C348.706 354.103 347.819 354.425 346.662 354.425ZM352.144 354.229V344.429H353.25V354.229H352.144ZM358.194 354.355C357.699 354.355 357.242 354.248 356.822 354.033C356.411 353.819 356.085 353.501 355.842 353.081C355.609 352.652 355.492 352.134 355.492 351.527V347.383H356.598V351.443C356.598 352.125 356.766 352.619 357.102 352.927C357.447 353.235 357.909 353.389 358.488 353.389C359.141 353.389 359.678 353.175 360.098 352.745C360.518 352.316 360.728 351.677 360.728 350.827V347.383H361.834V354.229H360.756V353.067H360.56C360.411 353.394 360.154 353.693 359.79 353.963C359.426 354.225 358.894 354.355 358.194 354.355ZM366.668 354.229C366.276 354.229 365.973 354.122 365.758 353.907C365.553 353.693 365.45 353.399 365.45 353.025V348.349H363.392V347.383H365.45V344.947H366.556V347.383H368.796V348.349H366.556V352.857C366.556 353.137 366.692 353.277 366.962 353.277H368.488V354.229H366.668ZM373.492 354.425C372.829 354.425 372.232 354.285 371.7 354.005C371.177 353.716 370.762 353.305 370.454 352.773C370.155 352.241 370.006 351.611 370.006 350.883V350.729C370.006 349.992 370.155 349.362 370.454 348.839C370.762 348.307 371.177 347.901 371.7 347.621C372.232 347.332 372.829 347.187 373.492 347.187C374.145 347.187 374.7 347.309 375.158 347.551C375.624 347.794 375.988 348.116 376.25 348.517C376.52 348.919 376.693 349.348 376.768 349.805L375.69 350.029C375.643 349.693 375.531 349.385 375.354 349.105C375.186 348.825 374.948 348.601 374.64 348.433C374.332 348.265 373.954 348.181 373.506 348.181C373.048 348.181 372.638 348.284 372.274 348.489C371.919 348.695 371.634 348.989 371.42 349.371C371.214 349.754 371.112 350.211 371.112 350.743V350.869C371.112 351.401 371.214 351.859 371.42 352.241C371.634 352.624 371.919 352.918 372.274 353.123C372.638 353.329 373.048 353.431 373.506 353.431C374.187 353.431 374.705 353.254 375.06 352.899C375.424 352.545 375.648 352.106 375.732 351.583L376.824 351.821C376.721 352.269 376.534 352.694 376.264 353.095C375.993 353.497 375.624 353.819 375.158 354.061C374.7 354.304 374.145 354.425 373.492 354.425ZM378.709 354.229V344.429H379.815V348.475H380.011C380.104 348.27 380.244 348.079 380.431 347.901C380.627 347.715 380.874 347.561 381.173 347.439C381.481 347.318 381.868 347.257 382.335 347.257C382.848 347.257 383.306 347.369 383.707 347.593C384.118 347.808 384.444 348.125 384.687 348.545C384.93 348.956 385.051 349.469 385.051 350.085V354.229H383.945V350.169C383.945 349.488 383.772 348.993 383.427 348.685C383.091 348.377 382.634 348.223 382.055 348.223C381.392 348.223 380.851 348.438 380.431 348.867C380.02 349.297 379.815 349.936 379.815 350.785V354.229H378.709ZM390.849 354.229V344.429H394.811C395.417 344.429 395.949 344.537 396.407 344.751C396.873 344.957 397.237 345.255 397.499 345.647C397.76 346.03 397.891 346.492 397.891 347.033V347.187C397.891 347.831 397.737 348.34 397.429 348.713C397.121 349.087 396.757 349.339 396.337 349.469V349.665C396.673 349.675 396.948 349.787 397.163 350.001C397.387 350.207 397.499 350.519 397.499 350.939V354.229H396.337V351.079C396.337 350.799 396.257 350.585 396.099 350.435C395.949 350.286 395.721 350.211 395.413 350.211H392.025V354.229H390.849ZM392.025 349.147H394.699C395.343 349.147 395.837 348.993 396.183 348.685C396.537 348.368 396.715 347.929 396.715 347.369V347.271C396.715 346.711 396.542 346.277 396.197 345.969C395.851 345.652 395.352 345.493 394.699 345.493H392.025V349.147ZM401.823 354.425C401.347 354.425 400.913 354.341 400.521 354.173C400.129 354.005 399.821 353.763 399.597 353.445C399.373 353.128 399.261 352.741 399.261 352.283C399.261 351.817 399.373 351.434 399.597 351.135C399.821 350.827 400.129 350.599 400.521 350.449C400.913 350.291 401.351 350.211 401.837 350.211H404.147V349.707C404.147 349.222 404.002 348.839 403.713 348.559C403.433 348.279 403.013 348.139 402.453 348.139C401.902 348.139 401.473 348.275 401.165 348.545C400.857 348.807 400.647 349.161 400.535 349.609L399.499 349.273C399.611 348.891 399.788 348.545 400.031 348.237C400.273 347.92 400.595 347.668 400.997 347.481C401.407 347.285 401.897 347.187 402.467 347.187C403.344 347.187 404.025 347.416 404.511 347.873C404.996 348.321 405.239 348.956 405.239 349.777V352.871C405.239 353.151 405.369 353.291 405.631 353.291H406.261V354.229H405.295C404.987 354.229 404.739 354.145 404.553 353.977C404.366 353.8 404.273 353.567 404.273 353.277V353.207H404.105C404.002 353.385 403.862 353.571 403.685 353.767C403.517 353.954 403.283 354.108 402.985 354.229C402.686 354.36 402.299 354.425 401.823 354.425ZM401.949 353.473C402.602 353.473 403.129 353.282 403.531 352.899C403.941 352.507 404.147 351.961 404.147 351.261V351.107H401.879C401.44 351.107 401.076 351.205 400.787 351.401C400.507 351.588 400.367 351.873 400.367 352.255C400.367 352.638 400.511 352.937 400.801 353.151C401.099 353.366 401.482 353.473 401.949 353.473ZM409.844 354.229C409.452 354.229 409.149 354.122 408.934 353.907C408.729 353.693 408.626 353.399 408.626 353.025V348.349H406.568V347.383H408.626V344.947H409.732V347.383H411.972V348.349H409.732V352.857C409.732 353.137 409.867 353.277 410.138 353.277H411.664V354.229H409.844ZM413.764 354.229V347.383H414.87V354.229H413.764ZM414.324 346.319C414.081 346.319 413.876 346.24 413.708 346.081C413.549 345.923 413.47 345.722 413.47 345.479C413.47 345.227 413.549 345.022 413.708 344.863C413.876 344.705 414.081 344.625 414.324 344.625C414.566 344.625 414.767 344.705 414.926 344.863C415.084 345.022 415.164 345.227 415.164 345.479C415.164 345.722 415.084 345.923 414.926 346.081C414.767 346.24 414.566 346.319 414.324 346.319ZM417.195 354.229V347.383H418.273V348.545H418.469C418.619 348.219 418.871 347.925 419.225 347.663C419.589 347.393 420.121 347.257 420.821 347.257C421.335 347.257 421.792 347.365 422.193 347.579C422.604 347.794 422.931 348.111 423.173 348.531C423.416 348.951 423.537 349.469 423.537 350.085V354.229H422.431V350.169C422.431 349.488 422.259 348.993 421.913 348.685C421.577 348.377 421.12 348.223 420.541 348.223C419.879 348.223 419.337 348.438 418.917 348.867C418.507 349.297 418.301 349.936 418.301 350.785V354.229H417.195ZM425.445 350.841V350.645C425.445 349.927 425.59 349.311 425.879 348.797C426.168 348.284 426.56 347.887 427.055 347.607C427.55 347.327 428.091 347.187 428.679 347.187C429.398 347.187 429.948 347.327 430.331 347.607C430.723 347.878 431.012 348.181 431.199 348.517H431.395V347.383H432.445V355.825C432.445 356.199 432.342 356.493 432.137 356.707C431.932 356.922 431.633 357.029 431.241 357.029H426.593V356.049H430.947C431.227 356.049 431.367 355.909 431.367 355.629V353.025H431.171C431.059 353.231 430.9 353.431 430.695 353.627C430.49 353.823 430.224 353.987 429.897 354.117C429.57 354.239 429.164 354.299 428.679 354.299C428.091 354.299 427.55 354.159 427.055 353.879C426.56 353.599 426.168 353.203 425.879 352.689C425.59 352.167 425.445 351.551 425.445 350.841ZM428.973 353.319C429.682 353.319 430.256 353.095 430.695 352.647C431.143 352.199 431.367 351.583 431.367 350.799V350.687C431.367 349.894 431.143 349.278 430.695 348.839C430.256 348.391 429.682 348.167 428.973 348.167C428.273 348.167 427.694 348.391 427.237 348.839C426.789 349.278 426.565 349.894 426.565 350.687V350.799C426.565 351.583 426.789 352.199 427.237 352.647C427.694 353.095 428.273 353.319 428.973 353.319Z" fill="black" fill-opacity="0.7"/>
<path d="M352.36 391.229V387.253H342.728V383.109L349.504 371.629H355.944V384.061H359.192V387.253H355.944V391.229H352.36ZM346.144 384.061H352.36V373.925H351.856L346.144 383.613V384.061ZM363.973 391.621C363.226 391.621 362.591 391.379 362.069 390.893C361.565 390.389 361.313 389.745 361.313 388.961C361.313 388.177 361.565 387.543 362.069 387.057C362.591 386.553 363.226 386.301 363.973 386.301C364.738 386.301 365.373 386.553 365.877 387.057C366.381 387.543 366.633 388.177 366.633 388.961C366.633 389.745 366.381 390.389 365.877 390.893C365.373 391.379 364.738 391.621 363.973 391.621ZM376.486 391.621C375.03 391.621 373.761 391.379 372.678 390.893C371.614 390.408 370.783 389.708 370.186 388.793C369.607 387.879 369.318 386.787 369.318 385.517H372.958C372.958 386.301 373.229 386.983 373.77 387.561C374.33 388.14 375.235 388.429 376.486 388.429C377.755 388.429 378.726 388.103 379.398 387.449C380.07 386.777 380.406 385.872 380.406 384.733V382.717H379.902C379.585 383.091 379.099 383.445 378.446 383.781C377.811 384.117 376.859 384.285 375.59 384.285C374.47 384.285 373.425 384.043 372.454 383.557C371.483 383.072 370.699 382.372 370.102 381.457C369.505 380.524 369.206 379.404 369.206 378.097V377.761C369.206 376.455 369.514 375.316 370.13 374.345C370.746 373.375 371.614 372.619 372.734 372.077C373.854 371.517 375.161 371.237 376.654 371.237C378.147 371.237 379.445 371.517 380.546 372.077C381.647 372.637 382.497 373.412 383.094 374.401C383.691 375.391 383.99 376.529 383.99 377.817V384.509C383.99 386.096 383.663 387.421 383.01 388.485C382.375 389.531 381.489 390.315 380.35 390.837C379.23 391.36 377.942 391.621 376.486 391.621ZM376.598 381.429C377.382 381.429 378.054 381.289 378.614 381.009C379.193 380.729 379.631 380.337 379.93 379.833C380.247 379.329 380.406 378.732 380.406 378.041V377.817C380.406 376.772 380.061 375.951 379.37 375.353C378.698 374.737 377.774 374.429 376.598 374.429C375.422 374.429 374.489 374.737 373.798 375.353C373.126 375.951 372.79 376.772 372.79 377.817V378.041C372.79 378.732 372.939 379.329 373.238 379.833C373.555 380.337 374.003 380.729 374.582 381.009C375.161 381.289 375.833 381.429 376.598 381.429ZM384.947 396.829L393.179 371.629H396.707L388.475 396.829H384.947ZM404.734 391.621C403.203 391.621 401.878 391.351 400.758 390.809C399.657 390.268 398.807 389.503 398.21 388.513C397.613 387.524 397.314 386.376 397.314 385.069V384.789H400.954V385.041C400.954 385.975 401.262 386.777 401.878 387.449C402.513 388.103 403.446 388.429 404.678 388.429C405.91 388.429 406.853 388.103 407.506 387.449C408.178 386.777 408.514 385.909 408.514 384.845V384.565C408.514 383.52 408.178 382.689 407.506 382.073C406.853 381.457 406.031 381.149 405.042 381.149C404.501 381.149 404.053 381.224 403.698 381.373C403.343 381.523 403.054 381.709 402.83 381.933C402.606 382.157 402.419 382.381 402.27 382.605H397.93V371.629H411.314V374.877H401.514V379.665H402.018C402.205 379.423 402.457 379.189 402.774 378.965C403.091 378.741 403.502 378.555 404.006 378.405C404.51 378.256 405.107 378.181 405.798 378.181C406.955 378.181 408.01 378.424 408.962 378.909C409.914 379.395 410.67 380.113 411.23 381.065C411.809 381.999 412.098 383.156 412.098 384.537V384.873C412.098 386.255 411.799 387.449 411.202 388.457C410.623 389.465 409.783 390.249 408.682 390.809C407.581 391.351 406.265 391.621 404.734 391.621Z" fill="black"/>
<path d="M289.683 421.76C289.712 421.701 289.758 421.651 289.814 421.616C289.869 421.581 289.934 421.563 290 421.563C290.066 421.563 290.13 421.581 290.186 421.616C290.242 421.651 290.287 421.701 290.317 421.76L291.857 424.879C291.958 425.084 292.108 425.262 292.293 425.397C292.478 425.531 292.693 425.619 292.92 425.652L296.364 426.156C296.429 426.166 296.49 426.193 296.541 426.236C296.591 426.278 296.629 426.334 296.649 426.397C296.67 426.459 296.672 426.527 296.656 426.591C296.64 426.655 296.607 426.713 296.56 426.759L294.069 429.184C293.905 429.344 293.782 429.542 293.711 429.76C293.64 429.978 293.623 430.21 293.662 430.436L294.25 433.863C294.261 433.928 294.254 433.995 294.23 434.057C294.205 434.118 294.163 434.171 294.11 434.21C294.056 434.249 293.993 434.272 293.926 434.277C293.86 434.281 293.794 434.267 293.736 434.236L290.657 432.618C290.454 432.511 290.229 432.455 290 432.455C289.77 432.455 289.545 432.511 289.342 432.618L286.264 434.236C286.205 434.267 286.139 434.281 286.074 434.276C286.008 434.272 285.944 434.249 285.891 434.21C285.837 434.171 285.796 434.118 285.771 434.056C285.746 433.995 285.739 433.928 285.751 433.863L286.338 430.437C286.377 430.211 286.36 429.979 286.289 429.76C286.218 429.542 286.095 429.344 285.931 429.184L283.44 426.76C283.392 426.714 283.359 426.655 283.343 426.591C283.327 426.527 283.329 426.459 283.349 426.396C283.37 426.333 283.407 426.277 283.458 426.235C283.509 426.192 283.57 426.165 283.636 426.156L287.079 425.652C287.306 425.619 287.521 425.532 287.707 425.397C287.892 425.262 288.042 425.084 288.144 424.879L289.683 421.76Z" fill="black" stroke="black" stroke-width="1.33333" stroke-linecap="round" stroke-linejoin="round"/>
<path d="M309.683 421.76C309.712 421.701 309.758 421.651 309.814 421.616C309.869 421.581 309.934 421.563 310 421.563C310.066 421.563 310.13 421.581 310.186 421.616C310.242 421.651 310.287 421.701 310.317 421.76L311.857 424.879C311.958 425.084 312.108 425.262 312.293 425.397C312.478 425.531 312.693 425.619 312.92 425.652L316.364 426.156C316.429 426.166 316.49 426.193 316.541 426.236C316.591 426.278 316.629 426.334 316.649 426.397C316.67 426.459 316.672 426.527 316.656 426.591C316.64 426.655 316.607 426.713 316.56 426.759L314.069 429.184C313.905 429.344 313.782 429.542 313.711 429.76C313.64 429.978 313.623 430.21 313.662 430.436L314.25 433.863C314.261 433.928 314.254 433.995 314.23 434.057C314.205 434.118 314.163 434.171 314.11 434.21C314.056 434.249 313.993 434.272 313.926 434.277C313.86 434.281 313.794 434.267 313.736 434.236L310.657 432.618C310.454 432.511 310.229 432.455 310 432.455C309.77 432.455 309.545 432.511 309.342 432.618L306.264 434.236C306.205 434.267 306.139 434.281 306.074 434.276C306.008 434.272 305.944 434.249 305.891 434.21C305.837 434.171 305.796 434.118 305.771 434.056C305.746 433.995 305.739 433.928 305.751 433.863L306.338 430.437C306.377 430.211 306.36 429.979 306.289 429.76C306.218 429.542 306.095 429.344 305.931 429.184L303.44 426.76C303.392 426.714 303.359 426.655 303.343 426.591C303.327 426.527 303.329 426.459 303.349 426.396C303.37 426.333 303.407 426.277 303.458 426.235C303.509 426.192 303.57 426.165 303.636 426.156L307.079 425.652C307.306 425.619 307.521 425.532 307.707 425.397C307.892 425.262 308.042 425.084 308.144 424.879L309.683 421.76Z" fill="black" stroke="black" stroke-width="1.33333" stroke-linecap="round" stroke-linejoin="round"/>
<path d="M329.683 421.76C329.712 421.701 329.758 421.651 329.814 421.616C329.869 421.581 329.934 421.563 330 421.563C330.066 421.563 330.13 421.581 330.186 421.616C330.242 421.651 330.287 421.701 330.317 421.76L331.857 424.879C331.958 425.084 332.108 425.262 332.293 425.397C332.478 425.531 332.693 425.619 332.92 425.652L336.364 426.156C336.429 426.166 336.49 426.193 336.541 426.236C336.591 426.278 336.629 426.334 336.649 426.397C336.67 426.459 336.672 426.527 336.656 426.591C336.64 426.655 336.607 426.713 336.56 426.759L334.069 429.184C333.905 429.344 333.782 429.542 333.711 429.76C333.64 429.978 333.623 430.21 333.662 430.436L334.25 433.863C334.261 433.928 334.254 433.995 334.23 434.057C334.205 434.118 334.163 434.171 334.11 434.21C334.056 434.249 333.993 434.272 333.926 434.277C333.86 434.281 333.794 434.267 333.736 434.236L330.657 432.618C330.454 432.511 330.229 432.455 330 432.455C329.77 432.455 329.545 432.511 329.342 432.618L326.264 434.236C326.205 434.267 326.139 434.281 326.074 434.276C326.008 434.272 325.944 434.249 325.891 434.21C325.837 434.171 325.796 434.118 325.771 434.056C325.746 433.995 325.739 433.928 325.751 433.863L326.338 430.437C326.377 430.211 326.36 429.979 326.289 429.76C326.218 429.542 326.095 429.344 325.931 429.184L323.44 426.76C323.392 426.714 323.359 426.655 323.343 426.591C323.327 426.527 323.329 426.459 323.349 426.396C323.37 426.333 323.407 426.277 323.458 426.235C323.509 426.192 323.57 426.165 323.636 426.156L327.079 425.652C327.306 425.619 327.521 425.532 327.707 425.397C327.892 425.262 328.042 425.084 328.144 424.879L329.683 421.76Z" fill="black" stroke="black" stroke-width="1.33333" stroke-linecap="round" stroke-linejoin="round"/>
<path d="M349.683 421.76C349.712 421.701 349.758 421.651 349.814 421.616C349.869 421.581 349.934 421.563 350 421.563C350.066 421.563 350.13 421.581 350.186 421.616C350.242 421.651 350.287 421.701 350.317 421.76L351.857 424.879C351.958 425.084 352.108 425.262 352.293 425.397C352.478 425.531 352.693 425.619 352.92 425.652L356.364 426.156C356.429 426.166 356.49 426.193 356.541 426.236C356.591 426.278 356.629 426.334 356.649 426.397C356.67 426.459 356.672 426.527 356.656 426.591C356.64 426.655 356.607 426.713 356.56 426.759L354.069 429.184C353.905 429.344 353.782 429.542 353.711 429.76C353.64 429.978 353.623 430.21 353.662 430.436L354.25 433.863C354.261 433.928 354.254 433.995 354.23 434.057C354.205 434.118 354.163 434.171 354.11 434.21C354.056 434.249 353.993 434.272 353.926 434.277C353.86 434.281 353.794 434.267 353.736 434.236L350.657 432.618C350.454 432.511 350.229 432.455 350 432.455C349.77 432.455 349.545 432.511 349.342 432.618L346.264 434.236C346.205 434.267 346.139 434.281 346.074 434.276C346.008 434.272 345.944 434.249 345.891 434.21C345.837 434.171 345.796 434.118 345.771 434.056C345.746 433.995 345.739 433.928 345.751 433.863L346.338 430.437C346.377 430.211 346.36 429.979 346.289 429.76C346.218 429.542 346.095 429.344 345.931 429.184L343.44 426.76C343.392 426.714 343.359 426.655 343.343 426.591C343.327 426.527 343.329 426.459 343.349 426.396C343.37 426.333 343.407 426.277 343.458 426.235C343.509 426.192 343.57 426.165 343.636 426.156L347.079 425.652C347.306 425.619 347.521 425.532 347.707 425.397C347.892 425.262 348.042 425.084 348.144 424.879L349.683 421.76Z" fill="black" stroke="black" stroke-width="1.33333" stroke-linecap="round" stroke-linejoin="round"/>
<path d="M369.683 421.76C369.712 421.701 369.758 421.651 369.814 421.616C369.869 421.581 369.934 421.563 370 421.563C370.066 421.563 370.13 421.581 370.186 421.616C370.242 421.651 370.287 421.701 370.317 421.76L371.857 424.879C371.958 425.084 372.108 425.262 372.293 425.397C372.478 425.531 372.693 425.619 372.92 425.652L376.364 426.156C376.429 426.166 376.49 426.193 376.541 426.236C376.591 426.278 376.629 426.334 376.649 426.397C376.67 426.459 376.672 426.527 376.656 426.591C376.64 426.655 376.607 426.713 376.56 426.759L374.069 429.184C373.905 429.344 373.782 429.542 373.711 429.76C373.64 429.978 373.623 430.21 373.662 430.436L374.25 433.863C374.261 433.928 374.254 433.995 374.23 434.057C374.205 434.118 374.163 434.171 374.11 434.21C374.056 434.249 373.993 434.272 373.926 434.277C373.86 434.281 373.794 434.267 373.736 434.236L370.657 432.618C370.454 432.511 370.229 432.455 370 432.455C369.77 432.455 369.545 432.511 369.342 432.618L366.264 434.236C366.205 434.267 366.139 434.281 366.074 434.276C366.008 434.272 365.944 434.249 365.891 434.21C365.837 434.171 365.796 434.118 365.771 434.056C365.746 433.995 365.739 433.928 365.751 433.863L366.338 430.437C366.377 430.211 366.36 429.979 366.289 429.76C366.218 429.542 366.095 429.344 365.931 429.184L363.44 426.76C363.392 426.714 363.359 426.655 363.343 426.591C363.327 426.527 363.329 426.459 363.349 426.396C363.37 426.333 363.407 426.277 363.458 426.235C363.509 426.192 363.57 426.165 363.636 426.156L367.079 425.652C367.306 425.619 367.521 425.532 367.707 425.397C367.892 425.262 368.042 425.084 368.144 424.879L369.683 421.76Z" fill="black" stroke="black" stroke-width="1.33333" stroke-linecap="round" stroke-linejoin="round"/>
</g>
<defs>
<filter id="filter0_d_1505_2883" x="146" y="0" width="356" height="240" filterUnits="userSpaceOnUse" color-interpolation-filters="sRGB">
<feFlood flood-opacity="0" result="BackgroundImageFix"/>
<feColorMatrix in="SourceAlpha" type="matrix" values="0 0 0 0 0 0 0 0 0 0 0 0 0 0 0 0 0 0 127 0" result="hardAlpha"/>
<feMorphology radius="12" operator="erode" in="SourceAlpha" result="effect1_dropShadow_1505_2883"/>
<feOffset dy="25"/>
<feGaussianBlur stdDeviation="25"/>
<feComposite in2="hardAlpha" operator="out"/>
<feColorMatrix type="matrix" values="0 0 0 0 0 0 0 0 0 0 0 0 0 0 0 0 0 0 0.25 0"/>
<feBlend mode="normal" in2="BackgroundImageFix" result="effect1_dropShadow_1505_2883"/>
<feBlend mode="normal" in="SourceGraphic" in2="effect1_dropShadow_1505_2883" result="shape"/>
</filter>
<filter id="filter1_d_1505_2883" x="0" y="156.229" width="336" height="236" filterUnits="userSpaceOnUse" color-interpolation-filters="sRGB">
<feFlood flood-opacity="0" result="BackgroundImageFix"/>
<feColorMatrix in="SourceAlpha" type="matrix" values="0 0 0 0 0 0 0 0 0 0 0 0 0 0 0 0 0 0 127 0" result="hardAlpha"/>
<feMorphology radius="12" operator="erode" in="SourceAlpha" result="effect1_dropShadow_1505_2883"/>
<feOffset dy="25"/>
<feGaussianBlur stdDeviation="25"/>
<feComposite in2="hardAlpha" operator="out"/>
<feColorMatrix type="matrix" values="0 0 0 0 0 0 0 0 0 0 0 0 0 0 0 0 0 0 0.25 0"/>
<feBlend mode="normal" in2="BackgroundImageFix" result="effect1_dropShadow_1505_2883"/>
<feBlend mode="normal" in="SourceGraphic" in2="effect1_dropShadow_1505_2883" result="shape"/>
</filter>
<filter id="filter2_d_1505_2883" x="212" y="296.229" width="316" height="235" filterUnits="userSpaceOnUse" color-interpolation-filters="sRGB">
<feFlood flood-opacity="0" result="BackgroundImageFix"/>
<feColorMatrix in="SourceAlpha" type="matrix" values="0 0 0 0 0 0 0 0 0 0 0 0 0 0 0 0 0 0 127 0" result="hardAlpha"/>
<feMorphology radius="12" operator="erode" in="SourceAlpha" result="effect1_dropShadow_1505_2883"/>
<feOffset dy="25"/>
<feGaussianBlur stdDeviation="25"/>
<feComposite in2="hardAlpha" operator="out"/>
<feColorMatrix type="matrix" values="0 0 0 0 0 0 0 0 0 0 0 0 0 0 0 0 0 0 0.25 0"/>
<feBlend mode="normal" in2="BackgroundImageFix" result="effect1_dropShadow_1505_2883"/>
<feBlend mode="normal" in="SourceGraphic" in2="effect1_dropShadow_1505_2883" result="shape"/>
</filter>
</defs>
</svg>
