<svg width="38" height="30" viewBox="0 0 38 30" fill="none" xmlns="http://www.w3.org/2000/svg">
<path d="M2 12.728C0.89543 12.728 0 13.6235 0 14.728C0 15.8326 0.89543 16.728 2 16.728V14.728V12.728ZM37.4142 16.1422C38.1953 15.3612 38.1953 14.0949 37.4142 13.3138L24.6863 0.585892C23.9052 -0.195157 22.6389 -0.195157 21.8579 0.585892C21.0768 1.36694 21.0768 2.63327 21.8579 3.41432L33.1716 14.728L21.8579 26.0417C21.0768 26.8228 21.0768 28.0891 21.8579 28.8702C22.6389 29.6512 23.9052 29.6512 24.6863 28.8702L37.4142 16.1422ZM2 14.728V16.728H36V14.728V12.728H2V14.728Z" fill="#0077FF"/>
</svg>
