<svg width="171" height="251" viewBox="0 0 171 251" fill="none" xmlns="http://www.w3.org/2000/svg">
<path d="M127.941 59.5811C127.091 63.2241 126.241 66.8672 125.742 69.0779C125.243 71.2886 125.122 71.9565 124.999 72.4827C124.875 73.009 124.754 73.3733 124.629 74.3006" stroke="black" stroke-width="2" stroke-linecap="round"/>
<path d="M126.836 67.8612C127.079 67.8612 127.322 67.8612 128.327 67.8309C129.333 67.8005 131.094 67.7398 132.908 67.6772" stroke="black" stroke-width="2" stroke-linecap="round"/>
<path d="M134.565 60.3174C134.322 64.5069 134.079 68.6965 133.954 71.4619C133.829 74.2274 133.829 75.4417 133.798 76.1887C133.768 76.9357 133.707 77.1786 133.645 77.4289" stroke="black" stroke-width="2" stroke-linecap="round"/>
<path d="M140.449 64.1812V75.4048" stroke="black" stroke-width="2" stroke-linecap="round"/>
<path d="M141.924 56.8213C141.924 56.882 141.924 56.9427 141.833 57.0651C141.742 57.1874 141.56 57.3696 140.82 57.5573" stroke="black" stroke-width="2" stroke-linecap="round"/>
<path d="M153.515 52.4053C153.515 52.5874 153.515 52.7696 152.969 54.776C152.422 56.7825 151.329 60.6077 150.614 62.9426C149.223 67.0604 148.856 68.4054 148.548 69.6354C148.487 69.8829 148.426 70.065 148.363 70.6207" stroke="black" stroke-width="2" stroke-linecap="round"/>
<path d="M146.524 77.6126L146.34 77.2446" stroke="black" stroke-width="2" stroke-linecap="round"/>
<path d="M14.957 66.8711C18.2609 72.7905 20.3759 76.9413 21.036 78.7475C21.2832 79.4525 21.352 79.7279 21.4907 79.9729C21.6295 80.218 21.8359 80.4245 22.0487 80.6373" stroke="black" stroke-width="2" stroke-linecap="round"/>
<path d="M20.3789 74.3796C20.9296 73.8978 21.4802 73.4159 22.0736 72.9268C22.667 72.4377 23.2865 71.9559 23.9247 71.4595" stroke="black" stroke-width="2" stroke-linecap="round"/>
<path d="M21.8398 63.9507C21.9775 64.4325 22.1152 64.9143 23.1497 67.2963C24.1843 69.6782 26.1115 73.9458 27.1388 76.2474C28.166 78.5491 28.2349 78.7556 28.3058 78.9683" stroke="black" stroke-width="2" stroke-linecap="round"/>
<path d="M27.4727 65.2021C27.5415 65.271 27.6103 65.3398 28.6782 67.0272C29.7462 68.7146 31.8111 72.0185 33.9386 75.4225" stroke="black" stroke-width="2" stroke-linecap="round"/>
<path d="M28.3047 64.1595L30.1819 60.8223" stroke="black" stroke-width="2" stroke-linecap="round"/>
<path d="M31.2266 69.5823L33.3123 65.2021" stroke="black" stroke-width="2" stroke-linecap="round"/>
<path d="M34.3555 73.9624C35.2503 72.4481 36.1451 70.9338 36.7781 69.9128C37.4111 68.8918 37.7553 68.41 38.0014 68.0241C38.2475 67.6383 38.3852 67.3629 38.9442 66.6621" stroke="black" stroke-width="2" stroke-linecap="round"/>
<path d="M36.2305 53.939C37.4006 58.4818 38.5707 63.0246 39.3456 66.1564C40.1205 69.2882 40.4646 70.8714 41.0278 72.9196" stroke="black" stroke-width="2" stroke-linecap="round"/>
<path d="M41.0312 72.5024L44.1599 66.4536" stroke="black" stroke-width="2" stroke-linecap="round"/>
<path d="M40.9688 47.6299C42.1389 52.1727 43.309 56.7156 44.0839 59.8474C44.8587 62.9792 45.2029 64.5623 45.7661 66.6105" stroke="black" stroke-width="2" stroke-linecap="round"/>
<path d="M45.7695 66.1933L48.8982 60.1445" stroke="black" stroke-width="2" stroke-linecap="round"/>
<path d="M45.9688 48.639C45.9688 48.7766 46.2441 50.3618 46.7989 52.6562C46.9937 53.4616 47.3537 53.4363 47.5988 53.4018C47.8439 53.3674 48.0504 53.2986 48.26 53.0566C49.7035 51.3905 48.7512 48.4346 48.2318 47.7024C48.0418 47.4345 47.3704 47.5961 46.9835 47.7681C46.3901 48.2844 46.1085 48.9143 46.0042 49.6068C45.9688 50.0239 45.9688 50.5746 45.9688 51.1419" stroke="black" stroke-width="2" stroke-linecap="round"/>
<path d="M138.805 92.0596C144.103 94.1968 145.032 95.1231 145.963 96.0089C147.255 97.2395 147.638 99.8662 148.242 101.77C148.545 102.726 148.754 103.588 149.401 105.067C150.679 107.986 152.004 111.85 153.073 114.963C153.939 117.486 154.981 120.407 155.59 123.021C156.109 125.254 156.287 126.93 156.891 128.926C157.685 131.55 158.888 135.652 159.218 137.812C159.394 138.963 160.098 140.043 160.797 142.503C161.438 144.756 162.236 146.823 162.566 148.692C162.851 150.303 163.357 152.314 163.912 154.503C164.409 156.459 165.121 158.084 165.402 159.528C165.666 160.877 166.516 162.269 167.259 164.357C168.934 169.061 169.306 171.47 169.541 173.199C169.625 173.813 169.774 175.1 169.498 177.694C167.916 185.139 167.266 189.146 166.756 190.815C166.521 191.657 166.337 192.485 166.147 193.618" stroke="black" stroke-width="2" stroke-linecap="round"/>
<path d="M17.5227 192.802C17.5227 194.941 17.6293 198.718 17.7909 201.075C17.9011 202.683 17.8458 205.138 17.7658 206.667C17.6082 209.684 16.9864 211.157 16.8499 212.237C16.6917 213.49 16.3919 214.552 16.0971 215.817C15.8639 216.818 15.6391 217.677 15.2627 219.155C15.006 220.163 14.2951 221.066 13.8088 221.878C13.4238 222.52 13.0027 223.489 12.195 224.649C11.4038 225.785 10.9027 226.348 10.2557 226.832C9.52327 227.38 8.37291 227.909 7.1888 228.608C5.90229 229.368 4.76404 229.902 3.98298 230.305C3.09706 230.762 2.23428 231.356 1.55902 232.081C0.653933 233.052 1.04532 236.345 1.36679 239.291C1.58164 240.128 1.95804 241.79 2.38855 244.636C2.55251 246.149 2.60582 247.801 2.82229 249.665" stroke="black" stroke-width="2" stroke-linecap="round"/>
<path d="M40.7296 86.6987C37.2837 88.0461 35.9386 89.2404 34.7363 91.5617C32.9766 94.9594 32.0338 97.4864 31.5468 98.8405C31.1341 100.042 30.6842 101.312 30.4593 102.436C30.3828 102.891 30.3828 103.114 30.3828 103.344" stroke="black" stroke-width="2" stroke-linecap="round"/>
<path d="M96.7383 11.3472C103.556 15.8435 105.205 16.8895 106.406 17.4934C106.707 17.643 107.004 17.8657 107.268 18.0175C107.533 18.1693 107.755 18.2435 108.21 18.545" stroke="black" stroke-width="2" stroke-linecap="round"/>
<path d="M96.9609 10.4473C97.2578 10.1504 97.485 9.55204 97.6717 8.69168C97.7842 8.27668 97.9326 7.90554 98.0091 6.67517C98.0856 5.4448 98.0856 3.36644 98.0856 1.2251" stroke="black" stroke-width="2" stroke-linecap="round"/>
<path d="M109.109 18.3198C111.336 16.3899 113.968 14.5792 116.366 13.305C117.576 12.7731 118.921 12.1028 120.681 11.1288C121.402 10.7487 121.773 10.6002 122.155 10.4473" stroke="black" stroke-width="2" stroke-linecap="round"/>
<path d="M98.5391 1C99.5782 2.78145 100.188 3.92185 100.709 4.6675C101.972 6.00696 103.184 7.07088 103.858 7.48251C104.16 7.67145 104.383 7.8199 104.612 7.97286" stroke="black" stroke-width="2" stroke-linecap="round"/>
<path d="M105.059 7.97302C106.989 6.56271 108.918 5.15239 110.21 4.16607C111.501 3.17975 112.094 2.66016 112.512 2.31826C112.929 1.97637 113.152 1.82791 113.831 1.2251" stroke="black" stroke-width="2" stroke-linecap="round"/>
<path d="M113.833 1.2251C113.09 3.23148 111.435 7.44218 111.172 8.71754C111.133 9.09318 111.133 9.53854 111.096 9.91642C111.059 10.2943 110.985 10.5912 110.684 10.8971" stroke="black" stroke-width="2" stroke-linecap="round"/>
<path d="M110.684 11.1224C112.838 10.8255 118.093 10.2226 120.236 9.96172C120.653 9.84926 120.949 9.7008 121.251 9.62433C121.552 9.54785 121.849 9.54785 122.155 9.54785" stroke="black" stroke-width="2" stroke-linecap="round"/>
</svg>
