<svg width="36" height="29" viewBox="0 0 36 29" fill="none" xmlns="http://www.w3.org/2000/svg">
<path d="M33.7833 0V6.1433H30.3251C27.6059 6.1433 26.2463 7.52856 26.2463 10.2991V13.19H27.7537C30.1182 13.19 32.069 13.9128 33.6059 15.3583C35.202 16.8037 36 18.6407 36 20.8692C36 23.2783 35.202 25.2357 33.6059 26.7414C32.069 28.2471 30.1182 29 27.7537 29C25.33 29 23.3498 28.2471 21.8128 26.7414C20.2759 25.1755 19.5074 23.0976 19.5074 20.5078V10.1184C19.5074 3.37279 22.8177 0 29.4384 0H33.7833ZM14.2759 0V6.1433H10.8177C8.09852 6.1433 6.73892 7.52856 6.73892 10.2991V13.19H8.24631C10.6108 13.19 12.5616 13.9128 14.0985 15.3583C15.6946 16.8037 16.4926 18.6407 16.4926 20.8692C16.4926 23.2783 15.6946 25.2357 14.0985 26.7414C12.5616 28.2471 10.6108 29 8.24631 29C5.82266 29 3.84237 28.2471 2.30542 26.7414C0.768473 25.1755 0 23.0976 0 20.5078V10.1184C0 3.37279 3.31035 0 9.93104 0H14.2759Z" fill="#0077FF"/>
</svg>
