<svg width="184" height="20" viewBox="0 0 184 20" fill="none" xmlns="http://www.w3.org/2000/svg">
<path d="M182.38 15.5036L183.973 17.4056C182.955 18.6441 181.496 19.3076 179.793 19.3076C177.493 19.3076 175.879 18.4671 173.49 15.9459C169.243 15.4151 166.258 12.2083 166.258 8.00612C166.258 3.40591 169.84 0 174.729 0C179.594 0 183.199 3.3838 183.199 8.00612C183.199 11.6332 180.965 14.5083 177.669 15.5699C178.422 16.3661 179.085 16.6536 179.859 16.6536C180.81 16.6536 181.651 16.2776 182.38 15.5036ZM169.885 8.00612C169.885 10.9476 171.964 12.9602 174.729 12.9602C177.493 12.9602 179.572 10.9476 179.572 8.00612C179.572 5.06464 177.493 3.05206 174.729 3.05206C171.964 3.05206 169.885 5.06464 169.885 8.00612Z" fill="#E0FF22"/>
<path d="M154.445 15.7461V0.264648H158.028V15.7461H154.445Z" fill="#E0FF22"/>
<path d="M146.606 15.7461H143.245L143.223 6.45723L138.666 14.1095H137.052L132.518 6.65627V15.7461H129.156V0.264648H132.12L137.915 9.88526L143.62 0.264648H146.562L146.606 15.7461Z" fill="white"/>
<path d="M121.075 15.7461H117.227L114.241 11.4334H114.065H110.946V15.7461H107.363V0.264648H114.065C118.2 0.264648 120.787 2.40993 120.787 5.8822C120.787 8.20441 119.615 9.90736 117.603 10.7699L121.075 15.7461ZM117.161 5.8822C117.161 4.17924 116.055 3.184 113.865 3.184H110.946V8.58038H113.865C116.055 8.58038 117.161 7.56304 117.161 5.8822Z" fill="white"/>
<path d="M90.67 16.0122C85.7824 16.0122 82.1992 12.6063 82.1992 8.00612C82.1992 3.40591 85.7824 0 90.67 0C95.5355 0 99.1408 3.3838 99.1408 8.00612C99.1408 12.6284 95.5355 16.0122 90.67 16.0122ZM90.67 12.9602C93.4342 12.9602 95.5133 10.9476 95.5133 8.00612C95.5133 5.06465 93.4342 3.05206 90.67 3.05206C87.905 3.05206 85.8267 5.06465 85.8267 8.00612C85.8267 10.9476 87.905 12.9602 90.67 12.9602Z" fill="white"/>
<path d="M75.3715 3.13977H67.2548V7.2313H74.4205V10.1064H67.2548V15.7461H63.6719V0.264648H75.3715V3.13977Z" fill="white"/>
<path d="M55.5911 15.7461H51.7428L48.7571 11.4334H48.5801H45.4617V15.7461H41.8789V0.264648H48.5801C52.7159 0.264648 55.3036 2.40993 55.3036 5.8822C55.3036 8.20441 54.1314 9.90736 52.1188 10.7699L55.5911 15.7461ZM51.6764 5.8822C51.6764 4.17924 50.5706 3.184 48.3811 3.184H45.4617V8.58038H48.3811C50.5706 8.58038 51.6764 7.56304 51.6764 5.8822Z" fill="white"/>
<path d="M25.0724 12.871H33.4988V15.7461H21.5117V0.264648H33.2112V3.13977H25.0724V6.50145H32.2603V9.28815H25.0724V12.871Z" fill="white"/>
<path d="M6.70125 0.264648C10.837 0.264648 13.4246 2.40993 13.4246 5.8822C13.4246 9.33234 10.837 11.4776 6.70125 11.4776H3.58285V15.7461H0V0.264648H6.70125ZM6.5022 8.55829C8.6917 8.55829 9.79754 7.56304 9.79754 5.8822C9.79754 4.17924 8.6917 3.184 6.5022 3.184H3.58285V8.55829H6.5022Z" fill="white"/>
</svg>
