<svg width="24" height="25" viewBox="0 0 24 25" fill="none" xmlns="http://www.w3.org/2000/svg">
<path d="M6.23827 6.2394C7.8572 4.80814 8.80859 0 8.80859 0C8.80859 0 9.76171 4.81674 11.3789 6.2394C12.9961 7.66205 17.6189 8.80947 17.6189 8.80947C17.6189 8.80947 12.9978 9.94828 11.3789 11.3795C9.75999 12.8108 8.80859 17.6189 8.80859 17.6189C8.80859 17.6189 7.8572 12.8022 6.23827 11.3795C4.61935 9.95688 -1.14441e-05 8.80947 -1.14441e-05 8.80947C-1.14441e-05 8.80947 4.62107 7.67066 6.23827 6.2394Z" fill="#E0FF22"/>
<path d="M19.2377 20.1818C19.9026 19.5939 20.2934 17.6191 20.2934 17.6191C20.2934 17.6191 20.6848 19.5974 21.349 20.1818C22.0132 20.7661 23.9119 21.2373 23.9119 21.2373C23.9119 21.2373 22.0139 21.705 21.349 22.2929C20.6841 22.8807 20.2934 24.8555 20.2934 24.8555C20.2934 24.8555 19.9026 22.8772 19.2377 22.2929C18.5728 21.7086 16.6755 21.2373 16.6755 21.2373C16.6755 21.2373 18.5735 20.7696 19.2377 20.1818Z" fill="#E0FF22"/>
</svg>
