<svg width="234" height="25" viewBox="0 0 234 25" fill="#2D2D2D" xmlns="http://www.w3.org/2000/svg">
<path d="M231.989 19.5744L234 21.9758C232.715 23.5395 230.872 24.3772 228.722 24.3772C225.818 24.3772 223.78 23.3161 220.764 20.1328C215.402 19.4627 211.633 15.4138 211.633 10.1083C211.633 4.30021 216.156 0 222.328 0C228.471 0 233.022 4.27229 233.022 10.1083C233.022 14.6877 230.202 18.3178 226.041 19.6581C226.991 20.6634 227.828 21.0264 228.806 21.0264C230.006 21.0264 231.068 20.5517 231.989 19.5744ZM216.212 10.1083C216.212 13.8221 218.837 16.3632 222.328 16.3632C225.818 16.3632 228.443 13.8221 228.443 10.1083C228.443 6.39447 225.818 3.85344 222.328 3.85344C218.837 3.85344 216.212 6.39447 216.212 10.1083Z"/>
<path d="M196.719 19.8804V0.333984H201.242V19.8804H196.719Z"/>
<path d="M185.099 19.8804H180.855L180.827 8.15256L175.074 17.8141H173.036L167.312 8.40387V19.8804H163.067V0.333984H166.809L174.125 12.4807L181.329 0.333984H185.043L185.099 19.8804Z"/>
<path d="M152.865 19.8804H148.007L144.237 14.4353H144.014H140.076V19.8804H135.553V0.333984H144.014C149.235 0.333984 152.502 3.04256 152.502 7.42655C152.502 10.3585 151.022 12.5086 148.481 13.5976L152.865 19.8804ZM147.923 7.42655C147.923 5.27644 146.527 4.01988 143.762 4.01988H140.076V10.8332H143.762C146.527 10.8332 147.923 9.54873 147.923 7.42655Z"/>
<path d="M114.478 20.2166C108.307 20.2166 103.783 15.9164 103.783 10.1083C103.783 4.30021 108.307 0 114.478 0C120.621 0 125.173 4.27229 125.173 10.1083C125.173 15.9443 120.621 20.2166 114.478 20.2166ZM114.478 16.3632C117.968 16.3632 120.593 13.8221 120.593 10.1083C120.593 6.39448 117.968 3.85344 114.478 3.85344C110.987 3.85344 108.363 6.39448 108.363 10.1083C108.363 13.8221 110.987 16.3632 114.478 16.3632Z"/>
<path d="M95.1612 3.96403H84.9133V9.12988H93.9605V12.7599H84.9133V19.8804H80.3896V0.333984H95.1612V3.96403Z"/>
<path d="M70.1866 19.8804H65.3279L61.5582 14.4353H61.3348H57.3976V19.8804H52.874V0.333984H61.3348C66.5565 0.333984 69.8236 3.04256 69.8236 7.42655C69.8236 10.3585 68.3436 12.5086 65.8026 13.5976L70.1866 19.8804ZM65.2441 7.42655C65.2441 5.27644 63.8479 4.01988 61.0835 4.01988H57.3976V10.8332H61.0835C63.8479 10.8332 65.2441 9.54873 65.2441 7.42655Z"/>
<path d="M31.6558 16.2504H42.2947V19.8804H27.1602V0.333984H41.9317V3.96403H31.6558V8.2084H40.731V11.7268H31.6558V16.2504Z"/>
<path d="M8.46081 0.333984C13.6825 0.333984 16.9495 3.04256 16.9495 7.42655C16.9495 11.7826 13.6825 14.4912 8.46081 14.4912H4.5236V19.8804H0V0.333984H8.46081ZM8.2095 10.8053C10.9739 10.8053 12.3701 9.54873 12.3701 7.42655C12.3701 5.27644 10.9739 4.01988 8.2095 4.01988H4.5236V10.8053H8.2095Z"/>
</svg>
