<svg width="234" height="25" viewBox="0 0 234 25" fill="none" xmlns="http://www.w3.org/2000/svg">
<path d="M231.989 19.8859L234 22.2873C232.715 23.851 230.872 24.6887 228.722 24.6887C225.818 24.6887 223.78 23.6276 220.764 20.4443C215.402 19.7742 211.633 15.7253 211.633 10.4198C211.633 4.61174 216.156 0.311523 222.328 0.311523C228.471 0.311523 233.022 4.58381 233.022 10.4198C233.022 14.9993 230.202 18.6293 226.041 19.9696C226.991 20.9749 227.828 21.3379 228.806 21.3379C230.006 21.3379 231.068 20.8632 231.989 19.8859ZM216.212 10.4198C216.212 14.1336 218.837 16.6747 222.328 16.6747C225.818 16.6747 228.443 14.1336 228.443 10.4198C228.443 6.706 225.818 4.16496 222.328 4.16496C218.837 4.16496 216.212 6.706 216.212 10.4198Z" fill="#E93C53"/>
<path d="M196.719 20.1919V0.645508H201.242V20.1919H196.719Z" fill="#E93C53"/>
<path d="M185.098 20.1919H180.854L180.826 8.46408L175.073 18.1256H173.035L167.311 8.71539V20.1919H163.066V0.645508H166.808L174.124 12.7922L181.328 0.645508H185.042L185.098 20.1919Z" fill="#E93C53"/>
<path d="M152.867 20.1919H148.009L144.239 14.7469H144.016H140.078V20.1919H135.555V0.645508H144.016C149.237 0.645508 152.504 3.35408 152.504 7.73807C152.504 10.67 151.024 12.8201 148.483 13.9092L152.867 20.1919ZM147.925 7.73807C147.925 5.58796 146.529 4.33141 143.764 4.33141H140.078V11.1447H143.764C146.529 11.1447 147.925 9.86025 147.925 7.73807Z" fill="#E93C53"/>
<path d="M114.476 20.5281C108.305 20.5281 103.781 16.2279 103.781 10.4198C103.781 4.61174 108.305 0.311523 114.476 0.311523C120.619 0.311523 125.171 4.58381 125.171 10.4198C125.171 16.2558 120.619 20.5281 114.476 20.5281ZM114.476 16.6747C117.966 16.6747 120.591 14.1336 120.591 10.4198C120.591 6.706 117.966 4.16496 114.476 4.16496C110.986 4.16496 108.361 6.706 108.361 10.4198C108.361 14.1336 110.986 16.6747 114.476 16.6747Z" fill="#E93C53"/>
<path d="M95.1621 4.27556H84.9142V9.4414H93.9614V13.0715H84.9142V20.1919H80.3906V0.645508H95.1621V4.27556Z" fill="#E93C53"/>
<path d="M70.1876 20.1919H65.3289L61.5592 14.7469H61.3358H57.3986V20.1919H52.875V0.645508H61.3358C66.5575 0.645508 69.8245 3.35408 69.8245 7.73807C69.8245 10.67 68.3446 12.8201 65.8036 13.9092L70.1876 20.1919ZM65.2451 7.73807C65.2451 5.58796 63.8489 4.33141 61.0845 4.33141H57.3986V11.1447H61.0845C63.8489 11.1447 65.2451 9.86025 65.2451 7.73807Z" fill="#E93C53"/>
<path d="M31.6558 16.5619H42.2947V20.1919H27.1602V0.645508H41.9317V4.27556H31.6558V8.51993H40.731V12.0383H31.6558V16.5619Z" fill="#E93C53"/>
<path d="M8.46081 0.645508C13.6825 0.645508 16.9495 3.35408 16.9495 7.73807C16.9495 12.0941 13.6825 14.8027 8.46081 14.8027H4.5236V20.1919H0V0.645508H8.46081ZM8.2095 11.1168C10.9739 11.1168 12.3701 9.86025 12.3701 7.73807C12.3701 5.58796 10.9739 4.33141 8.2095 4.33141H4.5236V11.1168H8.2095Z" fill="#E93C53"/>
</svg>
